SplineFontDB: 3.2
FontName: NDOT47
FullName: NDOT47
FamilyName: NDOT47
Weight: Thin
Copyright: Copyright Interactivate 2021\n"NDOT 45 (inspired by NOTHING)
Version: 1.0
ItalicAngle: 0
UnderlinePosition: 153
UnderlineWidth: 102
Ascent: 1638
Descent: 410
InvalidEm: 0
sfntRevision: 0x00010000
LayerCount: 2
Layer: 0 1 "Back" 1
Layer: 1 1 "Fore" 0
XUID: [1021 251 215641348 5128219]
StyleMap: 0x0040
FSType: 4
OS2Version: 2
OS2_WeightWidthSlopeOnly: 0
OS2_UseTypoMetrics: 0
CreationTime: 1745911644
ModificationTime: 1746638978
PfmFamily: 81
TTFWeight: 400
TTFWidth: 5
LineGap: 0
VLineGap: 0
Panose: 0 0 4 0 0 0 0 0 0 0
OS2TypoAscent: 1592
OS2TypoAOffset: 0
OS2TypoDescent: -455
OS2TypoDOffset: 0
OS2TypoLinegap: 0
OS2WinAscent: 2275
OS2WinAOffset: 0
OS2WinDescent: 455
OS2WinDOffset: 0
HheadAscent: 2275
HheadAOffset: 0
HheadDescent: -455
HheadDOffset: 0
OS2SubXSize: 1024
OS2SubYSize: 1024
OS2SubXOff: 0
OS2SubYOff: -227
OS2SupXSize: 1024
OS2SupYSize: 1024
OS2SupXOff: 0
OS2SupYOff: 1024
OS2StrikeYSize: 102
OS2StrikeYPos: 409
OS2CapHeight: 1592
OS2XHeight: 1137
OS2Vendor: 'FSTR'
OS2CodePages: 200101ff.cdff0000
OS2UnicodeRanges: 00000001.00000000.00000000.00000000
Lookup: 258 0 0 "'kern' Horizontal Kerning in Latin lookup 0" { "'kern' Horizontal Kerning in Latin lookup 0 subtable"  } ['kern' ('latn' <'dflt' > ) ]
MarkAttachClasses: 1
DEI: 91125
ShortTable: maxp 16
  1
  0
  144
  391
  23
  0
  0
  2
  0
  0
  0
  0
  0
  0
  0
  0
EndShort

StartChar: .notdef
Encoding: 65536 -1 0
Width: 1339
GlyphClass: 1
Flags: W
LayerCount: 2
Fore
SplineSet
1156 50 m 1,0,-1
 612 777 l 1,1,-1
 69 50 l 1,2,-1
 1156 50 l 1,0,-1
50 69 m 1,3,-1
 593 796 l 1,4,-1
 50 1523 l 1,5,-1
 50 69 l 1,3,-1
1175 69 m 1,6,-1
 1175 1523 l 1,7,-1
 631 796 l 1,8,-1
 1175 69 l 1,6,-1
612 815 m 1,9,-1
 1156 1542 l 1,10,-1
 69 1542 l 1,11,-1
 612 815 l 1,9,-1
0 0 m 1,12,-1
 0 1592 l 1,13,-1
 1225 1592 l 1,14,-1
 1225 0 l 1,15,-1
 0 0 l 1,12,-1
EndSplineSet
EndChar

StartChar: exclam
Encoding: 33 33 2
Width: 682
GlyphClass: 1
Flags: W
LayerCount: 2
Fore
SplineSet
341 0 m 256,0,1
 294 0 294 0 260 33 c 0,2,3
 227 66 227 66 227 113 c 256,4,5
 227 160 227 160 260 194 c 0,6,7
 294 227 294 227 341 227 c 256,8,9
 388 227 388 227 421 194 c 0,10,11
 455 160 455 160 455 113 c 256,12,13
 455 66 455 66 421 33 c 0,14,15
 388 0 388 0 341 0 c 256,0,1
341 227 m 256,16,17
 294 227 294 227 260 260 c 0,18,19
 227 294 227 294 227 341 c 256,20,21
 227 388 227 388 260 421 c 0,22,23
 294 455 294 455 341 455 c 256,24,25
 388 455 388 455 421 421 c 0,26,27
 455 388 455 388 455 341 c 256,28,29
 455 294 455 294 421 260 c 0,30,31
 388 227 388 227 341 227 c 256,16,17
341 682 m 256,32,33
 294 682 294 682 260 716 c 0,34,35
 227 749 227 749 227 796 c 256,36,37
 227 843 227 843 260 876 c 0,38,39
 294 910 294 910 341 910 c 256,40,41
 388 910 388 910 421 876 c 0,42,43
 455 843 455 843 455 796 c 256,44,45
 455 749 455 749 421 716 c 0,46,47
 388 682 388 682 341 682 c 256,32,33
341 910 m 256,48,49
 294 910 294 910 260 943 c 0,50,51
 227 976 227 976 227 1024 c 0,52,53
 227 1071 227 1071 260 1104 c 0,54,55
 294 1137 294 1137 341 1137 c 256,56,57
 388 1137 388 1137 421 1104 c 0,58,59
 455 1071 455 1071 455 1024 c 0,60,61
 455 976 455 976 421 943 c 0,62,63
 388 910 388 910 341 910 c 256,48,49
341 1137 m 256,64,65
 294 1137 294 1137 260 1171 c 0,66,67
 227 1204 227 1204 227 1251 c 256,68,69
 227 1298 227 1298 260 1331 c 0,70,71
 294 1365 294 1365 341 1365 c 256,72,73
 388 1365 388 1365 421 1331 c 0,74,75
 455 1298 455 1298 455 1251 c 256,76,77
 455 1204 455 1204 421 1171 c 0,78,79
 388 1137 388 1137 341 1137 c 256,64,65
341 1365 m 256,80,81
 294 1365 294 1365 260 1398 c 0,82,83
 227 1432 227 1432 227 1479 c 256,84,85
 227 1526 227 1526 260 1559 c 0,86,87
 294 1592 294 1592 341 1592 c 256,88,89
 388 1592 388 1592 421 1559 c 0,90,91
 455 1526 455 1526 455 1479 c 0,92,93
 455 1431 455 1431 421 1398 c 0,94,95
 388 1365 388 1365 341 1365 c 256,80,81
EndSplineSet
EndChar

StartChar: quotedbl
Encoding: 34 34 3
Width: 682
GlyphClass: 1
Flags: W
LayerCount: 2
Fore
SplineSet
113 1137 m 256,0,1
 66 1137 66 1137 33 1171 c 0,2,3
 0 1204 0 1204 0 1251 c 256,4,5
 0 1298 0 1298 33 1331 c 0,6,7
 66 1365 66 1365 113 1365 c 256,8,9
 160 1365 160 1365 194 1331 c 0,10,11
 227 1298 227 1298 227 1251 c 256,12,13
 227 1204 227 1204 194 1171 c 0,14,15
 160 1137 160 1137 113 1137 c 256,0,1
341 1137 m 256,16,17
 294 1137 294 1137 260 1171 c 0,18,19
 227 1204 227 1204 227 1251 c 256,20,21
 227 1298 227 1298 260 1331 c 0,22,23
 294 1365 294 1365 341 1365 c 256,24,25
 388 1365 388 1365 421 1331 c 0,26,27
 455 1298 455 1298 455 1251 c 256,28,29
 455 1204 455 1204 421 1171 c 0,30,31
 388 1137 388 1137 341 1137 c 256,16,17
113 1365 m 256,32,33
 66 1365 66 1365 33 1398 c 0,34,35
 0 1432 0 1432 0 1479 c 256,36,37
 0 1526 0 1526 33 1559 c 256,38,39
 66 1592 66 1592 113 1592 c 256,40,41
 160 1592 160 1592 194 1559 c 0,42,43
 227 1526 227 1526 227 1479 c 0,44,45
 227 1431 227 1431 194 1398 c 0,46,47
 160 1365 160 1365 113 1365 c 256,32,33
341 1365 m 256,48,49
 294 1365 294 1365 260 1398 c 0,50,51
 227 1432 227 1432 227 1479 c 256,52,53
 227 1526 227 1526 260 1559 c 0,54,55
 294 1592 294 1592 341 1592 c 256,56,57
 388 1592 388 1592 421 1559 c 0,58,59
 455 1526 455 1526 455 1479 c 0,60,61
 455 1431 455 1431 421 1398 c 0,62,63
 388 1365 388 1365 341 1365 c 256,48,49
113 1592 m 256,64,65
 66 1592 66 1592 33 1626 c 0,66,67
 0 1659 0 1659 0 1706 c 256,68,69
 0 1753 0 1753 33 1787 c 0,70,71
 66 1820 66 1820 113 1820 c 256,72,73
 160 1820 160 1820 194 1787 c 0,74,75
 227 1753 227 1753 227 1706 c 256,76,77
 227 1659 227 1659 194 1626 c 0,78,79
 160 1592 160 1592 113 1592 c 256,64,65
341 1592 m 256,80,81
 294 1592 294 1592 260 1626 c 0,82,83
 227 1659 227 1659 227 1706 c 256,84,85
 227 1753 227 1753 260 1787 c 0,86,87
 294 1820 294 1820 341 1820 c 256,88,89
 388 1820 388 1820 421 1787 c 0,90,91
 455 1753 455 1753 455 1706 c 256,92,93
 455 1659 455 1659 421 1626 c 0,94,95
 388 1592 388 1592 341 1592 c 256,80,81
EndSplineSet
EndChar

StartChar: numbersign
Encoding: 35 35 4
Width: 1365
GlyphClass: 1
Flags: W
LayerCount: 2
Fore
SplineSet
341 0 m 256,0,1
 294 0 294 0 260 33 c 0,2,3
 227 66 227 66 227 113 c 256,4,5
 227 160 227 160 260 194 c 0,6,7
 294 227 294 227 341 227 c 256,8,9
 388 227 388 227 421 194 c 0,10,11
 455 160 455 160 455 113 c 256,12,13
 455 66 455 66 421 33 c 0,14,15
 388 0 388 0 341 0 c 256,0,1
796 0 m 256,16,17
 749 0 749 0 716 33 c 0,18,19
 682 66 682 66 682 113 c 256,20,21
 682 160 682 160 716 194 c 0,22,23
 749 227 749 227 796 227 c 256,24,25
 843 227 843 227 876 194 c 0,26,27
 910 160 910 160 910 113 c 256,28,29
 910 66 910 66 876 33 c 0,30,31
 843 0 843 0 796 0 c 256,16,17
341 227 m 256,32,33
 294 227 294 227 260 260 c 0,34,35
 227 294 227 294 227 341 c 256,36,37
 227 388 227 388 260 421 c 0,38,39
 294 455 294 455 341 455 c 256,40,41
 388 455 388 455 421 421 c 0,42,43
 455 388 455 388 455 341 c 256,44,45
 455 294 455 294 421 260 c 0,46,47
 388 227 388 227 341 227 c 256,32,33
796 227 m 256,48,49
 749 227 749 227 716 260 c 0,50,51
 682 294 682 294 682 341 c 256,52,53
 682 388 682 388 716 421 c 0,54,55
 749 455 749 455 796 455 c 256,56,57
 843 455 843 455 876 421 c 0,58,59
 910 388 910 388 910 341 c 256,60,61
 910 294 910 294 876 260 c 0,62,63
 843 227 843 227 796 227 c 256,48,49
113 455 m 256,64,65
 66 455 66 455 33 488 c 256,66,67
 0 521 0 521 0 568 c 0,68,69
 0 616 0 616 33 649 c 256,70,71
 66 682 66 682 113 682 c 256,72,73
 160 682 160 682 194 649 c 0,74,75
 227 615 227 615 227 568 c 256,76,77
 227 521 227 521 194 488 c 0,78,79
 160 455 160 455 113 455 c 256,64,65
341 455 m 256,80,81
 294 455 294 455 260 488 c 0,82,83
 227 521 227 521 227 568 c 0,84,85
 227 616 227 616 260 649 c 0,86,87
 294 682 294 682 341 682 c 256,88,89
 388 682 388 682 421 649 c 0,90,91
 455 615 455 615 455 568 c 256,92,93
 455 521 455 521 421 488 c 0,94,95
 388 455 388 455 341 455 c 256,80,81
568 455 m 256,96,97
 521 455 521 455 488 488 c 256,98,99
 455 521 455 521 455 568 c 0,100,101
 455 616 455 616 488 649 c 256,102,103
 521 682 521 682 568 682 c 0,104,105
 616 682 616 682 649 649 c 0,106,107
 682 615 682 615 682 568 c 256,108,109
 682 521 682 521 649 488 c 0,110,111
 615 455 615 455 568 455 c 256,96,97
796 455 m 256,112,113
 749 455 749 455 716 488 c 0,114,115
 682 521 682 521 682 568 c 0,116,117
 682 616 682 616 716 649 c 0,118,119
 749 682 749 682 796 682 c 256,120,121
 843 682 843 682 876 649 c 0,122,123
 910 615 910 615 910 568 c 256,124,125
 910 521 910 521 876 488 c 0,126,127
 843 455 843 455 796 455 c 256,112,113
1024 455 m 0,128,129
 976 455 976 455 943 488 c 256,130,131
 910 521 910 521 910 568 c 0,132,133
 910 616 910 616 943 649 c 256,134,135
 976 682 976 682 1024 682 c 0,136,137
 1071 682 1071 682 1104 649 c 0,138,139
 1137 615 1137 615 1137 568 c 256,140,141
 1137 521 1137 521 1104 488 c 256,142,143
 1071 455 1071 455 1024 455 c 0,128,129
341 682 m 256,144,145
 294 682 294 682 260 716 c 0,146,147
 227 749 227 749 227 796 c 256,148,149
 227 843 227 843 260 876 c 0,150,151
 294 910 294 910 341 910 c 256,152,153
 388 910 388 910 421 876 c 0,154,155
 455 843 455 843 455 796 c 256,156,157
 455 749 455 749 421 716 c 0,158,159
 388 682 388 682 341 682 c 256,144,145
796 682 m 256,160,161
 749 682 749 682 716 716 c 0,162,163
 682 749 682 749 682 796 c 256,164,165
 682 843 682 843 716 876 c 0,166,167
 749 910 749 910 796 910 c 256,168,169
 843 910 843 910 876 876 c 0,170,171
 910 843 910 843 910 796 c 256,172,173
 910 749 910 749 876 716 c 0,174,175
 843 682 843 682 796 682 c 256,160,161
113 910 m 256,176,177
 66 910 66 910 33 943 c 256,178,179
 0 976 0 976 0 1024 c 0,180,181
 0 1071 0 1071 33 1104 c 256,182,183
 66 1137 66 1137 113 1137 c 256,184,185
 160 1137 160 1137 194 1104 c 0,186,187
 227 1071 227 1071 227 1024 c 0,188,189
 227 976 227 976 194 943 c 0,190,191
 160 910 160 910 113 910 c 256,176,177
341 910 m 256,192,193
 294 910 294 910 260 943 c 0,194,195
 227 976 227 976 227 1024 c 0,196,197
 227 1071 227 1071 260 1104 c 0,198,199
 294 1137 294 1137 341 1137 c 256,200,201
 388 1137 388 1137 421 1104 c 0,202,203
 455 1071 455 1071 455 1024 c 0,204,205
 455 976 455 976 421 943 c 0,206,207
 388 910 388 910 341 910 c 256,192,193
568 910 m 256,208,209
 521 910 521 910 488 943 c 256,210,211
 455 976 455 976 455 1024 c 0,212,213
 455 1071 455 1071 488 1104 c 256,214,215
 521 1137 521 1137 568 1137 c 0,216,217
 616 1137 616 1137 649 1104 c 256,218,219
 682 1071 682 1071 682 1024 c 0,220,221
 682 976 682 976 649 943 c 0,222,223
 615 910 615 910 568 910 c 256,208,209
796 910 m 256,224,225
 749 910 749 910 716 943 c 0,226,227
 682 976 682 976 682 1024 c 0,228,229
 682 1071 682 1071 716 1104 c 0,230,231
 749 1137 749 1137 796 1137 c 256,232,233
 843 1137 843 1137 876 1104 c 0,234,235
 910 1071 910 1071 910 1024 c 0,236,237
 910 976 910 976 876 943 c 0,238,239
 843 910 843 910 796 910 c 256,224,225
1024 910 m 0,240,241
 976 910 976 910 943 943 c 256,242,243
 910 976 910 976 910 1024 c 0,244,245
 910 1071 910 1071 943 1104 c 256,246,247
 976 1137 976 1137 1024 1137 c 0,248,249
 1071 1137 1071 1137 1104 1104 c 256,250,251
 1137 1071 1137 1071 1137 1024 c 0,252,253
 1137 976 1137 976 1104 943 c 256,254,255
 1071 910 1071 910 1024 910 c 0,240,241
341 1137 m 256,256,257
 294 1137 294 1137 260 1171 c 0,258,259
 227 1204 227 1204 227 1251 c 256,260,261
 227 1298 227 1298 260 1331 c 0,262,263
 294 1365 294 1365 341 1365 c 256,264,265
 388 1365 388 1365 421 1331 c 0,266,267
 455 1298 455 1298 455 1251 c 256,268,269
 455 1204 455 1204 421 1171 c 0,270,271
 388 1137 388 1137 341 1137 c 256,256,257
796 1137 m 256,272,273
 749 1137 749 1137 716 1171 c 0,274,275
 682 1204 682 1204 682 1251 c 256,276,277
 682 1298 682 1298 716 1331 c 0,278,279
 749 1365 749 1365 796 1365 c 256,280,281
 843 1365 843 1365 876 1331 c 0,282,283
 910 1298 910 1298 910 1251 c 256,284,285
 910 1204 910 1204 876 1171 c 0,286,287
 843 1137 843 1137 796 1137 c 256,272,273
341 1365 m 256,288,289
 294 1365 294 1365 260 1398 c 0,290,291
 227 1432 227 1432 227 1479 c 256,292,293
 227 1526 227 1526 260 1559 c 0,294,295
 294 1592 294 1592 341 1592 c 256,296,297
 388 1592 388 1592 421 1559 c 0,298,299
 455 1526 455 1526 455 1479 c 0,300,301
 455 1431 455 1431 421 1398 c 0,302,303
 388 1365 388 1365 341 1365 c 256,288,289
796 1365 m 256,304,305
 749 1365 749 1365 716 1398 c 0,306,307
 682 1432 682 1432 682 1479 c 256,308,309
 682 1526 682 1526 716 1559 c 0,310,311
 749 1592 749 1592 796 1592 c 256,312,313
 843 1592 843 1592 876 1559 c 0,314,315
 910 1526 910 1526 910 1479 c 0,316,317
 910 1431 910 1431 876 1398 c 0,318,319
 843 1365 843 1365 796 1365 c 256,304,305
EndSplineSet
EndChar

StartChar: dollar
Encoding: 36 36 5
Width: 1365
GlyphClass: 1
Flags: W
LayerCount: 2
Fore
SplineSet
568 -227 m 256,0,1
 521 -227 521 -227 488 -194 c 0,2,3
 455 -160 455 -160 455 -113 c 256,4,5
 455 -66 455 -66 488 -33 c 256,6,7
 521 0 521 0 568 0 c 0,8,9
 616 0 616 0 649 -33 c 256,10,11
 682 -66 682 -66 682 -113 c 256,12,13
 682 -160 682 -160 649 -194 c 0,14,15
 615 -227 615 -227 568 -227 c 256,0,1
341 0 m 256,16,17
 294 0 294 0 260 33 c 0,18,19
 227 66 227 66 227 113 c 256,20,21
 227 160 227 160 260 194 c 0,22,23
 294 227 294 227 341 227 c 256,24,25
 388 227 388 227 421 194 c 0,26,27
 455 160 455 160 455 113 c 256,28,29
 455 66 455 66 421 33 c 0,30,31
 388 0 388 0 341 0 c 256,16,17
568 0 m 256,32,33
 521 0 521 0 488 33 c 256,34,35
 455 66 455 66 455 113 c 256,36,37
 455 160 455 160 488 194 c 0,38,39
 521 227 521 227 568 227 c 0,40,41
 616 227 616 227 649 194 c 0,42,43
 682 160 682 160 682 113 c 256,44,45
 682 66 682 66 649 33 c 0,46,47
 615 0 615 0 568 0 c 256,32,33
796 0 m 256,48,49
 749 0 749 0 716 33 c 0,50,51
 682 66 682 66 682 113 c 256,52,53
 682 160 682 160 716 194 c 0,54,55
 749 227 749 227 796 227 c 256,56,57
 843 227 843 227 876 194 c 0,58,59
 910 160 910 160 910 113 c 256,60,61
 910 66 910 66 876 33 c 0,62,63
 843 0 843 0 796 0 c 256,48,49
113 113 m 256,64,65
 66 113 66 113 33 147 c 0,66,67
 0 180 0 180 0 227 c 256,68,69
 0 274 0 274 33 307 c 0,70,71
 66 341 66 341 113 341 c 256,72,73
 160 341 160 341 194 307 c 0,74,75
 227 274 227 274 227 227 c 256,76,77
 227 180 227 180 194 147 c 0,78,79
 160 113 160 113 113 113 c 256,64,65
568 227 m 256,80,81
 521 227 521 227 488 260 c 0,82,83
 455 294 455 294 455 341 c 256,84,85
 455 388 455 388 488 421 c 0,86,87
 521 455 521 455 568 455 c 0,88,89
 616 455 616 455 649 421 c 0,90,91
 682 388 682 388 682 341 c 256,92,93
 682 294 682 294 649 260 c 0,94,95
 615 227 615 227 568 227 c 256,80,81
1024 227 m 0,96,97
 976 227 976 227 943 260 c 0,98,99
 910 294 910 294 910 341 c 256,100,101
 910 388 910 388 943 421 c 0,102,103
 976 455 976 455 1024 455 c 0,104,105
 1071 455 1071 455 1104 421 c 0,106,107
 1137 388 1137 388 1137 341 c 256,108,109
 1137 294 1137 294 1104 260 c 0,110,111
 1071 227 1071 227 1024 227 c 0,96,97
568 455 m 256,112,113
 521 455 521 455 488 488 c 256,114,115
 455 521 455 521 455 568 c 0,116,117
 455 616 455 616 488 649 c 256,118,119
 521 682 521 682 568 682 c 0,120,121
 616 682 616 682 649 649 c 0,122,123
 682 615 682 615 682 568 c 256,124,125
 682 521 682 521 649 488 c 0,126,127
 615 455 615 455 568 455 c 256,112,113
1024 455 m 0,128,129
 976 455 976 455 943 488 c 256,130,131
 910 521 910 521 910 568 c 0,132,133
 910 616 910 616 943 649 c 256,134,135
 976 682 976 682 1024 682 c 0,136,137
 1071 682 1071 682 1104 649 c 0,138,139
 1137 615 1137 615 1137 568 c 256,140,141
 1137 521 1137 521 1104 488 c 256,142,143
 1071 455 1071 455 1024 455 c 0,128,129
341 682 m 256,144,145
 294 682 294 682 260 716 c 0,146,147
 227 749 227 749 227 796 c 256,148,149
 227 843 227 843 260 876 c 0,150,151
 294 910 294 910 341 910 c 256,152,153
 388 910 388 910 421 876 c 0,154,155
 455 843 455 843 455 796 c 256,156,157
 455 749 455 749 421 716 c 0,158,159
 388 682 388 682 341 682 c 256,144,145
568 682 m 256,160,161
 521 682 521 682 488 716 c 0,162,163
 455 749 455 749 455 796 c 256,164,165
 455 843 455 843 488 876 c 0,166,167
 521 910 521 910 568 910 c 0,168,169
 616 910 616 910 649 876 c 0,170,171
 682 843 682 843 682 796 c 256,172,173
 682 749 682 749 649 716 c 0,174,175
 615 682 615 682 568 682 c 256,160,161
796 682 m 256,176,177
 749 682 749 682 716 716 c 0,178,179
 682 749 682 749 682 796 c 256,180,181
 682 843 682 843 716 876 c 0,182,183
 749 910 749 910 796 910 c 256,184,185
 843 910 843 910 876 876 c 0,186,187
 910 843 910 843 910 796 c 256,188,189
 910 749 910 749 876 716 c 0,190,191
 843 682 843 682 796 682 c 256,176,177
113 910 m 256,192,193
 66 910 66 910 33 943 c 256,194,195
 0 976 0 976 0 1024 c 0,196,197
 0 1071 0 1071 33 1104 c 256,198,199
 66 1137 66 1137 113 1137 c 256,200,201
 160 1137 160 1137 194 1104 c 0,202,203
 227 1071 227 1071 227 1024 c 0,204,205
 227 976 227 976 194 943 c 0,206,207
 160 910 160 910 113 910 c 256,192,193
568 910 m 256,208,209
 521 910 521 910 488 943 c 256,210,211
 455 976 455 976 455 1024 c 0,212,213
 455 1071 455 1071 488 1104 c 256,214,215
 521 1137 521 1137 568 1137 c 0,216,217
 616 1137 616 1137 649 1104 c 256,218,219
 682 1071 682 1071 682 1024 c 0,220,221
 682 976 682 976 649 943 c 0,222,223
 615 910 615 910 568 910 c 256,208,209
113 1137 m 256,224,225
 66 1137 66 1137 33 1171 c 0,226,227
 0 1204 0 1204 0 1251 c 256,228,229
 0 1298 0 1298 33 1331 c 0,230,231
 66 1365 66 1365 113 1365 c 256,232,233
 160 1365 160 1365 194 1331 c 0,234,235
 227 1298 227 1298 227 1251 c 256,236,237
 227 1204 227 1204 194 1171 c 0,238,239
 160 1137 160 1137 113 1137 c 256,224,225
568 1137 m 256,240,241
 521 1137 521 1137 488 1171 c 0,242,243
 455 1204 455 1204 455 1251 c 256,244,245
 455 1298 455 1298 488 1331 c 0,246,247
 521 1365 521 1365 568 1365 c 0,248,249
 616 1365 616 1365 649 1331 c 0,250,251
 682 1298 682 1298 682 1251 c 256,252,253
 682 1204 682 1204 649 1171 c 0,254,255
 615 1137 615 1137 568 1137 c 256,240,241
1024 1137 m 0,256,257
 976 1137 976 1137 943 1171 c 0,258,259
 910 1204 910 1204 910 1251 c 256,260,261
 910 1298 910 1298 943 1331 c 0,262,263
 976 1365 976 1365 1024 1365 c 0,264,265
 1071 1365 1071 1365 1104 1331 c 0,266,267
 1137 1298 1137 1298 1137 1251 c 256,268,269
 1137 1204 1137 1204 1104 1171 c 0,270,271
 1071 1137 1071 1137 1024 1137 c 0,256,257
341 1365 m 256,272,273
 294 1365 294 1365 260 1398 c 0,274,275
 227 1432 227 1432 227 1479 c 256,276,277
 227 1526 227 1526 260 1559 c 0,278,279
 294 1592 294 1592 341 1592 c 256,280,281
 388 1592 388 1592 421 1559 c 0,282,283
 455 1526 455 1526 455 1479 c 0,284,285
 455 1431 455 1431 421 1398 c 0,286,287
 388 1365 388 1365 341 1365 c 256,272,273
568 1365 m 256,288,289
 521 1365 521 1365 488 1398 c 0,290,291
 455 1432 455 1432 455 1479 c 256,292,293
 455 1526 455 1526 488 1559 c 256,294,295
 521 1592 521 1592 568 1592 c 0,296,297
 616 1592 616 1592 649 1559 c 256,298,299
 682 1526 682 1526 682 1479 c 0,300,301
 682 1431 682 1431 649 1398 c 0,302,303
 615 1365 615 1365 568 1365 c 256,288,289
796 1365 m 256,304,305
 749 1365 749 1365 716 1398 c 0,306,307
 682 1432 682 1432 682 1479 c 256,308,309
 682 1526 682 1526 716 1559 c 0,310,311
 749 1592 749 1592 796 1592 c 256,312,313
 843 1592 843 1592 876 1559 c 0,314,315
 910 1526 910 1526 910 1479 c 0,316,317
 910 1431 910 1431 876 1398 c 0,318,319
 843 1365 843 1365 796 1365 c 256,304,305
568 1592 m 256,320,321
 521 1592 521 1592 488 1626 c 0,322,323
 455 1659 455 1659 455 1706 c 256,324,325
 455 1753 455 1753 488 1787 c 0,326,327
 521 1820 521 1820 568 1820 c 0,328,329
 616 1820 616 1820 649 1787 c 0,330,331
 682 1753 682 1753 682 1706 c 256,332,333
 682 1659 682 1659 649 1626 c 0,334,335
 615 1592 615 1592 568 1592 c 256,320,321
EndSplineSet
EndChar

StartChar: percent
Encoding: 37 37 6
Width: 2275
GlyphClass: 1
Flags: W
LayerCount: 2
Fore
SplineSet
341 0 m 256,0,1
 294 0 294 0 260 33 c 0,2,3
 227 66 227 66 227 113 c 256,4,5
 227 160 227 160 260 194 c 0,6,7
 294 227 294 227 341 227 c 256,8,9
 388 227 388 227 421 194 c 0,10,11
 455 160 455 160 455 113 c 256,12,13
 455 66 455 66 421 33 c 0,14,15
 388 0 388 0 341 0 c 256,0,1
1479 0 m 0,16,17
 1431 0 1431 0 1398 33 c 256,18,19
 1365 66 1365 66 1365 113 c 256,20,21
 1365 160 1365 160 1398 194 c 0,22,23
 1432 227 1432 227 1479 227 c 256,24,25
 1526 227 1526 227 1559 194 c 0,26,27
 1592 160 1592 160 1592 113 c 256,28,29
 1592 66 1592 66 1559 33 c 256,30,31
 1526 0 1526 0 1479 0 c 0,16,17
1706 0 m 256,32,33
 1659 0 1659 0 1626 33 c 0,34,35
 1592 66 1592 66 1592 113 c 256,36,37
 1592 160 1592 160 1626 194 c 0,38,39
 1659 227 1659 227 1706 227 c 256,40,41
 1753 227 1753 227 1787 194 c 0,42,43
 1820 160 1820 160 1820 113 c 256,44,45
 1820 66 1820 66 1787 33 c 0,46,47
 1753 0 1753 0 1706 0 c 256,32,33
568 227 m 256,48,49
 521 227 521 227 488 260 c 0,50,51
 455 294 455 294 455 341 c 256,52,53
 455 388 455 388 488 421 c 0,54,55
 521 455 521 455 568 455 c 0,56,57
 616 455 616 455 649 421 c 0,58,59
 682 388 682 388 682 341 c 256,60,61
 682 294 682 294 649 260 c 0,62,63
 615 227 615 227 568 227 c 256,48,49
1251 227 m 256,64,65
 1204 227 1204 227 1171 260 c 0,66,67
 1137 294 1137 294 1137 341 c 256,68,69
 1137 388 1137 388 1171 421 c 0,70,71
 1204 455 1204 455 1251 455 c 256,72,73
 1298 455 1298 455 1331 421 c 0,74,75
 1365 388 1365 388 1365 341 c 256,76,77
 1365 294 1365 294 1331 260 c 0,78,79
 1298 227 1298 227 1251 227 c 256,64,65
1934 227 m 256,80,81
 1887 227 1887 227 1853 260 c 0,82,83
 1820 294 1820 294 1820 341 c 256,84,85
 1820 388 1820 388 1853 421 c 0,86,87
 1887 455 1887 455 1934 455 c 256,88,89
 1981 455 1981 455 2014 421 c 0,90,91
 2048 388 2048 388 2048 341 c 256,92,93
 2048 294 2048 294 2014 260 c 0,94,95
 1981 227 1981 227 1934 227 c 256,80,81
796 455 m 256,96,97
 749 455 749 455 716 488 c 0,98,99
 682 521 682 521 682 568 c 0,100,101
 682 616 682 616 716 649 c 0,102,103
 749 682 749 682 796 682 c 256,104,105
 843 682 843 682 876 649 c 0,106,107
 910 615 910 615 910 568 c 256,108,109
 910 521 910 521 876 488 c 0,110,111
 843 455 843 455 796 455 c 256,96,97
1251 455 m 256,112,113
 1204 455 1204 455 1171 488 c 0,114,115
 1137 521 1137 521 1137 568 c 0,116,117
 1137 616 1137 616 1171 649 c 0,118,119
 1204 682 1204 682 1251 682 c 256,120,121
 1298 682 1298 682 1331 649 c 0,122,123
 1365 615 1365 615 1365 568 c 256,124,125
 1365 521 1365 521 1331 488 c 0,126,127
 1298 455 1298 455 1251 455 c 256,112,113
1934 455 m 256,128,129
 1887 455 1887 455 1853 488 c 0,130,131
 1820 521 1820 521 1820 568 c 0,132,133
 1820 616 1820 616 1853 649 c 0,134,135
 1887 682 1887 682 1934 682 c 256,136,137
 1981 682 1981 682 2014 649 c 0,138,139
 2048 615 2048 615 2048 568 c 256,140,141
 2048 521 2048 521 2014 488 c 0,142,143
 1981 455 1981 455 1934 455 c 256,128,129
341 682 m 256,144,145
 294 682 294 682 260 716 c 0,146,147
 227 749 227 749 227 796 c 256,148,149
 227 843 227 843 260 876 c 0,150,151
 294 910 294 910 341 910 c 256,152,153
 388 910 388 910 421 876 c 0,154,155
 455 843 455 843 455 796 c 256,156,157
 455 749 455 749 421 716 c 0,158,159
 388 682 388 682 341 682 c 256,144,145
568 682 m 256,160,161
 521 682 521 682 488 716 c 0,162,163
 455 749 455 749 455 796 c 256,164,165
 455 843 455 843 488 876 c 0,166,167
 521 910 521 910 568 910 c 0,168,169
 616 910 616 910 649 876 c 0,170,171
 682 843 682 843 682 796 c 256,172,173
 682 749 682 749 649 716 c 0,174,175
 615 682 615 682 568 682 c 256,160,161
1024 682 m 0,176,177
 976 682 976 682 943 716 c 0,178,179
 910 749 910 749 910 796 c 256,180,181
 910 843 910 843 943 876 c 0,182,183
 976 910 976 910 1024 910 c 0,184,185
 1071 910 1071 910 1104 876 c 0,186,187
 1137 843 1137 843 1137 796 c 256,188,189
 1137 749 1137 749 1104 716 c 0,190,191
 1071 682 1071 682 1024 682 c 0,176,177
1479 682 m 0,192,193
 1431 682 1431 682 1398 716 c 0,194,195
 1365 749 1365 749 1365 796 c 256,196,197
 1365 843 1365 843 1398 876 c 0,198,199
 1432 910 1432 910 1479 910 c 256,200,201
 1526 910 1526 910 1559 876 c 0,202,203
 1592 843 1592 843 1592 796 c 256,204,205
 1592 749 1592 749 1559 716 c 0,206,207
 1526 682 1526 682 1479 682 c 0,192,193
1706 682 m 256,208,209
 1659 682 1659 682 1626 716 c 0,210,211
 1592 749 1592 749 1592 796 c 256,212,213
 1592 843 1592 843 1626 876 c 0,214,215
 1659 910 1659 910 1706 910 c 256,216,217
 1753 910 1753 910 1787 876 c 0,218,219
 1820 843 1820 843 1820 796 c 256,220,221
 1820 749 1820 749 1787 716 c 0,222,223
 1753 682 1753 682 1706 682 c 256,208,209
113 910 m 256,224,225
 66 910 66 910 33 943 c 256,226,227
 0 976 0 976 0 1024 c 0,228,229
 0 1071 0 1071 33 1104 c 256,230,231
 66 1137 66 1137 113 1137 c 256,232,233
 160 1137 160 1137 194 1104 c 0,234,235
 227 1071 227 1071 227 1024 c 0,236,237
 227 976 227 976 194 943 c 0,238,239
 160 910 160 910 113 910 c 256,224,225
796 910 m 256,240,241
 749 910 749 910 716 943 c 0,242,243
 682 976 682 976 682 1024 c 0,244,245
 682 1071 682 1071 716 1104 c 0,246,247
 749 1137 749 1137 796 1137 c 256,248,249
 843 1137 843 1137 876 1104 c 0,250,251
 910 1071 910 1071 910 1024 c 0,252,253
 910 976 910 976 876 943 c 0,254,255
 843 910 843 910 796 910 c 256,240,241
1251 910 m 256,256,257
 1204 910 1204 910 1171 943 c 0,258,259
 1137 976 1137 976 1137 1024 c 0,260,261
 1137 1071 1137 1071 1171 1104 c 0,262,263
 1204 1137 1204 1137 1251 1137 c 256,264,265
 1298 1137 1298 1137 1331 1104 c 0,266,267
 1365 1071 1365 1071 1365 1024 c 0,268,269
 1365 976 1365 976 1331 943 c 0,270,271
 1298 910 1298 910 1251 910 c 256,256,257
113 1137 m 256,272,273
 66 1137 66 1137 33 1171 c 0,274,275
 0 1204 0 1204 0 1251 c 256,276,277
 0 1298 0 1298 33 1331 c 0,278,279
 66 1365 66 1365 113 1365 c 256,280,281
 160 1365 160 1365 194 1331 c 0,282,283
 227 1298 227 1298 227 1251 c 256,284,285
 227 1204 227 1204 194 1171 c 0,286,287
 160 1137 160 1137 113 1137 c 256,272,273
796 1137 m 256,288,289
 749 1137 749 1137 716 1171 c 0,290,291
 682 1204 682 1204 682 1251 c 256,292,293
 682 1298 682 1298 716 1331 c 0,294,295
 749 1365 749 1365 796 1365 c 256,296,297
 843 1365 843 1365 876 1331 c 0,298,299
 910 1298 910 1298 910 1251 c 256,300,301
 910 1204 910 1204 876 1171 c 0,302,303
 843 1137 843 1137 796 1137 c 256,288,289
1479 1137 m 0,304,305
 1431 1137 1431 1137 1398 1171 c 0,306,307
 1365 1204 1365 1204 1365 1251 c 256,308,309
 1365 1298 1365 1298 1398 1331 c 0,310,311
 1432 1365 1432 1365 1479 1365 c 256,312,313
 1526 1365 1526 1365 1559 1331 c 0,314,315
 1592 1298 1592 1298 1592 1251 c 256,316,317
 1592 1204 1592 1204 1559 1171 c 0,318,319
 1526 1137 1526 1137 1479 1137 c 0,304,305
341 1365 m 256,320,321
 294 1365 294 1365 260 1398 c 0,322,323
 227 1432 227 1432 227 1479 c 256,324,325
 227 1526 227 1526 260 1559 c 0,326,327
 294 1592 294 1592 341 1592 c 256,328,329
 388 1592 388 1592 421 1559 c 0,330,331
 455 1526 455 1526 455 1479 c 0,332,333
 455 1431 455 1431 421 1398 c 0,334,335
 388 1365 388 1365 341 1365 c 256,320,321
568 1365 m 256,336,337
 521 1365 521 1365 488 1398 c 0,338,339
 455 1432 455 1432 455 1479 c 256,340,341
 455 1526 455 1526 488 1559 c 256,342,343
 521 1592 521 1592 568 1592 c 0,344,345
 616 1592 616 1592 649 1559 c 256,346,347
 682 1526 682 1526 682 1479 c 0,348,349
 682 1431 682 1431 649 1398 c 0,350,351
 615 1365 615 1365 568 1365 c 256,336,337
1706 1365 m 256,352,353
 1659 1365 1659 1365 1626 1398 c 0,354,355
 1592 1432 1592 1432 1592 1479 c 256,356,357
 1592 1526 1592 1526 1626 1559 c 0,358,359
 1659 1592 1659 1592 1706 1592 c 256,360,361
 1753 1592 1753 1592 1787 1559 c 0,362,363
 1820 1526 1820 1526 1820 1479 c 0,364,365
 1820 1431 1820 1431 1787 1398 c 0,366,367
 1753 1365 1753 1365 1706 1365 c 256,352,353
EndSplineSet
EndChar

StartChar: ampersand
Encoding: 38 38 7
Width: 1592
GlyphClass: 1
Flags: W
LayerCount: 2
Fore
SplineSet
341 0 m 256,0,1
 294 0 294 0 260 33 c 0,2,3
 227 66 227 66 227 113 c 256,4,5
 227 160 227 160 260 194 c 0,6,7
 294 227 294 227 341 227 c 256,8,9
 388 227 388 227 421 194 c 0,10,11
 455 160 455 160 455 113 c 256,12,13
 455 66 455 66 421 33 c 0,14,15
 388 0 388 0 341 0 c 256,0,1
568 0 m 256,16,17
 521 0 521 0 488 33 c 256,18,19
 455 66 455 66 455 113 c 256,20,21
 455 160 455 160 488 194 c 0,22,23
 521 227 521 227 568 227 c 0,24,25
 616 227 616 227 649 194 c 0,26,27
 682 160 682 160 682 113 c 256,28,29
 682 66 682 66 649 33 c 0,30,31
 615 0 615 0 568 0 c 256,16,17
796 0 m 256,32,33
 749 0 749 0 716 33 c 0,34,35
 682 66 682 66 682 113 c 256,36,37
 682 160 682 160 716 194 c 0,38,39
 749 227 749 227 796 227 c 256,40,41
 843 227 843 227 876 194 c 0,42,43
 910 160 910 160 910 113 c 256,44,45
 910 66 910 66 876 33 c 0,46,47
 843 0 843 0 796 0 c 256,32,33
1251 0 m 256,48,49
 1204 0 1204 0 1171 33 c 0,50,51
 1137 66 1137 66 1137 113 c 256,52,53
 1137 160 1137 160 1171 194 c 0,54,55
 1204 227 1204 227 1251 227 c 256,56,57
 1298 227 1298 227 1331 194 c 0,58,59
 1365 160 1365 160 1365 113 c 256,60,61
 1365 66 1365 66 1331 33 c 0,62,63
 1298 0 1298 0 1251 0 c 256,48,49
113 227 m 256,64,65
 66 227 66 227 33 260 c 0,66,67
 0 294 0 294 0 341 c 256,68,69
 0 388 0 388 33 421 c 0,70,71
 66 455 66 455 113 455 c 256,72,73
 160 455 160 455 194 421 c 0,74,75
 227 388 227 388 227 341 c 256,76,77
 227 294 227 294 194 260 c 0,78,79
 160 227 160 227 113 227 c 256,64,65
1024 227 m 0,80,81
 976 227 976 227 943 260 c 0,82,83
 910 294 910 294 910 341 c 256,84,85
 910 388 910 388 943 421 c 0,86,87
 976 455 976 455 1024 455 c 0,88,89
 1071 455 1071 455 1104 421 c 0,90,91
 1137 388 1137 388 1137 341 c 256,92,93
 1137 294 1137 294 1104 260 c 0,94,95
 1071 227 1071 227 1024 227 c 0,80,81
113 455 m 256,96,97
 66 455 66 455 33 488 c 256,98,99
 0 521 0 521 0 568 c 0,100,101
 0 616 0 616 33 649 c 256,102,103
 66 682 66 682 113 682 c 256,104,105
 160 682 160 682 194 649 c 0,106,107
 227 615 227 615 227 568 c 256,108,109
 227 521 227 521 194 488 c 0,110,111
 160 455 160 455 113 455 c 256,96,97
796 455 m 256,112,113
 749 455 749 455 716 488 c 0,114,115
 682 521 682 521 682 568 c 0,116,117
 682 616 682 616 716 649 c 0,118,119
 749 682 749 682 796 682 c 256,120,121
 843 682 843 682 876 649 c 0,122,123
 910 615 910 615 910 568 c 256,124,125
 910 521 910 521 876 488 c 0,126,127
 843 455 843 455 796 455 c 256,112,113
1251 455 m 256,128,129
 1204 455 1204 455 1171 488 c 0,130,131
 1137 521 1137 521 1137 568 c 0,132,133
 1137 616 1137 616 1171 649 c 0,134,135
 1204 682 1204 682 1251 682 c 256,136,137
 1298 682 1298 682 1331 649 c 0,138,139
 1365 615 1365 615 1365 568 c 256,140,141
 1365 521 1365 521 1331 488 c 0,142,143
 1298 455 1298 455 1251 455 c 256,128,129
341 682 m 256,144,145
 294 682 294 682 260 716 c 0,146,147
 227 749 227 749 227 796 c 256,148,149
 227 843 227 843 260 876 c 0,150,151
 294 910 294 910 341 910 c 256,152,153
 388 910 388 910 421 876 c 0,154,155
 455 843 455 843 455 796 c 256,156,157
 455 749 455 749 421 716 c 0,158,159
 388 682 388 682 341 682 c 256,144,145
568 682 m 256,160,161
 521 682 521 682 488 716 c 0,162,163
 455 749 455 749 455 796 c 256,164,165
 455 843 455 843 488 876 c 0,166,167
 521 910 521 910 568 910 c 0,168,169
 616 910 616 910 649 876 c 0,170,171
 682 843 682 843 682 796 c 256,172,173
 682 749 682 749 649 716 c 0,174,175
 615 682 615 682 568 682 c 256,160,161
113 910 m 256,176,177
 66 910 66 910 33 943 c 256,178,179
 0 976 0 976 0 1024 c 0,180,181
 0 1071 0 1071 33 1104 c 256,182,183
 66 1137 66 1137 113 1137 c 256,184,185
 160 1137 160 1137 194 1104 c 0,186,187
 227 1071 227 1071 227 1024 c 0,188,189
 227 976 227 976 194 943 c 0,190,191
 160 910 160 910 113 910 c 256,176,177
796 910 m 256,192,193
 749 910 749 910 716 943 c 0,194,195
 682 976 682 976 682 1024 c 0,196,197
 682 1071 682 1071 716 1104 c 0,198,199
 749 1137 749 1137 796 1137 c 256,200,201
 843 1137 843 1137 876 1104 c 0,202,203
 910 1071 910 1071 910 1024 c 0,204,205
 910 976 910 976 876 943 c 0,206,207
 843 910 843 910 796 910 c 256,192,193
113 1137 m 256,208,209
 66 1137 66 1137 33 1171 c 0,210,211
 0 1204 0 1204 0 1251 c 256,212,213
 0 1298 0 1298 33 1331 c 0,214,215
 66 1365 66 1365 113 1365 c 256,216,217
 160 1365 160 1365 194 1331 c 0,218,219
 227 1298 227 1298 227 1251 c 256,220,221
 227 1204 227 1204 194 1171 c 0,222,223
 160 1137 160 1137 113 1137 c 256,208,209
796 1137 m 256,224,225
 749 1137 749 1137 716 1171 c 0,226,227
 682 1204 682 1204 682 1251 c 256,228,229
 682 1298 682 1298 716 1331 c 0,230,231
 749 1365 749 1365 796 1365 c 256,232,233
 843 1365 843 1365 876 1331 c 0,234,235
 910 1298 910 1298 910 1251 c 256,236,237
 910 1204 910 1204 876 1171 c 0,238,239
 843 1137 843 1137 796 1137 c 256,224,225
341 1365 m 256,240,241
 294 1365 294 1365 260 1398 c 0,242,243
 227 1432 227 1432 227 1479 c 256,244,245
 227 1526 227 1526 260 1559 c 0,246,247
 294 1592 294 1592 341 1592 c 256,248,249
 388 1592 388 1592 421 1559 c 0,250,251
 455 1526 455 1526 455 1479 c 0,252,253
 455 1431 455 1431 421 1398 c 0,254,255
 388 1365 388 1365 341 1365 c 256,240,241
568 1365 m 256,256,257
 521 1365 521 1365 488 1398 c 0,258,259
 455 1432 455 1432 455 1479 c 256,260,261
 455 1526 455 1526 488 1559 c 256,262,263
 521 1592 521 1592 568 1592 c 0,264,265
 616 1592 616 1592 649 1559 c 256,266,267
 682 1526 682 1526 682 1479 c 0,268,269
 682 1431 682 1431 649 1398 c 0,270,271
 615 1365 615 1365 568 1365 c 256,256,257
EndSplineSet
EndChar

StartChar: quotesingle
Encoding: 39 39 8
Width: 682
GlyphClass: 1
Flags: W
LayerCount: 2
Fore
SplineSet
113 1137 m 256,0,1
 66 1137 66 1137 33 1171 c 0,2,3
 0 1204 0 1204 0 1251 c 256,4,5
 0 1298 0 1298 33 1331 c 0,6,7
 66 1365 66 1365 113 1365 c 256,8,9
 160 1365 160 1365 194 1331 c 0,10,11
 227 1298 227 1298 227 1251 c 256,12,13
 227 1204 227 1204 194 1171 c 0,14,15
 160 1137 160 1137 113 1137 c 256,0,1
341 1365 m 256,16,17
 294 1365 294 1365 260 1398 c 0,18,19
 227 1432 227 1432 227 1479 c 256,20,21
 227 1526 227 1526 260 1559 c 0,22,23
 294 1592 294 1592 341 1592 c 256,24,25
 388 1592 388 1592 421 1559 c 0,26,27
 455 1526 455 1526 455 1479 c 0,28,29
 455 1431 455 1431 421 1398 c 0,30,31
 388 1365 388 1365 341 1365 c 256,16,17
341 1592 m 256,32,33
 294 1592 294 1592 260 1626 c 0,34,35
 227 1659 227 1659 227 1706 c 256,36,37
 227 1753 227 1753 260 1787 c 0,38,39
 294 1820 294 1820 341 1820 c 256,40,41
 388 1820 388 1820 421 1787 c 0,42,43
 455 1753 455 1753 455 1706 c 256,44,45
 455 1659 455 1659 421 1626 c 0,46,47
 388 1592 388 1592 341 1592 c 256,32,33
EndSplineSet
EndChar

StartChar: parenleft
Encoding: 40 40 9
Width: 910
GlyphClass: 1
Flags: W
LayerCount: 2
Fore
SplineSet
341 0 m 256,0,1
 294 0 294 0 260 33 c 0,2,3
 227 66 227 66 227 113 c 256,4,5
 227 160 227 160 260 194 c 0,6,7
 294 227 294 227 341 227 c 256,8,9
 388 227 388 227 421 194 c 0,10,11
 455 160 455 160 455 113 c 256,12,13
 455 66 455 66 421 33 c 0,14,15
 388 0 388 0 341 0 c 256,0,1
568 0 m 256,16,17
 521 0 521 0 488 33 c 256,18,19
 455 66 455 66 455 113 c 256,20,21
 455 160 455 160 488 194 c 0,22,23
 521 227 521 227 568 227 c 0,24,25
 616 227 616 227 649 194 c 0,26,27
 682 160 682 160 682 113 c 256,28,29
 682 66 682 66 649 33 c 0,30,31
 615 0 615 0 568 0 c 256,16,17
113 227 m 256,32,33
 66 227 66 227 33 260 c 0,34,35
 0 294 0 294 0 341 c 256,36,37
 0 388 0 388 33 421 c 0,38,39
 66 455 66 455 113 455 c 256,40,41
 160 455 160 455 194 421 c 0,42,43
 227 388 227 388 227 341 c 256,44,45
 227 294 227 294 194 260 c 0,46,47
 160 227 160 227 113 227 c 256,32,33
113 455 m 256,48,49
 66 455 66 455 33 488 c 256,50,51
 0 521 0 521 0 568 c 0,52,53
 0 616 0 616 33 649 c 256,54,55
 66 682 66 682 113 682 c 256,56,57
 160 682 160 682 194 649 c 0,58,59
 227 615 227 615 227 568 c 256,60,61
 227 521 227 521 194 488 c 0,62,63
 160 455 160 455 113 455 c 256,48,49
113 682 m 256,64,65
 66 682 66 682 33 716 c 0,66,67
 0 749 0 749 0 796 c 256,68,69
 0 843 0 843 33 876 c 0,70,71
 66 910 66 910 113 910 c 256,72,73
 160 910 160 910 194 876 c 0,74,75
 227 843 227 843 227 796 c 256,76,77
 227 749 227 749 194 716 c 0,78,79
 160 682 160 682 113 682 c 256,64,65
113 910 m 256,80,81
 66 910 66 910 33 943 c 256,82,83
 0 976 0 976 0 1024 c 0,84,85
 0 1071 0 1071 33 1104 c 256,86,87
 66 1137 66 1137 113 1137 c 256,88,89
 160 1137 160 1137 194 1104 c 0,90,91
 227 1071 227 1071 227 1024 c 0,92,93
 227 976 227 976 194 943 c 0,94,95
 160 910 160 910 113 910 c 256,80,81
113 1137 m 256,96,97
 66 1137 66 1137 33 1171 c 0,98,99
 0 1204 0 1204 0 1251 c 256,100,101
 0 1298 0 1298 33 1331 c 0,102,103
 66 1365 66 1365 113 1365 c 256,104,105
 160 1365 160 1365 194 1331 c 0,106,107
 227 1298 227 1298 227 1251 c 256,108,109
 227 1204 227 1204 194 1171 c 0,110,111
 160 1137 160 1137 113 1137 c 256,96,97
341 1365 m 256,112,113
 294 1365 294 1365 260 1398 c 0,114,115
 227 1432 227 1432 227 1479 c 256,116,117
 227 1526 227 1526 260 1559 c 0,118,119
 294 1592 294 1592 341 1592 c 256,120,121
 388 1592 388 1592 421 1559 c 0,122,123
 455 1526 455 1526 455 1479 c 0,124,125
 455 1431 455 1431 421 1398 c 0,126,127
 388 1365 388 1365 341 1365 c 256,112,113
568 1365 m 256,128,129
 521 1365 521 1365 488 1398 c 0,130,131
 455 1432 455 1432 455 1479 c 256,132,133
 455 1526 455 1526 488 1559 c 256,134,135
 521 1592 521 1592 568 1592 c 0,136,137
 616 1592 616 1592 649 1559 c 256,138,139
 682 1526 682 1526 682 1479 c 0,140,141
 682 1431 682 1431 649 1398 c 0,142,143
 615 1365 615 1365 568 1365 c 256,128,129
EndSplineSet
EndChar

StartChar: parenright
Encoding: 41 41 10
Width: 910
GlyphClass: 1
Flags: W
LayerCount: 2
Fore
SplineSet
113 0 m 256,0,1
 66 0 66 0 33 33 c 256,2,3
 0 66 0 66 0 113 c 256,4,5
 0 160 0 160 33 194 c 0,6,7
 66 227 66 227 113 227 c 256,8,9
 160 227 160 227 194 194 c 0,10,11
 227 160 227 160 227 113 c 256,12,13
 227 66 227 66 194 33 c 0,14,15
 160 0 160 0 113 0 c 256,0,1
341 0 m 256,16,17
 294 0 294 0 260 33 c 0,18,19
 227 66 227 66 227 113 c 256,20,21
 227 160 227 160 260 194 c 0,22,23
 294 227 294 227 341 227 c 256,24,25
 388 227 388 227 421 194 c 0,26,27
 455 160 455 160 455 113 c 256,28,29
 455 66 455 66 421 33 c 0,30,31
 388 0 388 0 341 0 c 256,16,17
568 227 m 256,32,33
 521 227 521 227 488 260 c 0,34,35
 455 294 455 294 455 341 c 256,36,37
 455 388 455 388 488 421 c 0,38,39
 521 455 521 455 568 455 c 0,40,41
 616 455 616 455 649 421 c 0,42,43
 682 388 682 388 682 341 c 256,44,45
 682 294 682 294 649 260 c 0,46,47
 615 227 615 227 568 227 c 256,32,33
568 455 m 256,48,49
 521 455 521 455 488 488 c 256,50,51
 455 521 455 521 455 568 c 0,52,53
 455 616 455 616 488 649 c 256,54,55
 521 682 521 682 568 682 c 0,56,57
 616 682 616 682 649 649 c 0,58,59
 682 615 682 615 682 568 c 256,60,61
 682 521 682 521 649 488 c 0,62,63
 615 455 615 455 568 455 c 256,48,49
568 682 m 256,64,65
 521 682 521 682 488 716 c 0,66,67
 455 749 455 749 455 796 c 256,68,69
 455 843 455 843 488 876 c 0,70,71
 521 910 521 910 568 910 c 0,72,73
 616 910 616 910 649 876 c 0,74,75
 682 843 682 843 682 796 c 256,76,77
 682 749 682 749 649 716 c 0,78,79
 615 682 615 682 568 682 c 256,64,65
568 910 m 256,80,81
 521 910 521 910 488 943 c 256,82,83
 455 976 455 976 455 1024 c 0,84,85
 455 1071 455 1071 488 1104 c 256,86,87
 521 1137 521 1137 568 1137 c 0,88,89
 616 1137 616 1137 649 1104 c 256,90,91
 682 1071 682 1071 682 1024 c 0,92,93
 682 976 682 976 649 943 c 0,94,95
 615 910 615 910 568 910 c 256,80,81
568 1137 m 256,96,97
 521 1137 521 1137 488 1171 c 0,98,99
 455 1204 455 1204 455 1251 c 256,100,101
 455 1298 455 1298 488 1331 c 0,102,103
 521 1365 521 1365 568 1365 c 0,104,105
 616 1365 616 1365 649 1331 c 0,106,107
 682 1298 682 1298 682 1251 c 256,108,109
 682 1204 682 1204 649 1171 c 0,110,111
 615 1137 615 1137 568 1137 c 256,96,97
113 1365 m 256,112,113
 66 1365 66 1365 33 1398 c 0,114,115
 0 1432 0 1432 0 1479 c 256,116,117
 0 1526 0 1526 33 1559 c 256,118,119
 66 1592 66 1592 113 1592 c 256,120,121
 160 1592 160 1592 194 1559 c 0,122,123
 227 1526 227 1526 227 1479 c 0,124,125
 227 1431 227 1431 194 1398 c 0,126,127
 160 1365 160 1365 113 1365 c 256,112,113
341 1365 m 256,128,129
 294 1365 294 1365 260 1398 c 0,130,131
 227 1432 227 1432 227 1479 c 256,132,133
 227 1526 227 1526 260 1559 c 0,134,135
 294 1592 294 1592 341 1592 c 256,136,137
 388 1592 388 1592 421 1559 c 0,138,139
 455 1526 455 1526 455 1479 c 0,140,141
 455 1431 455 1431 421 1398 c 0,142,143
 388 1365 388 1365 341 1365 c 256,128,129
EndSplineSet
EndChar

StartChar: asterisk
Encoding: 42 42 11
Width: 910
GlyphClass: 1
Flags: W
LayerCount: 2
Fore
SplineSet
341 910 m 256,0,1
 294 910 294 910 260 943 c 0,2,3
 227 976 227 976 227 1024 c 0,4,5
 227 1071 227 1071 260 1104 c 0,6,7
 294 1137 294 1137 341 1137 c 256,8,9
 388 1137 388 1137 421 1104 c 0,10,11
 455 1071 455 1071 455 1024 c 0,12,13
 455 976 455 976 421 943 c 0,14,15
 388 910 388 910 341 910 c 256,0,1
113 1137 m 256,16,17
 66 1137 66 1137 33 1171 c 0,18,19
 0 1204 0 1204 0 1251 c 256,20,21
 0 1298 0 1298 33 1331 c 0,22,23
 66 1365 66 1365 113 1365 c 256,24,25
 160 1365 160 1365 194 1331 c 0,26,27
 227 1298 227 1298 227 1251 c 256,28,29
 227 1204 227 1204 194 1171 c 0,30,31
 160 1137 160 1137 113 1137 c 256,16,17
341 1137 m 256,32,33
 294 1137 294 1137 260 1171 c 0,34,35
 227 1204 227 1204 227 1251 c 256,36,37
 227 1298 227 1298 260 1331 c 0,38,39
 294 1365 294 1365 341 1365 c 256,40,41
 388 1365 388 1365 421 1331 c 0,42,43
 455 1298 455 1298 455 1251 c 256,44,45
 455 1204 455 1204 421 1171 c 0,46,47
 388 1137 388 1137 341 1137 c 256,32,33
568 1137 m 256,48,49
 521 1137 521 1137 488 1171 c 0,50,51
 455 1204 455 1204 455 1251 c 256,52,53
 455 1298 455 1298 488 1331 c 0,54,55
 521 1365 521 1365 568 1365 c 0,56,57
 616 1365 616 1365 649 1331 c 0,58,59
 682 1298 682 1298 682 1251 c 256,60,61
 682 1204 682 1204 649 1171 c 0,62,63
 615 1137 615 1137 568 1137 c 256,48,49
341 1365 m 256,64,65
 294 1365 294 1365 260 1398 c 0,66,67
 227 1432 227 1432 227 1479 c 256,68,69
 227 1526 227 1526 260 1559 c 0,70,71
 294 1592 294 1592 341 1592 c 256,72,73
 388 1592 388 1592 421 1559 c 0,74,75
 455 1526 455 1526 455 1479 c 0,76,77
 455 1431 455 1431 421 1398 c 0,78,79
 388 1365 388 1365 341 1365 c 256,64,65
EndSplineSet
EndChar

StartChar: plus
Encoding: 43 43 12
Width: 1365
GlyphClass: 1
Flags: W
LayerCount: 2
Fore
SplineSet
568 227 m 256,0,1
 521 227 521 227 488 260 c 0,2,3
 455 294 455 294 455 341 c 256,4,5
 455 388 455 388 488 421 c 0,6,7
 521 455 521 455 568 455 c 0,8,9
 616 455 616 455 649 421 c 0,10,11
 682 388 682 388 682 341 c 256,12,13
 682 294 682 294 649 260 c 0,14,15
 615 227 615 227 568 227 c 256,0,1
568 455 m 256,16,17
 521 455 521 455 488 488 c 256,18,19
 455 521 455 521 455 568 c 0,20,21
 455 616 455 616 488 649 c 256,22,23
 521 682 521 682 568 682 c 0,24,25
 616 682 616 682 649 649 c 0,26,27
 682 615 682 615 682 568 c 256,28,29
 682 521 682 521 649 488 c 0,30,31
 615 455 615 455 568 455 c 256,16,17
113 682 m 256,32,33
 66 682 66 682 33 716 c 0,34,35
 0 749 0 749 0 796 c 256,36,37
 0 843 0 843 33 876 c 0,38,39
 66 910 66 910 113 910 c 256,40,41
 160 910 160 910 194 876 c 0,42,43
 227 843 227 843 227 796 c 256,44,45
 227 749 227 749 194 716 c 0,46,47
 160 682 160 682 113 682 c 256,32,33
341 682 m 256,48,49
 294 682 294 682 260 716 c 0,50,51
 227 749 227 749 227 796 c 256,52,53
 227 843 227 843 260 876 c 0,54,55
 294 910 294 910 341 910 c 256,56,57
 388 910 388 910 421 876 c 0,58,59
 455 843 455 843 455 796 c 256,60,61
 455 749 455 749 421 716 c 0,62,63
 388 682 388 682 341 682 c 256,48,49
568 682 m 256,64,65
 521 682 521 682 488 716 c 0,66,67
 455 749 455 749 455 796 c 256,68,69
 455 843 455 843 488 876 c 0,70,71
 521 910 521 910 568 910 c 0,72,73
 616 910 616 910 649 876 c 0,74,75
 682 843 682 843 682 796 c 256,76,77
 682 749 682 749 649 716 c 0,78,79
 615 682 615 682 568 682 c 256,64,65
796 682 m 256,80,81
 749 682 749 682 716 716 c 0,82,83
 682 749 682 749 682 796 c 256,84,85
 682 843 682 843 716 876 c 0,86,87
 749 910 749 910 796 910 c 256,88,89
 843 910 843 910 876 876 c 0,90,91
 910 843 910 843 910 796 c 256,92,93
 910 749 910 749 876 716 c 0,94,95
 843 682 843 682 796 682 c 256,80,81
1024 682 m 0,96,97
 976 682 976 682 943 716 c 0,98,99
 910 749 910 749 910 796 c 256,100,101
 910 843 910 843 943 876 c 0,102,103
 976 910 976 910 1024 910 c 0,104,105
 1071 910 1071 910 1104 876 c 0,106,107
 1137 843 1137 843 1137 796 c 256,108,109
 1137 749 1137 749 1104 716 c 0,110,111
 1071 682 1071 682 1024 682 c 0,96,97
568 910 m 256,112,113
 521 910 521 910 488 943 c 256,114,115
 455 976 455 976 455 1024 c 0,116,117
 455 1071 455 1071 488 1104 c 256,118,119
 521 1137 521 1137 568 1137 c 0,120,121
 616 1137 616 1137 649 1104 c 256,122,123
 682 1071 682 1071 682 1024 c 0,124,125
 682 976 682 976 649 943 c 0,126,127
 615 910 615 910 568 910 c 256,112,113
568 1137 m 256,128,129
 521 1137 521 1137 488 1171 c 0,130,131
 455 1204 455 1204 455 1251 c 256,132,133
 455 1298 455 1298 488 1331 c 0,134,135
 521 1365 521 1365 568 1365 c 0,136,137
 616 1365 616 1365 649 1331 c 0,138,139
 682 1298 682 1298 682 1251 c 256,140,141
 682 1204 682 1204 649 1171 c 0,142,143
 615 1137 615 1137 568 1137 c 256,128,129
EndSplineSet
EndChar

StartChar: comma
Encoding: 44 44 13
Width: 682
GlyphClass: 1
Flags: W
LayerCount: 2
Fore
SplineSet
113 -227 m 256,0,1
 66 -227 66 -227 33 -194 c 0,2,3
 0 -160 0 -160 0 -113 c 256,4,5
 0 -66 0 -66 33 -33 c 256,6,7
 66 0 66 0 113 0 c 256,8,9
 160 0 160 0 194 -33 c 0,10,11
 227 -66 227 -66 227 -113 c 256,12,13
 227 -160 227 -160 194 -194 c 0,14,15
 160 -227 160 -227 113 -227 c 256,0,1
341 0 m 256,16,17
 294 0 294 0 260 33 c 0,18,19
 227 66 227 66 227 113 c 256,20,21
 227 160 227 160 260 194 c 0,22,23
 294 227 294 227 341 227 c 256,24,25
 388 227 388 227 421 194 c 0,26,27
 455 160 455 160 455 113 c 256,28,29
 455 66 455 66 421 33 c 0,30,31
 388 0 388 0 341 0 c 256,16,17
EndSplineSet
EndChar

StartChar: hyphen
Encoding: 45 45 14
Width: 910
GlyphClass: 1
Flags: W
LayerCount: 2
Fore
SplineSet
113 682 m 256,0,1
 66 682 66 682 33 716 c 0,2,3
 0 749 0 749 0 796 c 256,4,5
 0 843 0 843 33 876 c 0,6,7
 66 910 66 910 113 910 c 256,8,9
 160 910 160 910 194 876 c 0,10,11
 227 843 227 843 227 796 c 256,12,13
 227 749 227 749 194 716 c 0,14,15
 160 682 160 682 113 682 c 256,0,1
341 682 m 256,16,17
 294 682 294 682 260 716 c 0,18,19
 227 749 227 749 227 796 c 256,20,21
 227 843 227 843 260 876 c 0,22,23
 294 910 294 910 341 910 c 256,24,25
 388 910 388 910 421 876 c 0,26,27
 455 843 455 843 455 796 c 256,28,29
 455 749 455 749 421 716 c 0,30,31
 388 682 388 682 341 682 c 256,16,17
568 682 m 256,32,33
 521 682 521 682 488 716 c 0,34,35
 455 749 455 749 455 796 c 256,36,37
 455 843 455 843 488 876 c 0,38,39
 521 910 521 910 568 910 c 0,40,41
 616 910 616 910 649 876 c 0,42,43
 682 843 682 843 682 796 c 256,44,45
 682 749 682 749 649 716 c 0,46,47
 615 682 615 682 568 682 c 256,32,33
EndSplineSet
EndChar

StartChar: period
Encoding: 46 46 15
Width: 682
GlyphClass: 1
Flags: W
LayerCount: 2
Fore
SplineSet
113 0 m 256,0,1
 66 0 66 0 33 33 c 256,2,3
 0 66 0 66 0 113 c 256,4,5
 0 160 0 160 33 194 c 0,6,7
 66 227 66 227 113 227 c 256,8,9
 160 227 160 227 194 194 c 0,10,11
 227 160 227 160 227 113 c 256,12,13
 227 66 227 66 194 33 c 0,14,15
 160 0 160 0 113 0 c 256,0,1
341 0 m 256,16,17
 294 0 294 0 260 33 c 0,18,19
 227 66 227 66 227 113 c 256,20,21
 227 160 227 160 260 194 c 0,22,23
 294 227 294 227 341 227 c 256,24,25
 388 227 388 227 421 194 c 0,26,27
 455 160 455 160 455 113 c 256,28,29
 455 66 455 66 421 33 c 0,30,31
 388 0 388 0 341 0 c 256,16,17
113 227 m 256,32,33
 66 227 66 227 33 260 c 0,34,35
 0 294 0 294 0 341 c 256,36,37
 0 388 0 388 33 421 c 0,38,39
 66 455 66 455 113 455 c 256,40,41
 160 455 160 455 194 421 c 0,42,43
 227 388 227 388 227 341 c 256,44,45
 227 294 227 294 194 260 c 0,46,47
 160 227 160 227 113 227 c 256,32,33
341 227 m 256,48,49
 294 227 294 227 260 260 c 0,50,51
 227 294 227 294 227 341 c 256,52,53
 227 388 227 388 260 421 c 0,54,55
 294 455 294 455 341 455 c 256,56,57
 388 455 388 455 421 421 c 0,58,59
 455 388 455 388 455 341 c 256,60,61
 455 294 455 294 421 260 c 0,62,63
 388 227 388 227 341 227 c 256,48,49
EndSplineSet
EndChar

StartChar: slash
Encoding: 47 47 16
Width: 1365
GlyphClass: 1
Flags: W
LayerCount: 2
Fore
SplineSet
113 0 m 256,0,1
 66 0 66 0 33 33 c 256,2,3
 0 66 0 66 0 113 c 256,4,5
 0 160 0 160 33 194 c 0,6,7
 66 227 66 227 113 227 c 256,8,9
 160 227 160 227 194 194 c 0,10,11
 227 160 227 160 227 113 c 256,12,13
 227 66 227 66 194 33 c 0,14,15
 160 0 160 0 113 0 c 256,0,1
341 341 m 256,16,17
 294 341 294 341 260 374 c 0,18,19
 227 408 227 408 227 455 c 256,20,21
 227 502 227 502 260 535 c 0,22,23
 294 568 294 568 341 568 c 256,24,25
 388 568 388 568 421 535 c 0,26,27
 455 502 455 502 455 455 c 0,28,29
 455 407 455 407 421 374 c 0,30,31
 388 341 388 341 341 341 c 256,16,17
568 682 m 256,32,33
 521 682 521 682 488 716 c 0,34,35
 455 749 455 749 455 796 c 256,36,37
 455 843 455 843 488 876 c 0,38,39
 521 910 521 910 568 910 c 0,40,41
 616 910 616 910 649 876 c 0,42,43
 682 843 682 843 682 796 c 256,44,45
 682 749 682 749 649 716 c 0,46,47
 615 682 615 682 568 682 c 256,32,33
796 1024 m 256,48,49
 749 1024 749 1024 716 1057 c 0,50,51
 682 1090 682 1090 682 1137 c 256,52,53
 682 1184 682 1184 716 1218 c 0,54,55
 749 1251 749 1251 796 1251 c 256,56,57
 843 1251 843 1251 876 1218 c 0,58,59
 910 1184 910 1184 910 1137 c 256,60,61
 910 1090 910 1090 876 1057 c 0,62,63
 843 1024 843 1024 796 1024 c 256,48,49
1024 1365 m 0,64,65
 976 1365 976 1365 943 1398 c 0,66,67
 910 1432 910 1432 910 1479 c 256,68,69
 910 1526 910 1526 943 1559 c 256,70,71
 976 1592 976 1592 1024 1592 c 0,72,73
 1071 1592 1071 1592 1104 1559 c 256,74,75
 1137 1526 1137 1526 1137 1479 c 0,76,77
 1137 1431 1137 1431 1104 1398 c 256,78,79
 1071 1365 1071 1365 1024 1365 c 0,64,65
EndSplineSet
EndChar

StartChar: zero
Encoding: 48 48 17
Width: 1365
GlyphClass: 1
Flags: W
LayerCount: 2
Fore
SplineSet
341 0 m 256,0,1
 294 0 294 0 260 33 c 0,2,3
 227 66 227 66 227 113 c 256,4,5
 227 160 227 160 260 194 c 0,6,7
 294 227 294 227 341 227 c 256,8,9
 388 227 388 227 421 194 c 0,10,11
 455 160 455 160 455 113 c 256,12,13
 455 66 455 66 421 33 c 0,14,15
 388 0 388 0 341 0 c 256,0,1
568 0 m 256,16,17
 521 0 521 0 488 33 c 256,18,19
 455 66 455 66 455 113 c 256,20,21
 455 160 455 160 488 194 c 0,22,23
 521 227 521 227 568 227 c 0,24,25
 616 227 616 227 649 194 c 0,26,27
 682 160 682 160 682 113 c 256,28,29
 682 66 682 66 649 33 c 0,30,31
 615 0 615 0 568 0 c 256,16,17
796 0 m 256,32,33
 749 0 749 0 716 33 c 0,34,35
 682 66 682 66 682 113 c 256,36,37
 682 160 682 160 716 194 c 0,38,39
 749 227 749 227 796 227 c 256,40,41
 843 227 843 227 876 194 c 0,42,43
 910 160 910 160 910 113 c 256,44,45
 910 66 910 66 876 33 c 0,46,47
 843 0 843 0 796 0 c 256,32,33
113 227 m 256,48,49
 66 227 66 227 33 260 c 0,50,51
 0 294 0 294 0 341 c 256,52,53
 0 388 0 388 33 421 c 0,54,55
 66 455 66 455 113 455 c 256,56,57
 160 455 160 455 194 421 c 0,58,59
 227 388 227 388 227 341 c 256,60,61
 227 294 227 294 194 260 c 0,62,63
 160 227 160 227 113 227 c 256,48,49
1024 227 m 0,64,65
 976 227 976 227 943 260 c 0,66,67
 910 294 910 294 910 341 c 256,68,69
 910 388 910 388 943 421 c 0,70,71
 976 455 976 455 1024 455 c 0,72,73
 1071 455 1071 455 1104 421 c 0,74,75
 1137 388 1137 388 1137 341 c 256,76,77
 1137 294 1137 294 1104 260 c 0,78,79
 1071 227 1071 227 1024 227 c 0,64,65
113 455 m 256,80,81
 66 455 66 455 33 488 c 256,82,83
 0 521 0 521 0 568 c 0,84,85
 0 616 0 616 33 649 c 256,86,87
 66 682 66 682 113 682 c 256,88,89
 160 682 160 682 194 649 c 0,90,91
 227 615 227 615 227 568 c 256,92,93
 227 521 227 521 194 488 c 0,94,95
 160 455 160 455 113 455 c 256,80,81
1024 455 m 0,96,97
 976 455 976 455 943 488 c 256,98,99
 910 521 910 521 910 568 c 0,100,101
 910 616 910 616 943 649 c 256,102,103
 976 682 976 682 1024 682 c 0,104,105
 1071 682 1071 682 1104 649 c 0,106,107
 1137 615 1137 615 1137 568 c 256,108,109
 1137 521 1137 521 1104 488 c 256,110,111
 1071 455 1071 455 1024 455 c 0,96,97
113 682 m 256,112,113
 66 682 66 682 33 716 c 0,114,115
 0 749 0 749 0 796 c 256,116,117
 0 843 0 843 33 876 c 0,118,119
 66 910 66 910 113 910 c 256,120,121
 160 910 160 910 194 876 c 0,122,123
 227 843 227 843 227 796 c 256,124,125
 227 749 227 749 194 716 c 0,126,127
 160 682 160 682 113 682 c 256,112,113
1024 682 m 0,128,129
 976 682 976 682 943 716 c 0,130,131
 910 749 910 749 910 796 c 256,132,133
 910 843 910 843 943 876 c 0,134,135
 976 910 976 910 1024 910 c 0,136,137
 1071 910 1071 910 1104 876 c 0,138,139
 1137 843 1137 843 1137 796 c 256,140,141
 1137 749 1137 749 1104 716 c 0,142,143
 1071 682 1071 682 1024 682 c 0,128,129
113 910 m 256,144,145
 66 910 66 910 33 943 c 256,146,147
 0 976 0 976 0 1024 c 0,148,149
 0 1071 0 1071 33 1104 c 256,150,151
 66 1137 66 1137 113 1137 c 256,152,153
 160 1137 160 1137 194 1104 c 0,154,155
 227 1071 227 1071 227 1024 c 0,156,157
 227 976 227 976 194 943 c 0,158,159
 160 910 160 910 113 910 c 256,144,145
1024 910 m 0,160,161
 976 910 976 910 943 943 c 256,162,163
 910 976 910 976 910 1024 c 0,164,165
 910 1071 910 1071 943 1104 c 256,166,167
 976 1137 976 1137 1024 1137 c 0,168,169
 1071 1137 1071 1137 1104 1104 c 256,170,171
 1137 1071 1137 1071 1137 1024 c 0,172,173
 1137 976 1137 976 1104 943 c 256,174,175
 1071 910 1071 910 1024 910 c 0,160,161
113 1137 m 256,176,177
 66 1137 66 1137 33 1171 c 0,178,179
 0 1204 0 1204 0 1251 c 256,180,181
 0 1298 0 1298 33 1331 c 0,182,183
 66 1365 66 1365 113 1365 c 256,184,185
 160 1365 160 1365 194 1331 c 0,186,187
 227 1298 227 1298 227 1251 c 256,188,189
 227 1204 227 1204 194 1171 c 0,190,191
 160 1137 160 1137 113 1137 c 256,176,177
1024 1137 m 0,192,193
 976 1137 976 1137 943 1171 c 0,194,195
 910 1204 910 1204 910 1251 c 256,196,197
 910 1298 910 1298 943 1331 c 0,198,199
 976 1365 976 1365 1024 1365 c 0,200,201
 1071 1365 1071 1365 1104 1331 c 0,202,203
 1137 1298 1137 1298 1137 1251 c 256,204,205
 1137 1204 1137 1204 1104 1171 c 0,206,207
 1071 1137 1071 1137 1024 1137 c 0,192,193
341 1365 m 256,208,209
 294 1365 294 1365 260 1398 c 0,210,211
 227 1432 227 1432 227 1479 c 256,212,213
 227 1526 227 1526 260 1559 c 0,214,215
 294 1592 294 1592 341 1592 c 256,216,217
 388 1592 388 1592 421 1559 c 0,218,219
 455 1526 455 1526 455 1479 c 0,220,221
 455 1431 455 1431 421 1398 c 0,222,223
 388 1365 388 1365 341 1365 c 256,208,209
568 1365 m 256,224,225
 521 1365 521 1365 488 1398 c 0,226,227
 455 1432 455 1432 455 1479 c 256,228,229
 455 1526 455 1526 488 1559 c 256,230,231
 521 1592 521 1592 568 1592 c 0,232,233
 616 1592 616 1592 649 1559 c 256,234,235
 682 1526 682 1526 682 1479 c 0,236,237
 682 1431 682 1431 649 1398 c 0,238,239
 615 1365 615 1365 568 1365 c 256,224,225
796 1365 m 256,240,241
 749 1365 749 1365 716 1398 c 0,242,243
 682 1432 682 1432 682 1479 c 256,244,245
 682 1526 682 1526 716 1559 c 0,246,247
 749 1592 749 1592 796 1592 c 256,248,249
 843 1592 843 1592 876 1559 c 0,250,251
 910 1526 910 1526 910 1479 c 0,252,253
 910 1431 910 1431 876 1398 c 0,254,255
 843 1365 843 1365 796 1365 c 256,240,241
EndSplineSet
EndChar

StartChar: one
Encoding: 49 49 18
Width: 910
GlyphClass: 1
Flags: W
LayerCount: 2
Fore
SplineSet
113 0 m 256,0,1
 66 0 66 0 33 33 c 256,2,3
 0 66 0 66 0 113 c 256,4,5
 0 160 0 160 33 194 c 0,6,7
 66 227 66 227 113 227 c 256,8,9
 160 227 160 227 194 194 c 0,10,11
 227 160 227 160 227 113 c 256,12,13
 227 66 227 66 194 33 c 0,14,15
 160 0 160 0 113 0 c 256,0,1
341 0 m 256,16,17
 294 0 294 0 260 33 c 0,18,19
 227 66 227 66 227 113 c 256,20,21
 227 160 227 160 260 194 c 0,22,23
 294 227 294 227 341 227 c 256,24,25
 388 227 388 227 421 194 c 0,26,27
 455 160 455 160 455 113 c 256,28,29
 455 66 455 66 421 33 c 0,30,31
 388 0 388 0 341 0 c 256,16,17
568 0 m 256,32,33
 521 0 521 0 488 33 c 256,34,35
 455 66 455 66 455 113 c 256,36,37
 455 160 455 160 488 194 c 0,38,39
 521 227 521 227 568 227 c 0,40,41
 616 227 616 227 649 194 c 0,42,43
 682 160 682 160 682 113 c 256,44,45
 682 66 682 66 649 33 c 0,46,47
 615 0 615 0 568 0 c 256,32,33
341 227 m 256,48,49
 294 227 294 227 260 260 c 0,50,51
 227 294 227 294 227 341 c 256,52,53
 227 388 227 388 260 421 c 0,54,55
 294 455 294 455 341 455 c 256,56,57
 388 455 388 455 421 421 c 0,58,59
 455 388 455 388 455 341 c 256,60,61
 455 294 455 294 421 260 c 0,62,63
 388 227 388 227 341 227 c 256,48,49
341 455 m 256,64,65
 294 455 294 455 260 488 c 0,66,67
 227 521 227 521 227 568 c 0,68,69
 227 616 227 616 260 649 c 0,70,71
 294 682 294 682 341 682 c 256,72,73
 388 682 388 682 421 649 c 0,74,75
 455 615 455 615 455 568 c 256,76,77
 455 521 455 521 421 488 c 0,78,79
 388 455 388 455 341 455 c 256,64,65
341 682 m 256,80,81
 294 682 294 682 260 716 c 0,82,83
 227 749 227 749 227 796 c 256,84,85
 227 843 227 843 260 876 c 0,86,87
 294 910 294 910 341 910 c 256,88,89
 388 910 388 910 421 876 c 0,90,91
 455 843 455 843 455 796 c 256,92,93
 455 749 455 749 421 716 c 0,94,95
 388 682 388 682 341 682 c 256,80,81
341 910 m 256,96,97
 294 910 294 910 260 943 c 0,98,99
 227 976 227 976 227 1024 c 0,100,101
 227 1071 227 1071 260 1104 c 0,102,103
 294 1137 294 1137 341 1137 c 256,104,105
 388 1137 388 1137 421 1104 c 0,106,107
 455 1071 455 1071 455 1024 c 0,108,109
 455 976 455 976 421 943 c 0,110,111
 388 910 388 910 341 910 c 256,96,97
113 1137 m 256,112,113
 66 1137 66 1137 33 1171 c 0,114,115
 0 1204 0 1204 0 1251 c 256,116,117
 0 1298 0 1298 33 1331 c 0,118,119
 66 1365 66 1365 113 1365 c 256,120,121
 160 1365 160 1365 194 1331 c 0,122,123
 227 1298 227 1298 227 1251 c 256,124,125
 227 1204 227 1204 194 1171 c 0,126,127
 160 1137 160 1137 113 1137 c 256,112,113
341 1137 m 256,128,129
 294 1137 294 1137 260 1171 c 0,130,131
 227 1204 227 1204 227 1251 c 256,132,133
 227 1298 227 1298 260 1331 c 0,134,135
 294 1365 294 1365 341 1365 c 256,136,137
 388 1365 388 1365 421 1331 c 0,138,139
 455 1298 455 1298 455 1251 c 256,140,141
 455 1204 455 1204 421 1171 c 0,142,143
 388 1137 388 1137 341 1137 c 256,128,129
341 1365 m 256,144,145
 294 1365 294 1365 260 1398 c 0,146,147
 227 1432 227 1432 227 1479 c 256,148,149
 227 1526 227 1526 260 1559 c 0,150,151
 294 1592 294 1592 341 1592 c 256,152,153
 388 1592 388 1592 421 1559 c 0,154,155
 455 1526 455 1526 455 1479 c 0,156,157
 455 1431 455 1431 421 1398 c 0,158,159
 388 1365 388 1365 341 1365 c 256,144,145
EndSplineSet
EndChar

StartChar: two
Encoding: 50 50 19
Width: 1365
GlyphClass: 1
Flags: W
LayerCount: 2
Fore
SplineSet
113 0 m 256,0,1
 66 0 66 0 33 33 c 256,2,3
 0 66 0 66 0 113 c 256,4,5
 0 160 0 160 33 194 c 0,6,7
 66 227 66 227 113 227 c 256,8,9
 160 227 160 227 194 194 c 0,10,11
 227 160 227 160 227 113 c 256,12,13
 227 66 227 66 194 33 c 0,14,15
 160 0 160 0 113 0 c 256,0,1
341 0 m 256,16,17
 294 0 294 0 260 33 c 0,18,19
 227 66 227 66 227 113 c 256,20,21
 227 160 227 160 260 194 c 0,22,23
 294 227 294 227 341 227 c 256,24,25
 388 227 388 227 421 194 c 0,26,27
 455 160 455 160 455 113 c 256,28,29
 455 66 455 66 421 33 c 0,30,31
 388 0 388 0 341 0 c 256,16,17
568 0 m 256,32,33
 521 0 521 0 488 33 c 256,34,35
 455 66 455 66 455 113 c 256,36,37
 455 160 455 160 488 194 c 0,38,39
 521 227 521 227 568 227 c 0,40,41
 616 227 616 227 649 194 c 0,42,43
 682 160 682 160 682 113 c 256,44,45
 682 66 682 66 649 33 c 0,46,47
 615 0 615 0 568 0 c 256,32,33
796 0 m 256,48,49
 749 0 749 0 716 33 c 0,50,51
 682 66 682 66 682 113 c 256,52,53
 682 160 682 160 716 194 c 0,54,55
 749 227 749 227 796 227 c 256,56,57
 843 227 843 227 876 194 c 0,58,59
 910 160 910 160 910 113 c 256,60,61
 910 66 910 66 876 33 c 0,62,63
 843 0 843 0 796 0 c 256,48,49
1024 0 m 0,64,65
 976 0 976 0 943 33 c 256,66,67
 910 66 910 66 910 113 c 256,68,69
 910 160 910 160 943 194 c 0,70,71
 976 227 976 227 1024 227 c 0,72,73
 1071 227 1071 227 1104 194 c 0,74,75
 1137 160 1137 160 1137 113 c 256,76,77
 1137 66 1137 66 1104 33 c 256,78,79
 1071 0 1071 0 1024 0 c 0,64,65
341 227 m 256,80,81
 294 227 294 227 260 260 c 0,82,83
 227 294 227 294 227 341 c 256,84,85
 227 388 227 388 260 421 c 0,86,87
 294 455 294 455 341 455 c 256,88,89
 388 455 388 455 421 421 c 0,90,91
 455 388 455 388 455 341 c 256,92,93
 455 294 455 294 421 260 c 0,94,95
 388 227 388 227 341 227 c 256,80,81
568 455 m 256,96,97
 521 455 521 455 488 488 c 256,98,99
 455 521 455 521 455 568 c 0,100,101
 455 616 455 616 488 649 c 256,102,103
 521 682 521 682 568 682 c 0,104,105
 616 682 616 682 649 649 c 0,106,107
 682 615 682 615 682 568 c 256,108,109
 682 521 682 521 649 488 c 0,110,111
 615 455 615 455 568 455 c 256,96,97
796 682 m 256,112,113
 749 682 749 682 716 716 c 0,114,115
 682 749 682 749 682 796 c 256,116,117
 682 843 682 843 716 876 c 0,118,119
 749 910 749 910 796 910 c 256,120,121
 843 910 843 910 876 876 c 0,122,123
 910 843 910 843 910 796 c 256,124,125
 910 749 910 749 876 716 c 0,126,127
 843 682 843 682 796 682 c 256,112,113
1024 910 m 0,128,129
 976 910 976 910 943 943 c 256,130,131
 910 976 910 976 910 1024 c 0,132,133
 910 1071 910 1071 943 1104 c 256,134,135
 976 1137 976 1137 1024 1137 c 0,136,137
 1071 1137 1071 1137 1104 1104 c 256,138,139
 1137 1071 1137 1071 1137 1024 c 0,140,141
 1137 976 1137 976 1104 943 c 256,142,143
 1071 910 1071 910 1024 910 c 0,128,129
113 1137 m 256,144,145
 66 1137 66 1137 33 1171 c 0,146,147
 0 1204 0 1204 0 1251 c 256,148,149
 0 1298 0 1298 33 1331 c 0,150,151
 66 1365 66 1365 113 1365 c 256,152,153
 160 1365 160 1365 194 1331 c 0,154,155
 227 1298 227 1298 227 1251 c 256,156,157
 227 1204 227 1204 194 1171 c 0,158,159
 160 1137 160 1137 113 1137 c 256,144,145
1024 1137 m 0,160,161
 976 1137 976 1137 943 1171 c 0,162,163
 910 1204 910 1204 910 1251 c 256,164,165
 910 1298 910 1298 943 1331 c 0,166,167
 976 1365 976 1365 1024 1365 c 0,168,169
 1071 1365 1071 1365 1104 1331 c 0,170,171
 1137 1298 1137 1298 1137 1251 c 256,172,173
 1137 1204 1137 1204 1104 1171 c 0,174,175
 1071 1137 1071 1137 1024 1137 c 0,160,161
341 1365 m 256,176,177
 294 1365 294 1365 260 1398 c 0,178,179
 227 1432 227 1432 227 1479 c 256,180,181
 227 1526 227 1526 260 1559 c 0,182,183
 294 1592 294 1592 341 1592 c 256,184,185
 388 1592 388 1592 421 1559 c 0,186,187
 455 1526 455 1526 455 1479 c 0,188,189
 455 1431 455 1431 421 1398 c 0,190,191
 388 1365 388 1365 341 1365 c 256,176,177
568 1365 m 256,192,193
 521 1365 521 1365 488 1398 c 0,194,195
 455 1432 455 1432 455 1479 c 256,196,197
 455 1526 455 1526 488 1559 c 256,198,199
 521 1592 521 1592 568 1592 c 0,200,201
 616 1592 616 1592 649 1559 c 256,202,203
 682 1526 682 1526 682 1479 c 0,204,205
 682 1431 682 1431 649 1398 c 0,206,207
 615 1365 615 1365 568 1365 c 256,192,193
796 1365 m 256,208,209
 749 1365 749 1365 716 1398 c 0,210,211
 682 1432 682 1432 682 1479 c 256,212,213
 682 1526 682 1526 716 1559 c 0,214,215
 749 1592 749 1592 796 1592 c 256,216,217
 843 1592 843 1592 876 1559 c 0,218,219
 910 1526 910 1526 910 1479 c 0,220,221
 910 1431 910 1431 876 1398 c 0,222,223
 843 1365 843 1365 796 1365 c 256,208,209
EndSplineSet
EndChar

StartChar: three
Encoding: 51 51 20
Width: 1365
GlyphClass: 1
Flags: W
LayerCount: 2
Fore
SplineSet
341 0 m 256,0,1
 294 0 294 0 260 33 c 0,2,3
 227 66 227 66 227 113 c 256,4,5
 227 160 227 160 260 194 c 0,6,7
 294 227 294 227 341 227 c 256,8,9
 388 227 388 227 421 194 c 0,10,11
 455 160 455 160 455 113 c 256,12,13
 455 66 455 66 421 33 c 0,14,15
 388 0 388 0 341 0 c 256,0,1
568 0 m 256,16,17
 521 0 521 0 488 33 c 256,18,19
 455 66 455 66 455 113 c 256,20,21
 455 160 455 160 488 194 c 0,22,23
 521 227 521 227 568 227 c 0,24,25
 616 227 616 227 649 194 c 0,26,27
 682 160 682 160 682 113 c 256,28,29
 682 66 682 66 649 33 c 0,30,31
 615 0 615 0 568 0 c 256,16,17
796 0 m 256,32,33
 749 0 749 0 716 33 c 0,34,35
 682 66 682 66 682 113 c 256,36,37
 682 160 682 160 716 194 c 0,38,39
 749 227 749 227 796 227 c 256,40,41
 843 227 843 227 876 194 c 0,42,43
 910 160 910 160 910 113 c 256,44,45
 910 66 910 66 876 33 c 0,46,47
 843 0 843 0 796 0 c 256,32,33
113 227 m 256,48,49
 66 227 66 227 33 260 c 0,50,51
 0 294 0 294 0 341 c 256,52,53
 0 388 0 388 33 421 c 0,54,55
 66 455 66 455 113 455 c 256,56,57
 160 455 160 455 194 421 c 0,58,59
 227 388 227 388 227 341 c 256,60,61
 227 294 227 294 194 260 c 0,62,63
 160 227 160 227 113 227 c 256,48,49
1024 227 m 0,64,65
 976 227 976 227 943 260 c 0,66,67
 910 294 910 294 910 341 c 256,68,69
 910 388 910 388 943 421 c 0,70,71
 976 455 976 455 1024 455 c 0,72,73
 1071 455 1071 455 1104 421 c 0,74,75
 1137 388 1137 388 1137 341 c 256,76,77
 1137 294 1137 294 1104 260 c 0,78,79
 1071 227 1071 227 1024 227 c 0,64,65
1024 455 m 0,80,81
 976 455 976 455 943 488 c 256,82,83
 910 521 910 521 910 568 c 0,84,85
 910 616 910 616 943 649 c 256,86,87
 976 682 976 682 1024 682 c 0,88,89
 1071 682 1071 682 1104 649 c 0,90,91
 1137 615 1137 615 1137 568 c 256,92,93
 1137 521 1137 521 1104 488 c 256,94,95
 1071 455 1071 455 1024 455 c 0,80,81
568 682 m 256,96,97
 521 682 521 682 488 716 c 0,98,99
 455 749 455 749 455 796 c 256,100,101
 455 843 455 843 488 876 c 0,102,103
 521 910 521 910 568 910 c 0,104,105
 616 910 616 910 649 876 c 0,106,107
 682 843 682 843 682 796 c 256,108,109
 682 749 682 749 649 716 c 0,110,111
 615 682 615 682 568 682 c 256,96,97
796 682 m 256,112,113
 749 682 749 682 716 716 c 0,114,115
 682 749 682 749 682 796 c 256,116,117
 682 843 682 843 716 876 c 0,118,119
 749 910 749 910 796 910 c 256,120,121
 843 910 843 910 876 876 c 0,122,123
 910 843 910 843 910 796 c 256,124,125
 910 749 910 749 876 716 c 0,126,127
 843 682 843 682 796 682 c 256,112,113
1024 910 m 0,128,129
 976 910 976 910 943 943 c 256,130,131
 910 976 910 976 910 1024 c 0,132,133
 910 1071 910 1071 943 1104 c 256,134,135
 976 1137 976 1137 1024 1137 c 0,136,137
 1071 1137 1071 1137 1104 1104 c 256,138,139
 1137 1071 1137 1071 1137 1024 c 0,140,141
 1137 976 1137 976 1104 943 c 256,142,143
 1071 910 1071 910 1024 910 c 0,128,129
113 1137 m 256,144,145
 66 1137 66 1137 33 1171 c 0,146,147
 0 1204 0 1204 0 1251 c 256,148,149
 0 1298 0 1298 33 1331 c 0,150,151
 66 1365 66 1365 113 1365 c 256,152,153
 160 1365 160 1365 194 1331 c 0,154,155
 227 1298 227 1298 227 1251 c 256,156,157
 227 1204 227 1204 194 1171 c 0,158,159
 160 1137 160 1137 113 1137 c 256,144,145
1024 1137 m 0,160,161
 976 1137 976 1137 943 1171 c 0,162,163
 910 1204 910 1204 910 1251 c 256,164,165
 910 1298 910 1298 943 1331 c 0,166,167
 976 1365 976 1365 1024 1365 c 0,168,169
 1071 1365 1071 1365 1104 1331 c 0,170,171
 1137 1298 1137 1298 1137 1251 c 256,172,173
 1137 1204 1137 1204 1104 1171 c 0,174,175
 1071 1137 1071 1137 1024 1137 c 0,160,161
341 1365 m 256,176,177
 294 1365 294 1365 260 1398 c 0,178,179
 227 1432 227 1432 227 1479 c 256,180,181
 227 1526 227 1526 260 1559 c 0,182,183
 294 1592 294 1592 341 1592 c 256,184,185
 388 1592 388 1592 421 1559 c 0,186,187
 455 1526 455 1526 455 1479 c 0,188,189
 455 1431 455 1431 421 1398 c 0,190,191
 388 1365 388 1365 341 1365 c 256,176,177
568 1365 m 256,192,193
 521 1365 521 1365 488 1398 c 0,194,195
 455 1432 455 1432 455 1479 c 256,196,197
 455 1526 455 1526 488 1559 c 256,198,199
 521 1592 521 1592 568 1592 c 0,200,201
 616 1592 616 1592 649 1559 c 256,202,203
 682 1526 682 1526 682 1479 c 0,204,205
 682 1431 682 1431 649 1398 c 0,206,207
 615 1365 615 1365 568 1365 c 256,192,193
796 1365 m 256,208,209
 749 1365 749 1365 716 1398 c 0,210,211
 682 1432 682 1432 682 1479 c 256,212,213
 682 1526 682 1526 716 1559 c 0,214,215
 749 1592 749 1592 796 1592 c 256,216,217
 843 1592 843 1592 876 1559 c 0,218,219
 910 1526 910 1526 910 1479 c 0,220,221
 910 1431 910 1431 876 1398 c 0,222,223
 843 1365 843 1365 796 1365 c 256,208,209
EndSplineSet
EndChar

StartChar: four
Encoding: 52 52 21
Width: 1365
GlyphClass: 1
Flags: W
LayerCount: 2
Fore
SplineSet
796 0 m 256,0,1
 749 0 749 0 716 33 c 0,2,3
 682 66 682 66 682 113 c 256,4,5
 682 160 682 160 716 194 c 0,6,7
 749 227 749 227 796 227 c 256,8,9
 843 227 843 227 876 194 c 0,10,11
 910 160 910 160 910 113 c 256,12,13
 910 66 910 66 876 33 c 0,14,15
 843 0 843 0 796 0 c 256,0,1
796 227 m 256,16,17
 749 227 749 227 716 260 c 0,18,19
 682 294 682 294 682 341 c 256,20,21
 682 388 682 388 716 421 c 0,22,23
 749 455 749 455 796 455 c 256,24,25
 843 455 843 455 876 421 c 0,26,27
 910 388 910 388 910 341 c 256,28,29
 910 294 910 294 876 260 c 0,30,31
 843 227 843 227 796 227 c 256,16,17
113 455 m 256,32,33
 66 455 66 455 33 488 c 256,34,35
 0 521 0 521 0 568 c 0,36,37
 0 616 0 616 33 649 c 256,38,39
 66 682 66 682 113 682 c 256,40,41
 160 682 160 682 194 649 c 0,42,43
 227 615 227 615 227 568 c 256,44,45
 227 521 227 521 194 488 c 0,46,47
 160 455 160 455 113 455 c 256,32,33
341 455 m 256,48,49
 294 455 294 455 260 488 c 0,50,51
 227 521 227 521 227 568 c 0,52,53
 227 616 227 616 260 649 c 0,54,55
 294 682 294 682 341 682 c 256,56,57
 388 682 388 682 421 649 c 0,58,59
 455 615 455 615 455 568 c 256,60,61
 455 521 455 521 421 488 c 0,62,63
 388 455 388 455 341 455 c 256,48,49
568 455 m 256,64,65
 521 455 521 455 488 488 c 256,66,67
 455 521 455 521 455 568 c 0,68,69
 455 616 455 616 488 649 c 256,70,71
 521 682 521 682 568 682 c 0,72,73
 616 682 616 682 649 649 c 0,74,75
 682 615 682 615 682 568 c 256,76,77
 682 521 682 521 649 488 c 0,78,79
 615 455 615 455 568 455 c 256,64,65
796 455 m 256,80,81
 749 455 749 455 716 488 c 0,82,83
 682 521 682 521 682 568 c 0,84,85
 682 616 682 616 716 649 c 0,86,87
 749 682 749 682 796 682 c 256,88,89
 843 682 843 682 876 649 c 0,90,91
 910 615 910 615 910 568 c 256,92,93
 910 521 910 521 876 488 c 0,94,95
 843 455 843 455 796 455 c 256,80,81
1024 455 m 0,96,97
 976 455 976 455 943 488 c 256,98,99
 910 521 910 521 910 568 c 0,100,101
 910 616 910 616 943 649 c 256,102,103
 976 682 976 682 1024 682 c 0,104,105
 1071 682 1071 682 1104 649 c 0,106,107
 1137 615 1137 615 1137 568 c 256,108,109
 1137 521 1137 521 1104 488 c 256,110,111
 1071 455 1071 455 1024 455 c 0,96,97
113 682 m 256,112,113
 66 682 66 682 33 716 c 0,114,115
 0 749 0 749 0 796 c 256,116,117
 0 843 0 843 33 876 c 0,118,119
 66 910 66 910 113 910 c 256,120,121
 160 910 160 910 194 876 c 0,122,123
 227 843 227 843 227 796 c 256,124,125
 227 749 227 749 194 716 c 0,126,127
 160 682 160 682 113 682 c 256,112,113
796 682 m 256,128,129
 749 682 749 682 716 716 c 0,130,131
 682 749 682 749 682 796 c 256,132,133
 682 843 682 843 716 876 c 0,134,135
 749 910 749 910 796 910 c 256,136,137
 843 910 843 910 876 876 c 0,138,139
 910 843 910 843 910 796 c 256,140,141
 910 749 910 749 876 716 c 0,142,143
 843 682 843 682 796 682 c 256,128,129
341 910 m 256,144,145
 294 910 294 910 260 943 c 0,146,147
 227 976 227 976 227 1024 c 0,148,149
 227 1071 227 1071 260 1104 c 0,150,151
 294 1137 294 1137 341 1137 c 256,152,153
 388 1137 388 1137 421 1104 c 0,154,155
 455 1071 455 1071 455 1024 c 0,156,157
 455 976 455 976 421 943 c 0,158,159
 388 910 388 910 341 910 c 256,144,145
796 910 m 256,160,161
 749 910 749 910 716 943 c 0,162,163
 682 976 682 976 682 1024 c 0,164,165
 682 1071 682 1071 716 1104 c 0,166,167
 749 1137 749 1137 796 1137 c 256,168,169
 843 1137 843 1137 876 1104 c 0,170,171
 910 1071 910 1071 910 1024 c 0,172,173
 910 976 910 976 876 943 c 0,174,175
 843 910 843 910 796 910 c 256,160,161
568 1137 m 256,176,177
 521 1137 521 1137 488 1171 c 0,178,179
 455 1204 455 1204 455 1251 c 256,180,181
 455 1298 455 1298 488 1331 c 0,182,183
 521 1365 521 1365 568 1365 c 0,184,185
 616 1365 616 1365 649 1331 c 0,186,187
 682 1298 682 1298 682 1251 c 256,188,189
 682 1204 682 1204 649 1171 c 0,190,191
 615 1137 615 1137 568 1137 c 256,176,177
796 1137 m 256,192,193
 749 1137 749 1137 716 1171 c 0,194,195
 682 1204 682 1204 682 1251 c 256,196,197
 682 1298 682 1298 716 1331 c 0,198,199
 749 1365 749 1365 796 1365 c 256,200,201
 843 1365 843 1365 876 1331 c 0,202,203
 910 1298 910 1298 910 1251 c 256,204,205
 910 1204 910 1204 876 1171 c 0,206,207
 843 1137 843 1137 796 1137 c 256,192,193
796 1365 m 256,208,209
 749 1365 749 1365 716 1398 c 0,210,211
 682 1432 682 1432 682 1479 c 256,212,213
 682 1526 682 1526 716 1559 c 0,214,215
 749 1592 749 1592 796 1592 c 256,216,217
 843 1592 843 1592 876 1559 c 0,218,219
 910 1526 910 1526 910 1479 c 0,220,221
 910 1431 910 1431 876 1398 c 0,222,223
 843 1365 843 1365 796 1365 c 256,208,209
EndSplineSet
EndChar

StartChar: five
Encoding: 53 53 22
Width: 1365
GlyphClass: 1
Flags: W
LayerCount: 2
Fore
SplineSet
341 0 m 256,0,1
 294 0 294 0 260 33 c 0,2,3
 227 66 227 66 227 113 c 256,4,5
 227 160 227 160 260 194 c 0,6,7
 294 227 294 227 341 227 c 256,8,9
 388 227 388 227 421 194 c 0,10,11
 455 160 455 160 455 113 c 256,12,13
 455 66 455 66 421 33 c 0,14,15
 388 0 388 0 341 0 c 256,0,1
568 0 m 256,16,17
 521 0 521 0 488 33 c 256,18,19
 455 66 455 66 455 113 c 256,20,21
 455 160 455 160 488 194 c 0,22,23
 521 227 521 227 568 227 c 0,24,25
 616 227 616 227 649 194 c 0,26,27
 682 160 682 160 682 113 c 256,28,29
 682 66 682 66 649 33 c 0,30,31
 615 0 615 0 568 0 c 256,16,17
796 0 m 256,32,33
 749 0 749 0 716 33 c 0,34,35
 682 66 682 66 682 113 c 256,36,37
 682 160 682 160 716 194 c 0,38,39
 749 227 749 227 796 227 c 256,40,41
 843 227 843 227 876 194 c 0,42,43
 910 160 910 160 910 113 c 256,44,45
 910 66 910 66 876 33 c 0,46,47
 843 0 843 0 796 0 c 256,32,33
113 227 m 256,48,49
 66 227 66 227 33 260 c 0,50,51
 0 294 0 294 0 341 c 256,52,53
 0 388 0 388 33 421 c 0,54,55
 66 455 66 455 113 455 c 256,56,57
 160 455 160 455 194 421 c 0,58,59
 227 388 227 388 227 341 c 256,60,61
 227 294 227 294 194 260 c 0,62,63
 160 227 160 227 113 227 c 256,48,49
1024 227 m 0,64,65
 976 227 976 227 943 260 c 0,66,67
 910 294 910 294 910 341 c 256,68,69
 910 388 910 388 943 421 c 0,70,71
 976 455 976 455 1024 455 c 0,72,73
 1071 455 1071 455 1104 421 c 0,74,75
 1137 388 1137 388 1137 341 c 256,76,77
 1137 294 1137 294 1104 260 c 0,78,79
 1071 227 1071 227 1024 227 c 0,64,65
1024 455 m 0,80,81
 976 455 976 455 943 488 c 256,82,83
 910 521 910 521 910 568 c 0,84,85
 910 616 910 616 943 649 c 256,86,87
 976 682 976 682 1024 682 c 0,88,89
 1071 682 1071 682 1104 649 c 0,90,91
 1137 615 1137 615 1137 568 c 256,92,93
 1137 521 1137 521 1104 488 c 256,94,95
 1071 455 1071 455 1024 455 c 0,80,81
113 682 m 256,96,97
 66 682 66 682 33 716 c 0,98,99
 0 749 0 749 0 796 c 256,100,101
 0 843 0 843 33 876 c 0,102,103
 66 910 66 910 113 910 c 256,104,105
 160 910 160 910 194 876 c 0,106,107
 227 843 227 843 227 796 c 256,108,109
 227 749 227 749 194 716 c 0,110,111
 160 682 160 682 113 682 c 256,96,97
341 682 m 256,112,113
 294 682 294 682 260 716 c 0,114,115
 227 749 227 749 227 796 c 256,116,117
 227 843 227 843 260 876 c 0,118,119
 294 910 294 910 341 910 c 256,120,121
 388 910 388 910 421 876 c 0,122,123
 455 843 455 843 455 796 c 256,124,125
 455 749 455 749 421 716 c 0,126,127
 388 682 388 682 341 682 c 256,112,113
568 682 m 256,128,129
 521 682 521 682 488 716 c 0,130,131
 455 749 455 749 455 796 c 256,132,133
 455 843 455 843 488 876 c 0,134,135
 521 910 521 910 568 910 c 0,136,137
 616 910 616 910 649 876 c 0,138,139
 682 843 682 843 682 796 c 256,140,141
 682 749 682 749 649 716 c 0,142,143
 615 682 615 682 568 682 c 256,128,129
796 682 m 256,144,145
 749 682 749 682 716 716 c 0,146,147
 682 749 682 749 682 796 c 256,148,149
 682 843 682 843 716 876 c 0,150,151
 749 910 749 910 796 910 c 256,152,153
 843 910 843 910 876 876 c 0,154,155
 910 843 910 843 910 796 c 256,156,157
 910 749 910 749 876 716 c 0,158,159
 843 682 843 682 796 682 c 256,144,145
113 910 m 256,160,161
 66 910 66 910 33 943 c 256,162,163
 0 976 0 976 0 1024 c 0,164,165
 0 1071 0 1071 33 1104 c 256,166,167
 66 1137 66 1137 113 1137 c 256,168,169
 160 1137 160 1137 194 1104 c 0,170,171
 227 1071 227 1071 227 1024 c 0,172,173
 227 976 227 976 194 943 c 0,174,175
 160 910 160 910 113 910 c 256,160,161
113 1137 m 256,176,177
 66 1137 66 1137 33 1171 c 0,178,179
 0 1204 0 1204 0 1251 c 256,180,181
 0 1298 0 1298 33 1331 c 0,182,183
 66 1365 66 1365 113 1365 c 256,184,185
 160 1365 160 1365 194 1331 c 0,186,187
 227 1298 227 1298 227 1251 c 256,188,189
 227 1204 227 1204 194 1171 c 0,190,191
 160 1137 160 1137 113 1137 c 256,176,177
113 1365 m 256,192,193
 66 1365 66 1365 33 1398 c 0,194,195
 0 1432 0 1432 0 1479 c 256,196,197
 0 1526 0 1526 33 1559 c 256,198,199
 66 1592 66 1592 113 1592 c 256,200,201
 160 1592 160 1592 194 1559 c 0,202,203
 227 1526 227 1526 227 1479 c 0,204,205
 227 1431 227 1431 194 1398 c 0,206,207
 160 1365 160 1365 113 1365 c 256,192,193
341 1365 m 256,208,209
 294 1365 294 1365 260 1398 c 0,210,211
 227 1432 227 1432 227 1479 c 256,212,213
 227 1526 227 1526 260 1559 c 0,214,215
 294 1592 294 1592 341 1592 c 256,216,217
 388 1592 388 1592 421 1559 c 0,218,219
 455 1526 455 1526 455 1479 c 0,220,221
 455 1431 455 1431 421 1398 c 0,222,223
 388 1365 388 1365 341 1365 c 256,208,209
568 1365 m 256,224,225
 521 1365 521 1365 488 1398 c 0,226,227
 455 1432 455 1432 455 1479 c 256,228,229
 455 1526 455 1526 488 1559 c 256,230,231
 521 1592 521 1592 568 1592 c 0,232,233
 616 1592 616 1592 649 1559 c 256,234,235
 682 1526 682 1526 682 1479 c 0,236,237
 682 1431 682 1431 649 1398 c 0,238,239
 615 1365 615 1365 568 1365 c 256,224,225
796 1365 m 256,240,241
 749 1365 749 1365 716 1398 c 0,242,243
 682 1432 682 1432 682 1479 c 256,244,245
 682 1526 682 1526 716 1559 c 0,246,247
 749 1592 749 1592 796 1592 c 256,248,249
 843 1592 843 1592 876 1559 c 0,250,251
 910 1526 910 1526 910 1479 c 0,252,253
 910 1431 910 1431 876 1398 c 0,254,255
 843 1365 843 1365 796 1365 c 256,240,241
1024 1365 m 0,256,257
 976 1365 976 1365 943 1398 c 0,258,259
 910 1432 910 1432 910 1479 c 256,260,261
 910 1526 910 1526 943 1559 c 256,262,263
 976 1592 976 1592 1024 1592 c 0,264,265
 1071 1592 1071 1592 1104 1559 c 256,266,267
 1137 1526 1137 1526 1137 1479 c 0,268,269
 1137 1431 1137 1431 1104 1398 c 256,270,271
 1071 1365 1071 1365 1024 1365 c 0,256,257
EndSplineSet
EndChar

StartChar: six
Encoding: 54 54 23
Width: 1365
GlyphClass: 1
Flags: W
LayerCount: 2
Fore
SplineSet
341 0 m 256,0,1
 294 0 294 0 260 33 c 0,2,3
 227 66 227 66 227 113 c 256,4,5
 227 160 227 160 260 194 c 0,6,7
 294 227 294 227 341 227 c 256,8,9
 388 227 388 227 421 194 c 0,10,11
 455 160 455 160 455 113 c 256,12,13
 455 66 455 66 421 33 c 0,14,15
 388 0 388 0 341 0 c 256,0,1
568 0 m 256,16,17
 521 0 521 0 488 33 c 256,18,19
 455 66 455 66 455 113 c 256,20,21
 455 160 455 160 488 194 c 0,22,23
 521 227 521 227 568 227 c 0,24,25
 616 227 616 227 649 194 c 0,26,27
 682 160 682 160 682 113 c 256,28,29
 682 66 682 66 649 33 c 0,30,31
 615 0 615 0 568 0 c 256,16,17
796 0 m 256,32,33
 749 0 749 0 716 33 c 0,34,35
 682 66 682 66 682 113 c 256,36,37
 682 160 682 160 716 194 c 0,38,39
 749 227 749 227 796 227 c 256,40,41
 843 227 843 227 876 194 c 0,42,43
 910 160 910 160 910 113 c 256,44,45
 910 66 910 66 876 33 c 0,46,47
 843 0 843 0 796 0 c 256,32,33
113 227 m 256,48,49
 66 227 66 227 33 260 c 0,50,51
 0 294 0 294 0 341 c 256,52,53
 0 388 0 388 33 421 c 0,54,55
 66 455 66 455 113 455 c 256,56,57
 160 455 160 455 194 421 c 0,58,59
 227 388 227 388 227 341 c 256,60,61
 227 294 227 294 194 260 c 0,62,63
 160 227 160 227 113 227 c 256,48,49
1024 227 m 0,64,65
 976 227 976 227 943 260 c 0,66,67
 910 294 910 294 910 341 c 256,68,69
 910 388 910 388 943 421 c 0,70,71
 976 455 976 455 1024 455 c 0,72,73
 1071 455 1071 455 1104 421 c 0,74,75
 1137 388 1137 388 1137 341 c 256,76,77
 1137 294 1137 294 1104 260 c 0,78,79
 1071 227 1071 227 1024 227 c 0,64,65
113 455 m 256,80,81
 66 455 66 455 33 488 c 256,82,83
 0 521 0 521 0 568 c 0,84,85
 0 616 0 616 33 649 c 256,86,87
 66 682 66 682 113 682 c 256,88,89
 160 682 160 682 194 649 c 0,90,91
 227 615 227 615 227 568 c 256,92,93
 227 521 227 521 194 488 c 0,94,95
 160 455 160 455 113 455 c 256,80,81
1024 455 m 0,96,97
 976 455 976 455 943 488 c 256,98,99
 910 521 910 521 910 568 c 0,100,101
 910 616 910 616 943 649 c 256,102,103
 976 682 976 682 1024 682 c 0,104,105
 1071 682 1071 682 1104 649 c 0,106,107
 1137 615 1137 615 1137 568 c 256,108,109
 1137 521 1137 521 1104 488 c 256,110,111
 1071 455 1071 455 1024 455 c 0,96,97
113 682 m 256,112,113
 66 682 66 682 33 716 c 0,114,115
 0 749 0 749 0 796 c 256,116,117
 0 843 0 843 33 876 c 0,118,119
 66 910 66 910 113 910 c 256,120,121
 160 910 160 910 194 876 c 0,122,123
 227 843 227 843 227 796 c 256,124,125
 227 749 227 749 194 716 c 0,126,127
 160 682 160 682 113 682 c 256,112,113
341 682 m 256,128,129
 294 682 294 682 260 716 c 0,130,131
 227 749 227 749 227 796 c 256,132,133
 227 843 227 843 260 876 c 0,134,135
 294 910 294 910 341 910 c 256,136,137
 388 910 388 910 421 876 c 0,138,139
 455 843 455 843 455 796 c 256,140,141
 455 749 455 749 421 716 c 0,142,143
 388 682 388 682 341 682 c 256,128,129
568 682 m 256,144,145
 521 682 521 682 488 716 c 0,146,147
 455 749 455 749 455 796 c 256,148,149
 455 843 455 843 488 876 c 0,150,151
 521 910 521 910 568 910 c 0,152,153
 616 910 616 910 649 876 c 0,154,155
 682 843 682 843 682 796 c 256,156,157
 682 749 682 749 649 716 c 0,158,159
 615 682 615 682 568 682 c 256,144,145
796 682 m 256,160,161
 749 682 749 682 716 716 c 0,162,163
 682 749 682 749 682 796 c 256,164,165
 682 843 682 843 716 876 c 0,166,167
 749 910 749 910 796 910 c 256,168,169
 843 910 843 910 876 876 c 0,170,171
 910 843 910 843 910 796 c 256,172,173
 910 749 910 749 876 716 c 0,174,175
 843 682 843 682 796 682 c 256,160,161
113 910 m 256,176,177
 66 910 66 910 33 943 c 256,178,179
 0 976 0 976 0 1024 c 0,180,181
 0 1071 0 1071 33 1104 c 256,182,183
 66 1137 66 1137 113 1137 c 256,184,185
 160 1137 160 1137 194 1104 c 0,186,187
 227 1071 227 1071 227 1024 c 0,188,189
 227 976 227 976 194 943 c 0,190,191
 160 910 160 910 113 910 c 256,176,177
341 1137 m 256,192,193
 294 1137 294 1137 260 1171 c 0,194,195
 227 1204 227 1204 227 1251 c 256,196,197
 227 1298 227 1298 260 1331 c 0,198,199
 294 1365 294 1365 341 1365 c 256,200,201
 388 1365 388 1365 421 1331 c 0,202,203
 455 1298 455 1298 455 1251 c 256,204,205
 455 1204 455 1204 421 1171 c 0,206,207
 388 1137 388 1137 341 1137 c 256,192,193
568 1365 m 256,208,209
 521 1365 521 1365 488 1398 c 0,210,211
 455 1432 455 1432 455 1479 c 256,212,213
 455 1526 455 1526 488 1559 c 256,214,215
 521 1592 521 1592 568 1592 c 0,216,217
 616 1592 616 1592 649 1559 c 256,218,219
 682 1526 682 1526 682 1479 c 0,220,221
 682 1431 682 1431 649 1398 c 0,222,223
 615 1365 615 1365 568 1365 c 256,208,209
796 1365 m 256,224,225
 749 1365 749 1365 716 1398 c 0,226,227
 682 1432 682 1432 682 1479 c 256,228,229
 682 1526 682 1526 716 1559 c 0,230,231
 749 1592 749 1592 796 1592 c 256,232,233
 843 1592 843 1592 876 1559 c 0,234,235
 910 1526 910 1526 910 1479 c 0,236,237
 910 1431 910 1431 876 1398 c 0,238,239
 843 1365 843 1365 796 1365 c 256,224,225
1024 1365 m 0,240,241
 976 1365 976 1365 943 1398 c 0,242,243
 910 1432 910 1432 910 1479 c 256,244,245
 910 1526 910 1526 943 1559 c 256,246,247
 976 1592 976 1592 1024 1592 c 0,248,249
 1071 1592 1071 1592 1104 1559 c 256,250,251
 1137 1526 1137 1526 1137 1479 c 0,252,253
 1137 1431 1137 1431 1104 1398 c 256,254,255
 1071 1365 1071 1365 1024 1365 c 0,240,241
EndSplineSet
EndChar

StartChar: seven
Encoding: 55 55 24
Width: 1365
GlyphClass: 1
Flags: W
LayerCount: 2
Fore
SplineSet
341 0 m 256,0,1
 294 0 294 0 260 33 c 0,2,3
 227 66 227 66 227 113 c 256,4,5
 227 160 227 160 260 194 c 0,6,7
 294 227 294 227 341 227 c 256,8,9
 388 227 388 227 421 194 c 0,10,11
 455 160 455 160 455 113 c 256,12,13
 455 66 455 66 421 33 c 0,14,15
 388 0 388 0 341 0 c 256,0,1
341 227 m 256,16,17
 294 227 294 227 260 260 c 0,18,19
 227 294 227 294 227 341 c 256,20,21
 227 388 227 388 260 421 c 0,22,23
 294 455 294 455 341 455 c 256,24,25
 388 455 388 455 421 421 c 0,26,27
 455 388 455 388 455 341 c 256,28,29
 455 294 455 294 421 260 c 0,30,31
 388 227 388 227 341 227 c 256,16,17
341 455 m 256,32,33
 294 455 294 455 260 488 c 0,34,35
 227 521 227 521 227 568 c 0,36,37
 227 616 227 616 260 649 c 0,38,39
 294 682 294 682 341 682 c 256,40,41
 388 682 388 682 421 649 c 0,42,43
 455 615 455 615 455 568 c 256,44,45
 455 521 455 521 421 488 c 0,46,47
 388 455 388 455 341 455 c 256,32,33
568 682 m 256,48,49
 521 682 521 682 488 716 c 0,50,51
 455 749 455 749 455 796 c 256,52,53
 455 843 455 843 488 876 c 0,54,55
 521 910 521 910 568 910 c 0,56,57
 616 910 616 910 649 876 c 0,58,59
 682 843 682 843 682 796 c 256,60,61
 682 749 682 749 649 716 c 0,62,63
 615 682 615 682 568 682 c 256,48,49
796 910 m 256,64,65
 749 910 749 910 716 943 c 0,66,67
 682 976 682 976 682 1024 c 0,68,69
 682 1071 682 1071 716 1104 c 0,70,71
 749 1137 749 1137 796 1137 c 256,72,73
 843 1137 843 1137 876 1104 c 0,74,75
 910 1071 910 1071 910 1024 c 0,76,77
 910 976 910 976 876 943 c 0,78,79
 843 910 843 910 796 910 c 256,64,65
1024 1137 m 0,80,81
 976 1137 976 1137 943 1171 c 0,82,83
 910 1204 910 1204 910 1251 c 256,84,85
 910 1298 910 1298 943 1331 c 0,86,87
 976 1365 976 1365 1024 1365 c 0,88,89
 1071 1365 1071 1365 1104 1331 c 0,90,91
 1137 1298 1137 1298 1137 1251 c 256,92,93
 1137 1204 1137 1204 1104 1171 c 0,94,95
 1071 1137 1071 1137 1024 1137 c 0,80,81
113 1365 m 256,96,97
 66 1365 66 1365 33 1398 c 0,98,99
 0 1432 0 1432 0 1479 c 256,100,101
 0 1526 0 1526 33 1559 c 256,102,103
 66 1592 66 1592 113 1592 c 256,104,105
 160 1592 160 1592 194 1559 c 0,106,107
 227 1526 227 1526 227 1479 c 0,108,109
 227 1431 227 1431 194 1398 c 0,110,111
 160 1365 160 1365 113 1365 c 256,96,97
341 1365 m 256,112,113
 294 1365 294 1365 260 1398 c 0,114,115
 227 1432 227 1432 227 1479 c 256,116,117
 227 1526 227 1526 260 1559 c 0,118,119
 294 1592 294 1592 341 1592 c 256,120,121
 388 1592 388 1592 421 1559 c 0,122,123
 455 1526 455 1526 455 1479 c 0,124,125
 455 1431 455 1431 421 1398 c 0,126,127
 388 1365 388 1365 341 1365 c 256,112,113
568 1365 m 256,128,129
 521 1365 521 1365 488 1398 c 0,130,131
 455 1432 455 1432 455 1479 c 256,132,133
 455 1526 455 1526 488 1559 c 256,134,135
 521 1592 521 1592 568 1592 c 0,136,137
 616 1592 616 1592 649 1559 c 256,138,139
 682 1526 682 1526 682 1479 c 0,140,141
 682 1431 682 1431 649 1398 c 0,142,143
 615 1365 615 1365 568 1365 c 256,128,129
796 1365 m 256,144,145
 749 1365 749 1365 716 1398 c 0,146,147
 682 1432 682 1432 682 1479 c 256,148,149
 682 1526 682 1526 716 1559 c 0,150,151
 749 1592 749 1592 796 1592 c 256,152,153
 843 1592 843 1592 876 1559 c 0,154,155
 910 1526 910 1526 910 1479 c 0,156,157
 910 1431 910 1431 876 1398 c 0,158,159
 843 1365 843 1365 796 1365 c 256,144,145
1024 1365 m 0,160,161
 976 1365 976 1365 943 1398 c 0,162,163
 910 1432 910 1432 910 1479 c 256,164,165
 910 1526 910 1526 943 1559 c 256,166,167
 976 1592 976 1592 1024 1592 c 0,168,169
 1071 1592 1071 1592 1104 1559 c 256,170,171
 1137 1526 1137 1526 1137 1479 c 0,172,173
 1137 1431 1137 1431 1104 1398 c 256,174,175
 1071 1365 1071 1365 1024 1365 c 0,160,161
EndSplineSet
EndChar

StartChar: eight
Encoding: 56 56 25
Width: 1365
GlyphClass: 1
Flags: W
LayerCount: 2
Fore
SplineSet
341 0 m 256,0,1
 294 0 294 0 260 33 c 0,2,3
 227 66 227 66 227 113 c 256,4,5
 227 160 227 160 260 194 c 0,6,7
 294 227 294 227 341 227 c 256,8,9
 388 227 388 227 421 194 c 0,10,11
 455 160 455 160 455 113 c 256,12,13
 455 66 455 66 421 33 c 0,14,15
 388 0 388 0 341 0 c 256,0,1
568 0 m 256,16,17
 521 0 521 0 488 33 c 256,18,19
 455 66 455 66 455 113 c 256,20,21
 455 160 455 160 488 194 c 0,22,23
 521 227 521 227 568 227 c 0,24,25
 616 227 616 227 649 194 c 0,26,27
 682 160 682 160 682 113 c 256,28,29
 682 66 682 66 649 33 c 0,30,31
 615 0 615 0 568 0 c 256,16,17
796 0 m 256,32,33
 749 0 749 0 716 33 c 0,34,35
 682 66 682 66 682 113 c 256,36,37
 682 160 682 160 716 194 c 0,38,39
 749 227 749 227 796 227 c 256,40,41
 843 227 843 227 876 194 c 0,42,43
 910 160 910 160 910 113 c 256,44,45
 910 66 910 66 876 33 c 0,46,47
 843 0 843 0 796 0 c 256,32,33
113 227 m 256,48,49
 66 227 66 227 33 260 c 0,50,51
 0 294 0 294 0 341 c 256,52,53
 0 388 0 388 33 421 c 0,54,55
 66 455 66 455 113 455 c 256,56,57
 160 455 160 455 194 421 c 0,58,59
 227 388 227 388 227 341 c 256,60,61
 227 294 227 294 194 260 c 0,62,63
 160 227 160 227 113 227 c 256,48,49
1024 227 m 0,64,65
 976 227 976 227 943 260 c 0,66,67
 910 294 910 294 910 341 c 256,68,69
 910 388 910 388 943 421 c 0,70,71
 976 455 976 455 1024 455 c 0,72,73
 1071 455 1071 455 1104 421 c 0,74,75
 1137 388 1137 388 1137 341 c 256,76,77
 1137 294 1137 294 1104 260 c 0,78,79
 1071 227 1071 227 1024 227 c 0,64,65
113 455 m 256,80,81
 66 455 66 455 33 488 c 256,82,83
 0 521 0 521 0 568 c 0,84,85
 0 616 0 616 33 649 c 256,86,87
 66 682 66 682 113 682 c 256,88,89
 160 682 160 682 194 649 c 0,90,91
 227 615 227 615 227 568 c 256,92,93
 227 521 227 521 194 488 c 0,94,95
 160 455 160 455 113 455 c 256,80,81
1024 455 m 0,96,97
 976 455 976 455 943 488 c 256,98,99
 910 521 910 521 910 568 c 0,100,101
 910 616 910 616 943 649 c 256,102,103
 976 682 976 682 1024 682 c 0,104,105
 1071 682 1071 682 1104 649 c 0,106,107
 1137 615 1137 615 1137 568 c 256,108,109
 1137 521 1137 521 1104 488 c 256,110,111
 1071 455 1071 455 1024 455 c 0,96,97
341 682 m 256,112,113
 294 682 294 682 260 716 c 0,114,115
 227 749 227 749 227 796 c 256,116,117
 227 843 227 843 260 876 c 0,118,119
 294 910 294 910 341 910 c 256,120,121
 388 910 388 910 421 876 c 0,122,123
 455 843 455 843 455 796 c 256,124,125
 455 749 455 749 421 716 c 0,126,127
 388 682 388 682 341 682 c 256,112,113
568 682 m 256,128,129
 521 682 521 682 488 716 c 0,130,131
 455 749 455 749 455 796 c 256,132,133
 455 843 455 843 488 876 c 0,134,135
 521 910 521 910 568 910 c 0,136,137
 616 910 616 910 649 876 c 0,138,139
 682 843 682 843 682 796 c 256,140,141
 682 749 682 749 649 716 c 0,142,143
 615 682 615 682 568 682 c 256,128,129
796 682 m 256,144,145
 749 682 749 682 716 716 c 0,146,147
 682 749 682 749 682 796 c 256,148,149
 682 843 682 843 716 876 c 0,150,151
 749 910 749 910 796 910 c 256,152,153
 843 910 843 910 876 876 c 0,154,155
 910 843 910 843 910 796 c 256,156,157
 910 749 910 749 876 716 c 0,158,159
 843 682 843 682 796 682 c 256,144,145
113 910 m 256,160,161
 66 910 66 910 33 943 c 256,162,163
 0 976 0 976 0 1024 c 0,164,165
 0 1071 0 1071 33 1104 c 256,166,167
 66 1137 66 1137 113 1137 c 256,168,169
 160 1137 160 1137 194 1104 c 0,170,171
 227 1071 227 1071 227 1024 c 0,172,173
 227 976 227 976 194 943 c 0,174,175
 160 910 160 910 113 910 c 256,160,161
1024 910 m 0,176,177
 976 910 976 910 943 943 c 256,178,179
 910 976 910 976 910 1024 c 0,180,181
 910 1071 910 1071 943 1104 c 256,182,183
 976 1137 976 1137 1024 1137 c 0,184,185
 1071 1137 1071 1137 1104 1104 c 256,186,187
 1137 1071 1137 1071 1137 1024 c 0,188,189
 1137 976 1137 976 1104 943 c 256,190,191
 1071 910 1071 910 1024 910 c 0,176,177
113 1137 m 256,192,193
 66 1137 66 1137 33 1171 c 0,194,195
 0 1204 0 1204 0 1251 c 256,196,197
 0 1298 0 1298 33 1331 c 0,198,199
 66 1365 66 1365 113 1365 c 256,200,201
 160 1365 160 1365 194 1331 c 0,202,203
 227 1298 227 1298 227 1251 c 256,204,205
 227 1204 227 1204 194 1171 c 0,206,207
 160 1137 160 1137 113 1137 c 256,192,193
1024 1137 m 0,208,209
 976 1137 976 1137 943 1171 c 0,210,211
 910 1204 910 1204 910 1251 c 256,212,213
 910 1298 910 1298 943 1331 c 0,214,215
 976 1365 976 1365 1024 1365 c 0,216,217
 1071 1365 1071 1365 1104 1331 c 0,218,219
 1137 1298 1137 1298 1137 1251 c 256,220,221
 1137 1204 1137 1204 1104 1171 c 0,222,223
 1071 1137 1071 1137 1024 1137 c 0,208,209
341 1365 m 256,224,225
 294 1365 294 1365 260 1398 c 0,226,227
 227 1432 227 1432 227 1479 c 256,228,229
 227 1526 227 1526 260 1559 c 0,230,231
 294 1592 294 1592 341 1592 c 256,232,233
 388 1592 388 1592 421 1559 c 0,234,235
 455 1526 455 1526 455 1479 c 0,236,237
 455 1431 455 1431 421 1398 c 0,238,239
 388 1365 388 1365 341 1365 c 256,224,225
568 1365 m 256,240,241
 521 1365 521 1365 488 1398 c 0,242,243
 455 1432 455 1432 455 1479 c 256,244,245
 455 1526 455 1526 488 1559 c 256,246,247
 521 1592 521 1592 568 1592 c 0,248,249
 616 1592 616 1592 649 1559 c 256,250,251
 682 1526 682 1526 682 1479 c 0,252,253
 682 1431 682 1431 649 1398 c 0,254,255
 615 1365 615 1365 568 1365 c 256,240,241
796 1365 m 256,256,257
 749 1365 749 1365 716 1398 c 0,258,259
 682 1432 682 1432 682 1479 c 256,260,261
 682 1526 682 1526 716 1559 c 0,262,263
 749 1592 749 1592 796 1592 c 256,264,265
 843 1592 843 1592 876 1559 c 0,266,267
 910 1526 910 1526 910 1479 c 0,268,269
 910 1431 910 1431 876 1398 c 0,270,271
 843 1365 843 1365 796 1365 c 256,256,257
EndSplineSet
EndChar

StartChar: nine
Encoding: 57 57 26
Width: 1365
GlyphClass: 1
Flags: W
LayerCount: 2
Fore
SplineSet
341 0 m 256,0,1
 294 0 294 0 260 33 c 0,2,3
 227 66 227 66 227 113 c 256,4,5
 227 160 227 160 260 194 c 0,6,7
 294 227 294 227 341 227 c 256,8,9
 388 227 388 227 421 194 c 0,10,11
 455 160 455 160 455 113 c 256,12,13
 455 66 455 66 421 33 c 0,14,15
 388 0 388 0 341 0 c 256,0,1
568 0 m 256,16,17
 521 0 521 0 488 33 c 256,18,19
 455 66 455 66 455 113 c 256,20,21
 455 160 455 160 488 194 c 0,22,23
 521 227 521 227 568 227 c 0,24,25
 616 227 616 227 649 194 c 0,26,27
 682 160 682 160 682 113 c 256,28,29
 682 66 682 66 649 33 c 0,30,31
 615 0 615 0 568 0 c 256,16,17
796 227 m 256,32,33
 749 227 749 227 716 260 c 0,34,35
 682 294 682 294 682 341 c 256,36,37
 682 388 682 388 716 421 c 0,38,39
 749 455 749 455 796 455 c 256,40,41
 843 455 843 455 876 421 c 0,42,43
 910 388 910 388 910 341 c 256,44,45
 910 294 910 294 876 260 c 0,46,47
 843 227 843 227 796 227 c 256,32,33
1024 455 m 0,48,49
 976 455 976 455 943 488 c 256,50,51
 910 521 910 521 910 568 c 0,52,53
 910 616 910 616 943 649 c 256,54,55
 976 682 976 682 1024 682 c 0,56,57
 1071 682 1071 682 1104 649 c 0,58,59
 1137 615 1137 615 1137 568 c 256,60,61
 1137 521 1137 521 1104 488 c 256,62,63
 1071 455 1071 455 1024 455 c 0,48,49
341 682 m 256,64,65
 294 682 294 682 260 716 c 0,66,67
 227 749 227 749 227 796 c 256,68,69
 227 843 227 843 260 876 c 0,70,71
 294 910 294 910 341 910 c 256,72,73
 388 910 388 910 421 876 c 0,74,75
 455 843 455 843 455 796 c 256,76,77
 455 749 455 749 421 716 c 0,78,79
 388 682 388 682 341 682 c 256,64,65
568 682 m 256,80,81
 521 682 521 682 488 716 c 0,82,83
 455 749 455 749 455 796 c 256,84,85
 455 843 455 843 488 876 c 0,86,87
 521 910 521 910 568 910 c 0,88,89
 616 910 616 910 649 876 c 0,90,91
 682 843 682 843 682 796 c 256,92,93
 682 749 682 749 649 716 c 0,94,95
 615 682 615 682 568 682 c 256,80,81
796 682 m 256,96,97
 749 682 749 682 716 716 c 0,98,99
 682 749 682 749 682 796 c 256,100,101
 682 843 682 843 716 876 c 0,102,103
 749 910 749 910 796 910 c 256,104,105
 843 910 843 910 876 876 c 0,106,107
 910 843 910 843 910 796 c 256,108,109
 910 749 910 749 876 716 c 0,110,111
 843 682 843 682 796 682 c 256,96,97
1024 682 m 0,112,113
 976 682 976 682 943 716 c 0,114,115
 910 749 910 749 910 796 c 256,116,117
 910 843 910 843 943 876 c 0,118,119
 976 910 976 910 1024 910 c 0,120,121
 1071 910 1071 910 1104 876 c 0,122,123
 1137 843 1137 843 1137 796 c 256,124,125
 1137 749 1137 749 1104 716 c 0,126,127
 1071 682 1071 682 1024 682 c 0,112,113
113 910 m 256,128,129
 66 910 66 910 33 943 c 256,130,131
 0 976 0 976 0 1024 c 0,132,133
 0 1071 0 1071 33 1104 c 256,134,135
 66 1137 66 1137 113 1137 c 256,136,137
 160 1137 160 1137 194 1104 c 0,138,139
 227 1071 227 1071 227 1024 c 0,140,141
 227 976 227 976 194 943 c 0,142,143
 160 910 160 910 113 910 c 256,128,129
1024 910 m 0,144,145
 976 910 976 910 943 943 c 256,146,147
 910 976 910 976 910 1024 c 0,148,149
 910 1071 910 1071 943 1104 c 256,150,151
 976 1137 976 1137 1024 1137 c 0,152,153
 1071 1137 1071 1137 1104 1104 c 256,154,155
 1137 1071 1137 1071 1137 1024 c 0,156,157
 1137 976 1137 976 1104 943 c 256,158,159
 1071 910 1071 910 1024 910 c 0,144,145
113 1137 m 256,160,161
 66 1137 66 1137 33 1171 c 0,162,163
 0 1204 0 1204 0 1251 c 256,164,165
 0 1298 0 1298 33 1331 c 0,166,167
 66 1365 66 1365 113 1365 c 256,168,169
 160 1365 160 1365 194 1331 c 0,170,171
 227 1298 227 1298 227 1251 c 256,172,173
 227 1204 227 1204 194 1171 c 0,174,175
 160 1137 160 1137 113 1137 c 256,160,161
1024 1137 m 0,176,177
 976 1137 976 1137 943 1171 c 0,178,179
 910 1204 910 1204 910 1251 c 256,180,181
 910 1298 910 1298 943 1331 c 0,182,183
 976 1365 976 1365 1024 1365 c 0,184,185
 1071 1365 1071 1365 1104 1331 c 0,186,187
 1137 1298 1137 1298 1137 1251 c 256,188,189
 1137 1204 1137 1204 1104 1171 c 0,190,191
 1071 1137 1071 1137 1024 1137 c 0,176,177
341 1365 m 256,192,193
 294 1365 294 1365 260 1398 c 0,194,195
 227 1432 227 1432 227 1479 c 256,196,197
 227 1526 227 1526 260 1559 c 0,198,199
 294 1592 294 1592 341 1592 c 256,200,201
 388 1592 388 1592 421 1559 c 0,202,203
 455 1526 455 1526 455 1479 c 0,204,205
 455 1431 455 1431 421 1398 c 0,206,207
 388 1365 388 1365 341 1365 c 256,192,193
568 1365 m 256,208,209
 521 1365 521 1365 488 1398 c 0,210,211
 455 1432 455 1432 455 1479 c 256,212,213
 455 1526 455 1526 488 1559 c 256,214,215
 521 1592 521 1592 568 1592 c 0,216,217
 616 1592 616 1592 649 1559 c 256,218,219
 682 1526 682 1526 682 1479 c 0,220,221
 682 1431 682 1431 649 1398 c 0,222,223
 615 1365 615 1365 568 1365 c 256,208,209
796 1365 m 256,224,225
 749 1365 749 1365 716 1398 c 0,226,227
 682 1432 682 1432 682 1479 c 256,228,229
 682 1526 682 1526 716 1559 c 0,230,231
 749 1592 749 1592 796 1592 c 256,232,233
 843 1592 843 1592 876 1559 c 0,234,235
 910 1526 910 1526 910 1479 c 0,236,237
 910 1431 910 1431 876 1398 c 0,238,239
 843 1365 843 1365 796 1365 c 256,224,225
EndSplineSet
EndChar

StartChar: colon
Encoding: 58 58 27
Width: 455
GlyphClass: 1
Flags: W
LayerCount: 2
Fore
SplineSet
113 0 m 256,0,1
 66 0 66 0 33 33 c 256,2,3
 0 66 0 66 0 113 c 256,4,5
 0 160 0 160 33 194 c 0,6,7
 66 227 66 227 113 227 c 256,8,9
 160 227 160 227 194 194 c 0,10,11
 227 160 227 160 227 113 c 256,12,13
 227 66 227 66 194 33 c 0,14,15
 160 0 160 0 113 0 c 256,0,1
113 227 m 256,16,17
 66 227 66 227 33 260 c 0,18,19
 0 294 0 294 0 341 c 256,20,21
 0 388 0 388 33 421 c 0,22,23
 66 455 66 455 113 455 c 256,24,25
 160 455 160 455 194 421 c 0,26,27
 227 388 227 388 227 341 c 256,28,29
 227 294 227 294 194 260 c 0,30,31
 160 227 160 227 113 227 c 256,16,17
113 682 m 256,32,33
 66 682 66 682 33 716 c 0,34,35
 0 749 0 749 0 796 c 256,36,37
 0 843 0 843 33 876 c 0,38,39
 66 910 66 910 113 910 c 256,40,41
 160 910 160 910 194 876 c 0,42,43
 227 843 227 843 227 796 c 256,44,45
 227 749 227 749 194 716 c 0,46,47
 160 682 160 682 113 682 c 256,32,33
113 910 m 256,48,49
 66 910 66 910 33 943 c 256,50,51
 0 976 0 976 0 1024 c 0,52,53
 0 1071 0 1071 33 1104 c 256,54,55
 66 1137 66 1137 113 1137 c 256,56,57
 160 1137 160 1137 194 1104 c 0,58,59
 227 1071 227 1071 227 1024 c 0,60,61
 227 976 227 976 194 943 c 0,62,63
 160 910 160 910 113 910 c 256,48,49
EndSplineSet
EndChar

StartChar: semicolon
Encoding: 59 59 28
Width: 682
GlyphClass: 1
Flags: W
LayerCount: 2
Fore
SplineSet
113 -227 m 256,0,1
 66 -227 66 -227 33 -194 c 0,2,3
 0 -160 0 -160 0 -113 c 256,4,5
 0 -66 0 -66 33 -33 c 256,6,7
 66 0 66 0 113 0 c 256,8,9
 160 0 160 0 194 -33 c 0,10,11
 227 -66 227 -66 227 -113 c 256,12,13
 227 -160 227 -160 194 -194 c 0,14,15
 160 -227 160 -227 113 -227 c 256,0,1
341 0 m 256,16,17
 294 0 294 0 260 33 c 0,18,19
 227 66 227 66 227 113 c 256,20,21
 227 160 227 160 260 194 c 0,22,23
 294 227 294 227 341 227 c 256,24,25
 388 227 388 227 421 194 c 0,26,27
 455 160 455 160 455 113 c 256,28,29
 455 66 455 66 421 33 c 0,30,31
 388 0 388 0 341 0 c 256,16,17
341 227 m 256,32,33
 294 227 294 227 260 260 c 0,34,35
 227 294 227 294 227 341 c 256,36,37
 227 388 227 388 260 421 c 0,38,39
 294 455 294 455 341 455 c 256,40,41
 388 455 388 455 421 421 c 0,42,43
 455 388 455 388 455 341 c 256,44,45
 455 294 455 294 421 260 c 0,46,47
 388 227 388 227 341 227 c 256,32,33
341 682 m 256,48,49
 294 682 294 682 260 716 c 0,50,51
 227 749 227 749 227 796 c 256,52,53
 227 843 227 843 260 876 c 0,54,55
 294 910 294 910 341 910 c 256,56,57
 388 910 388 910 421 876 c 0,58,59
 455 843 455 843 455 796 c 256,60,61
 455 749 455 749 421 716 c 0,62,63
 388 682 388 682 341 682 c 256,48,49
341 910 m 256,64,65
 294 910 294 910 260 943 c 0,66,67
 227 976 227 976 227 1024 c 0,68,69
 227 1071 227 1071 260 1104 c 0,70,71
 294 1137 294 1137 341 1137 c 256,72,73
 388 1137 388 1137 421 1104 c 0,74,75
 455 1071 455 1071 455 1024 c 0,76,77
 455 976 455 976 421 943 c 0,78,79
 388 910 388 910 341 910 c 256,64,65
EndSplineSet
EndChar

StartChar: less
Encoding: 60 60 29
Width: 910
GlyphClass: 1
Flags: W
LayerCount: 2
Fore
SplineSet
568 227 m 256,0,1
 521 227 521 227 488 260 c 0,2,3
 455 294 455 294 455 341 c 256,4,5
 455 388 455 388 488 421 c 0,6,7
 521 455 521 455 568 455 c 0,8,9
 616 455 616 455 649 421 c 0,10,11
 682 388 682 388 682 341 c 256,12,13
 682 294 682 294 649 260 c 0,14,15
 615 227 615 227 568 227 c 256,0,1
341 455 m 256,16,17
 294 455 294 455 260 488 c 0,18,19
 227 521 227 521 227 568 c 0,20,21
 227 616 227 616 260 649 c 0,22,23
 294 682 294 682 341 682 c 256,24,25
 388 682 388 682 421 649 c 0,26,27
 455 615 455 615 455 568 c 256,28,29
 455 521 455 521 421 488 c 0,30,31
 388 455 388 455 341 455 c 256,16,17
113 682 m 256,32,33
 66 682 66 682 33 716 c 0,34,35
 0 749 0 749 0 796 c 256,36,37
 0 843 0 843 33 876 c 0,38,39
 66 910 66 910 113 910 c 256,40,41
 160 910 160 910 194 876 c 0,42,43
 227 843 227 843 227 796 c 256,44,45
 227 749 227 749 194 716 c 0,46,47
 160 682 160 682 113 682 c 256,32,33
341 910 m 256,48,49
 294 910 294 910 260 943 c 0,50,51
 227 976 227 976 227 1024 c 0,52,53
 227 1071 227 1071 260 1104 c 0,54,55
 294 1137 294 1137 341 1137 c 256,56,57
 388 1137 388 1137 421 1104 c 0,58,59
 455 1071 455 1071 455 1024 c 0,60,61
 455 976 455 976 421 943 c 0,62,63
 388 910 388 910 341 910 c 256,48,49
568 1137 m 256,64,65
 521 1137 521 1137 488 1171 c 0,66,67
 455 1204 455 1204 455 1251 c 256,68,69
 455 1298 455 1298 488 1331 c 0,70,71
 521 1365 521 1365 568 1365 c 0,72,73
 616 1365 616 1365 649 1331 c 0,74,75
 682 1298 682 1298 682 1251 c 256,76,77
 682 1204 682 1204 649 1171 c 0,78,79
 615 1137 615 1137 568 1137 c 256,64,65
EndSplineSet
EndChar

StartChar: equal
Encoding: 61 61 30
Width: 1365
GlyphClass: 1
Flags: W
LayerCount: 2
Fore
SplineSet
113 455 m 256,0,1
 66 455 66 455 33 488 c 256,2,3
 0 521 0 521 0 568 c 0,4,5
 0 616 0 616 33 649 c 256,6,7
 66 682 66 682 113 682 c 256,8,9
 160 682 160 682 194 649 c 0,10,11
 227 615 227 615 227 568 c 256,12,13
 227 521 227 521 194 488 c 0,14,15
 160 455 160 455 113 455 c 256,0,1
341 455 m 256,16,17
 294 455 294 455 260 488 c 0,18,19
 227 521 227 521 227 568 c 0,20,21
 227 616 227 616 260 649 c 0,22,23
 294 682 294 682 341 682 c 256,24,25
 388 682 388 682 421 649 c 0,26,27
 455 615 455 615 455 568 c 256,28,29
 455 521 455 521 421 488 c 0,30,31
 388 455 388 455 341 455 c 256,16,17
568 455 m 256,32,33
 521 455 521 455 488 488 c 256,34,35
 455 521 455 521 455 568 c 0,36,37
 455 616 455 616 488 649 c 256,38,39
 521 682 521 682 568 682 c 0,40,41
 616 682 616 682 649 649 c 0,42,43
 682 615 682 615 682 568 c 256,44,45
 682 521 682 521 649 488 c 0,46,47
 615 455 615 455 568 455 c 256,32,33
796 455 m 256,48,49
 749 455 749 455 716 488 c 0,50,51
 682 521 682 521 682 568 c 0,52,53
 682 616 682 616 716 649 c 0,54,55
 749 682 749 682 796 682 c 256,56,57
 843 682 843 682 876 649 c 0,58,59
 910 615 910 615 910 568 c 256,60,61
 910 521 910 521 876 488 c 0,62,63
 843 455 843 455 796 455 c 256,48,49
1024 455 m 0,64,65
 976 455 976 455 943 488 c 256,66,67
 910 521 910 521 910 568 c 0,68,69
 910 616 910 616 943 649 c 256,70,71
 976 682 976 682 1024 682 c 0,72,73
 1071 682 1071 682 1104 649 c 0,74,75
 1137 615 1137 615 1137 568 c 256,76,77
 1137 521 1137 521 1104 488 c 256,78,79
 1071 455 1071 455 1024 455 c 0,64,65
113 910 m 256,80,81
 66 910 66 910 33 943 c 256,82,83
 0 976 0 976 0 1024 c 0,84,85
 0 1071 0 1071 33 1104 c 256,86,87
 66 1137 66 1137 113 1137 c 256,88,89
 160 1137 160 1137 194 1104 c 0,90,91
 227 1071 227 1071 227 1024 c 0,92,93
 227 976 227 976 194 943 c 0,94,95
 160 910 160 910 113 910 c 256,80,81
341 910 m 256,96,97
 294 910 294 910 260 943 c 0,98,99
 227 976 227 976 227 1024 c 0,100,101
 227 1071 227 1071 260 1104 c 0,102,103
 294 1137 294 1137 341 1137 c 256,104,105
 388 1137 388 1137 421 1104 c 0,106,107
 455 1071 455 1071 455 1024 c 0,108,109
 455 976 455 976 421 943 c 0,110,111
 388 910 388 910 341 910 c 256,96,97
568 910 m 256,112,113
 521 910 521 910 488 943 c 256,114,115
 455 976 455 976 455 1024 c 0,116,117
 455 1071 455 1071 488 1104 c 256,118,119
 521 1137 521 1137 568 1137 c 0,120,121
 616 1137 616 1137 649 1104 c 256,122,123
 682 1071 682 1071 682 1024 c 0,124,125
 682 976 682 976 649 943 c 0,126,127
 615 910 615 910 568 910 c 256,112,113
796 910 m 256,128,129
 749 910 749 910 716 943 c 0,130,131
 682 976 682 976 682 1024 c 0,132,133
 682 1071 682 1071 716 1104 c 0,134,135
 749 1137 749 1137 796 1137 c 256,136,137
 843 1137 843 1137 876 1104 c 0,138,139
 910 1071 910 1071 910 1024 c 0,140,141
 910 976 910 976 876 943 c 0,142,143
 843 910 843 910 796 910 c 256,128,129
1024 910 m 0,144,145
 976 910 976 910 943 943 c 256,146,147
 910 976 910 976 910 1024 c 0,148,149
 910 1071 910 1071 943 1104 c 256,150,151
 976 1137 976 1137 1024 1137 c 0,152,153
 1071 1137 1071 1137 1104 1104 c 256,154,155
 1137 1071 1137 1071 1137 1024 c 0,156,157
 1137 976 1137 976 1104 943 c 256,158,159
 1071 910 1071 910 1024 910 c 0,144,145
EndSplineSet
EndChar

StartChar: greater
Encoding: 62 62 31
Width: 910
GlyphClass: 1
Flags: W
LayerCount: 2
Fore
SplineSet
113 227 m 256,0,1
 66 227 66 227 33 260 c 0,2,3
 0 294 0 294 0 341 c 256,4,5
 0 388 0 388 33 421 c 0,6,7
 66 455 66 455 113 455 c 256,8,9
 160 455 160 455 194 421 c 0,10,11
 227 388 227 388 227 341 c 256,12,13
 227 294 227 294 194 260 c 0,14,15
 160 227 160 227 113 227 c 256,0,1
341 455 m 256,16,17
 294 455 294 455 260 488 c 0,18,19
 227 521 227 521 227 568 c 0,20,21
 227 616 227 616 260 649 c 0,22,23
 294 682 294 682 341 682 c 256,24,25
 388 682 388 682 421 649 c 0,26,27
 455 615 455 615 455 568 c 256,28,29
 455 521 455 521 421 488 c 0,30,31
 388 455 388 455 341 455 c 256,16,17
568 682 m 256,32,33
 521 682 521 682 488 716 c 0,34,35
 455 749 455 749 455 796 c 256,36,37
 455 843 455 843 488 876 c 0,38,39
 521 910 521 910 568 910 c 0,40,41
 616 910 616 910 649 876 c 0,42,43
 682 843 682 843 682 796 c 256,44,45
 682 749 682 749 649 716 c 0,46,47
 615 682 615 682 568 682 c 256,32,33
341 910 m 256,48,49
 294 910 294 910 260 943 c 0,50,51
 227 976 227 976 227 1024 c 0,52,53
 227 1071 227 1071 260 1104 c 0,54,55
 294 1137 294 1137 341 1137 c 256,56,57
 388 1137 388 1137 421 1104 c 0,58,59
 455 1071 455 1071 455 1024 c 0,60,61
 455 976 455 976 421 943 c 0,62,63
 388 910 388 910 341 910 c 256,48,49
113 1137 m 256,64,65
 66 1137 66 1137 33 1171 c 0,66,67
 0 1204 0 1204 0 1251 c 256,68,69
 0 1298 0 1298 33 1331 c 0,70,71
 66 1365 66 1365 113 1365 c 256,72,73
 160 1365 160 1365 194 1331 c 0,74,75
 227 1298 227 1298 227 1251 c 256,76,77
 227 1204 227 1204 194 1171 c 0,78,79
 160 1137 160 1137 113 1137 c 256,64,65
EndSplineSet
EndChar

StartChar: question
Encoding: 63 63 32
Width: 1365
GlyphClass: 1
Flags: W
LayerCount: 2
Fore
SplineSet
568 0 m 256,0,1
 521 0 521 0 488 33 c 256,2,3
 455 66 455 66 455 113 c 256,4,5
 455 160 455 160 488 194 c 0,6,7
 521 227 521 227 568 227 c 0,8,9
 616 227 616 227 649 194 c 0,10,11
 682 160 682 160 682 113 c 256,12,13
 682 66 682 66 649 33 c 0,14,15
 615 0 615 0 568 0 c 256,0,1
568 227 m 256,16,17
 521 227 521 227 488 260 c 0,18,19
 455 294 455 294 455 341 c 256,20,21
 455 388 455 388 488 421 c 0,22,23
 521 455 521 455 568 455 c 0,24,25
 616 455 616 455 649 421 c 0,26,27
 682 388 682 388 682 341 c 256,28,29
 682 294 682 294 649 260 c 0,30,31
 615 227 615 227 568 227 c 256,16,17
796 682 m 256,32,33
 749 682 749 682 716 716 c 0,34,35
 682 749 682 749 682 796 c 256,36,37
 682 843 682 843 716 876 c 0,38,39
 749 910 749 910 796 910 c 256,40,41
 843 910 843 910 876 876 c 0,42,43
 910 843 910 843 910 796 c 256,44,45
 910 749 910 749 876 716 c 0,46,47
 843 682 843 682 796 682 c 256,32,33
1024 910 m 0,48,49
 976 910 976 910 943 943 c 256,50,51
 910 976 910 976 910 1024 c 0,52,53
 910 1071 910 1071 943 1104 c 256,54,55
 976 1137 976 1137 1024 1137 c 0,56,57
 1071 1137 1071 1137 1104 1104 c 256,58,59
 1137 1071 1137 1071 1137 1024 c 0,60,61
 1137 976 1137 976 1104 943 c 256,62,63
 1071 910 1071 910 1024 910 c 0,48,49
113 1137 m 256,64,65
 66 1137 66 1137 33 1171 c 0,66,67
 0 1204 0 1204 0 1251 c 256,68,69
 0 1298 0 1298 33 1331 c 0,70,71
 66 1365 66 1365 113 1365 c 256,72,73
 160 1365 160 1365 194 1331 c 0,74,75
 227 1298 227 1298 227 1251 c 256,76,77
 227 1204 227 1204 194 1171 c 0,78,79
 160 1137 160 1137 113 1137 c 256,64,65
1024 1137 m 0,80,81
 976 1137 976 1137 943 1171 c 0,82,83
 910 1204 910 1204 910 1251 c 256,84,85
 910 1298 910 1298 943 1331 c 0,86,87
 976 1365 976 1365 1024 1365 c 0,88,89
 1071 1365 1071 1365 1104 1331 c 0,90,91
 1137 1298 1137 1298 1137 1251 c 256,92,93
 1137 1204 1137 1204 1104 1171 c 0,94,95
 1071 1137 1071 1137 1024 1137 c 0,80,81
341 1365 m 256,96,97
 294 1365 294 1365 260 1398 c 0,98,99
 227 1432 227 1432 227 1479 c 256,100,101
 227 1526 227 1526 260 1559 c 0,102,103
 294 1592 294 1592 341 1592 c 256,104,105
 388 1592 388 1592 421 1559 c 0,106,107
 455 1526 455 1526 455 1479 c 0,108,109
 455 1431 455 1431 421 1398 c 0,110,111
 388 1365 388 1365 341 1365 c 256,96,97
568 1365 m 256,112,113
 521 1365 521 1365 488 1398 c 0,114,115
 455 1432 455 1432 455 1479 c 256,116,117
 455 1526 455 1526 488 1559 c 256,118,119
 521 1592 521 1592 568 1592 c 0,120,121
 616 1592 616 1592 649 1559 c 256,122,123
 682 1526 682 1526 682 1479 c 0,124,125
 682 1431 682 1431 649 1398 c 0,126,127
 615 1365 615 1365 568 1365 c 256,112,113
796 1365 m 256,128,129
 749 1365 749 1365 716 1398 c 0,130,131
 682 1432 682 1432 682 1479 c 256,132,133
 682 1526 682 1526 716 1559 c 0,134,135
 749 1592 749 1592 796 1592 c 256,136,137
 843 1592 843 1592 876 1559 c 0,138,139
 910 1526 910 1526 910 1479 c 0,140,141
 910 1431 910 1431 876 1398 c 0,142,143
 843 1365 843 1365 796 1365 c 256,128,129
EndSplineSet
EndChar

StartChar: at
Encoding: 64 64 33
Width: 1365
GlyphClass: 1
Flags: W
LayerCount: 2
Fore
SplineSet
341 -227 m 256,0,1
 294 -227 294 -227 260 -194 c 0,2,3
 227 -160 227 -160 227 -113 c 256,4,5
 227 -66 227 -66 260 -33 c 0,6,7
 294 0 294 0 341 0 c 256,8,9
 388 0 388 0 421 -33 c 0,10,11
 455 -66 455 -66 455 -113 c 256,12,13
 455 -160 455 -160 421 -194 c 0,14,15
 388 -227 388 -227 341 -227 c 256,0,1
568 -227 m 256,16,17
 521 -227 521 -227 488 -194 c 0,18,19
 455 -160 455 -160 455 -113 c 256,20,21
 455 -66 455 -66 488 -33 c 256,22,23
 521 0 521 0 568 0 c 0,24,25
 616 0 616 0 649 -33 c 256,26,27
 682 -66 682 -66 682 -113 c 256,28,29
 682 -160 682 -160 649 -194 c 0,30,31
 615 -227 615 -227 568 -227 c 256,16,17
796 -227 m 256,32,33
 749 -227 749 -227 716 -194 c 0,34,35
 682 -160 682 -160 682 -113 c 256,36,37
 682 -66 682 -66 716 -33 c 0,38,39
 749 0 749 0 796 0 c 256,40,41
 843 0 843 0 876 -33 c 0,42,43
 910 -66 910 -66 910 -113 c 256,44,45
 910 -160 910 -160 876 -194 c 0,46,47
 843 -227 843 -227 796 -227 c 256,32,33
113 0 m 256,48,49
 66 0 66 0 33 33 c 256,50,51
 0 66 0 66 0 113 c 256,52,53
 0 160 0 160 33 194 c 0,54,55
 66 227 66 227 113 227 c 256,56,57
 160 227 160 227 194 194 c 0,58,59
 227 160 227 160 227 113 c 256,60,61
 227 66 227 66 194 33 c 0,62,63
 160 0 160 0 113 0 c 256,48,49
113 227 m 256,64,65
 66 227 66 227 33 260 c 0,66,67
 0 294 0 294 0 341 c 256,68,69
 0 388 0 388 33 421 c 0,70,71
 66 455 66 455 113 455 c 256,72,73
 160 455 160 455 194 421 c 0,74,75
 227 388 227 388 227 341 c 256,76,77
 227 294 227 294 194 260 c 0,78,79
 160 227 160 227 113 227 c 256,64,65
568 227 m 256,80,81
 521 227 521 227 488 260 c 0,82,83
 455 294 455 294 455 341 c 256,84,85
 455 388 455 388 488 421 c 0,86,87
 521 455 521 455 568 455 c 0,88,89
 616 455 616 455 649 421 c 0,90,91
 682 388 682 388 682 341 c 256,92,93
 682 294 682 294 649 260 c 0,94,95
 615 227 615 227 568 227 c 256,80,81
796 227 m 256,96,97
 749 227 749 227 716 260 c 0,98,99
 682 294 682 294 682 341 c 256,100,101
 682 388 682 388 716 421 c 0,102,103
 749 455 749 455 796 455 c 256,104,105
 843 455 843 455 876 421 c 0,106,107
 910 388 910 388 910 341 c 256,108,109
 910 294 910 294 876 260 c 0,110,111
 843 227 843 227 796 227 c 256,96,97
1024 227 m 0,112,113
 976 227 976 227 943 260 c 0,114,115
 910 294 910 294 910 341 c 256,116,117
 910 388 910 388 943 421 c 0,118,119
 976 455 976 455 1024 455 c 0,120,121
 1071 455 1071 455 1104 421 c 0,122,123
 1137 388 1137 388 1137 341 c 256,124,125
 1137 294 1137 294 1104 260 c 0,126,127
 1071 227 1071 227 1024 227 c 0,112,113
113 455 m 256,128,129
 66 455 66 455 33 488 c 256,130,131
 0 521 0 521 0 568 c 0,132,133
 0 616 0 616 33 649 c 256,134,135
 66 682 66 682 113 682 c 256,136,137
 160 682 160 682 194 649 c 0,138,139
 227 615 227 615 227 568 c 256,140,141
 227 521 227 521 194 488 c 0,142,143
 160 455 160 455 113 455 c 256,128,129
568 455 m 256,144,145
 521 455 521 455 488 488 c 256,146,147
 455 521 455 521 455 568 c 0,148,149
 455 616 455 616 488 649 c 256,150,151
 521 682 521 682 568 682 c 0,152,153
 616 682 616 682 649 649 c 0,154,155
 682 615 682 615 682 568 c 256,156,157
 682 521 682 521 649 488 c 0,158,159
 615 455 615 455 568 455 c 256,144,145
1024 455 m 0,160,161
 976 455 976 455 943 488 c 256,162,163
 910 521 910 521 910 568 c 0,164,165
 910 616 910 616 943 649 c 256,166,167
 976 682 976 682 1024 682 c 0,168,169
 1071 682 1071 682 1104 649 c 0,170,171
 1137 615 1137 615 1137 568 c 256,172,173
 1137 521 1137 521 1104 488 c 256,174,175
 1071 455 1071 455 1024 455 c 0,160,161
113 682 m 256,176,177
 66 682 66 682 33 716 c 0,178,179
 0 749 0 749 0 796 c 256,180,181
 0 843 0 843 33 876 c 0,182,183
 66 910 66 910 113 910 c 256,184,185
 160 910 160 910 194 876 c 0,186,187
 227 843 227 843 227 796 c 256,188,189
 227 749 227 749 194 716 c 0,190,191
 160 682 160 682 113 682 c 256,176,177
568 682 m 256,192,193
 521 682 521 682 488 716 c 0,194,195
 455 749 455 749 455 796 c 256,196,197
 455 843 455 843 488 876 c 0,198,199
 521 910 521 910 568 910 c 0,200,201
 616 910 616 910 649 876 c 0,202,203
 682 843 682 843 682 796 c 256,204,205
 682 749 682 749 649 716 c 0,206,207
 615 682 615 682 568 682 c 256,192,193
1024 682 m 0,208,209
 976 682 976 682 943 716 c 0,210,211
 910 749 910 749 910 796 c 256,212,213
 910 843 910 843 943 876 c 0,214,215
 976 910 976 910 1024 910 c 0,216,217
 1071 910 1071 910 1104 876 c 0,218,219
 1137 843 1137 843 1137 796 c 256,220,221
 1137 749 1137 749 1104 716 c 0,222,223
 1071 682 1071 682 1024 682 c 0,208,209
113 910 m 256,224,225
 66 910 66 910 33 943 c 256,226,227
 0 976 0 976 0 1024 c 0,228,229
 0 1071 0 1071 33 1104 c 256,230,231
 66 1137 66 1137 113 1137 c 256,232,233
 160 1137 160 1137 194 1104 c 0,234,235
 227 1071 227 1071 227 1024 c 0,236,237
 227 976 227 976 194 943 c 0,238,239
 160 910 160 910 113 910 c 256,224,225
1024 910 m 0,240,241
 976 910 976 910 943 943 c 256,242,243
 910 976 910 976 910 1024 c 0,244,245
 910 1071 910 1071 943 1104 c 256,246,247
 976 1137 976 1137 1024 1137 c 0,248,249
 1071 1137 1071 1137 1104 1104 c 256,250,251
 1137 1071 1137 1071 1137 1024 c 0,252,253
 1137 976 1137 976 1104 943 c 256,254,255
 1071 910 1071 910 1024 910 c 0,240,241
341 1137 m 256,256,257
 294 1137 294 1137 260 1171 c 0,258,259
 227 1204 227 1204 227 1251 c 256,260,261
 227 1298 227 1298 260 1331 c 0,262,263
 294 1365 294 1365 341 1365 c 256,264,265
 388 1365 388 1365 421 1331 c 0,266,267
 455 1298 455 1298 455 1251 c 256,268,269
 455 1204 455 1204 421 1171 c 0,270,271
 388 1137 388 1137 341 1137 c 256,256,257
568 1137 m 256,272,273
 521 1137 521 1137 488 1171 c 0,274,275
 455 1204 455 1204 455 1251 c 256,276,277
 455 1298 455 1298 488 1331 c 0,278,279
 521 1365 521 1365 568 1365 c 0,280,281
 616 1365 616 1365 649 1331 c 0,282,283
 682 1298 682 1298 682 1251 c 256,284,285
 682 1204 682 1204 649 1171 c 0,286,287
 615 1137 615 1137 568 1137 c 256,272,273
796 1137 m 256,288,289
 749 1137 749 1137 716 1171 c 0,290,291
 682 1204 682 1204 682 1251 c 256,292,293
 682 1298 682 1298 716 1331 c 0,294,295
 749 1365 749 1365 796 1365 c 256,296,297
 843 1365 843 1365 876 1331 c 0,298,299
 910 1298 910 1298 910 1251 c 256,300,301
 910 1204 910 1204 876 1171 c 0,302,303
 843 1137 843 1137 796 1137 c 256,288,289
EndSplineSet
EndChar

StartChar: A
Encoding: 65 65 34
Width: 1365
GlyphClass: 1
Flags: W
LayerCount: 2
Fore
SplineSet
113 0 m 256,0,1
 66 0 66 0 33 33 c 256,2,3
 0 66 0 66 0 113 c 256,4,5
 0 160 0 160 33 194 c 0,6,7
 66 227 66 227 113 227 c 256,8,9
 160 227 160 227 194 194 c 0,10,11
 227 160 227 160 227 113 c 256,12,13
 227 66 227 66 194 33 c 0,14,15
 160 0 160 0 113 0 c 256,0,1
1024 0 m 0,16,17
 976 0 976 0 943 33 c 256,18,19
 910 66 910 66 910 113 c 256,20,21
 910 160 910 160 943 194 c 0,22,23
 976 227 976 227 1024 227 c 0,24,25
 1071 227 1071 227 1104 194 c 0,26,27
 1137 160 1137 160 1137 113 c 256,28,29
 1137 66 1137 66 1104 33 c 256,30,31
 1071 0 1071 0 1024 0 c 0,16,17
113 227 m 256,32,33
 66 227 66 227 33 260 c 0,34,35
 0 294 0 294 0 341 c 256,36,37
 0 388 0 388 33 421 c 0,38,39
 66 455 66 455 113 455 c 256,40,41
 160 455 160 455 194 421 c 0,42,43
 227 388 227 388 227 341 c 256,44,45
 227 294 227 294 194 260 c 0,46,47
 160 227 160 227 113 227 c 256,32,33
1024 227 m 0,48,49
 976 227 976 227 943 260 c 0,50,51
 910 294 910 294 910 341 c 256,52,53
 910 388 910 388 943 421 c 0,54,55
 976 455 976 455 1024 455 c 0,56,57
 1071 455 1071 455 1104 421 c 0,58,59
 1137 388 1137 388 1137 341 c 256,60,61
 1137 294 1137 294 1104 260 c 0,62,63
 1071 227 1071 227 1024 227 c 0,48,49
113 455 m 256,64,65
 66 455 66 455 33 488 c 256,66,67
 0 521 0 521 0 568 c 0,68,69
 0 616 0 616 33 649 c 256,70,71
 66 682 66 682 113 682 c 256,72,73
 160 682 160 682 194 649 c 0,74,75
 227 615 227 615 227 568 c 256,76,77
 227 521 227 521 194 488 c 0,78,79
 160 455 160 455 113 455 c 256,64,65
341 455 m 256,80,81
 294 455 294 455 260 488 c 0,82,83
 227 521 227 521 227 568 c 0,84,85
 227 616 227 616 260 649 c 0,86,87
 294 682 294 682 341 682 c 256,88,89
 388 682 388 682 421 649 c 0,90,91
 455 615 455 615 455 568 c 256,92,93
 455 521 455 521 421 488 c 0,94,95
 388 455 388 455 341 455 c 256,80,81
568 455 m 256,96,97
 521 455 521 455 488 488 c 256,98,99
 455 521 455 521 455 568 c 0,100,101
 455 616 455 616 488 649 c 256,102,103
 521 682 521 682 568 682 c 0,104,105
 616 682 616 682 649 649 c 0,106,107
 682 615 682 615 682 568 c 256,108,109
 682 521 682 521 649 488 c 0,110,111
 615 455 615 455 568 455 c 256,96,97
796 455 m 256,112,113
 749 455 749 455 716 488 c 0,114,115
 682 521 682 521 682 568 c 0,116,117
 682 616 682 616 716 649 c 0,118,119
 749 682 749 682 796 682 c 256,120,121
 843 682 843 682 876 649 c 0,122,123
 910 615 910 615 910 568 c 256,124,125
 910 521 910 521 876 488 c 0,126,127
 843 455 843 455 796 455 c 256,112,113
1024 455 m 0,128,129
 976 455 976 455 943 488 c 256,130,131
 910 521 910 521 910 568 c 0,132,133
 910 616 910 616 943 649 c 256,134,135
 976 682 976 682 1024 682 c 0,136,137
 1071 682 1071 682 1104 649 c 0,138,139
 1137 615 1137 615 1137 568 c 256,140,141
 1137 521 1137 521 1104 488 c 256,142,143
 1071 455 1071 455 1024 455 c 0,128,129
113 682 m 256,144,145
 66 682 66 682 33 716 c 0,146,147
 0 749 0 749 0 796 c 256,148,149
 0 843 0 843 33 876 c 0,150,151
 66 910 66 910 113 910 c 256,152,153
 160 910 160 910 194 876 c 0,154,155
 227 843 227 843 227 796 c 256,156,157
 227 749 227 749 194 716 c 0,158,159
 160 682 160 682 113 682 c 256,144,145
1024 682 m 0,160,161
 976 682 976 682 943 716 c 0,162,163
 910 749 910 749 910 796 c 256,164,165
 910 843 910 843 943 876 c 0,166,167
 976 910 976 910 1024 910 c 0,168,169
 1071 910 1071 910 1104 876 c 0,170,171
 1137 843 1137 843 1137 796 c 256,172,173
 1137 749 1137 749 1104 716 c 0,174,175
 1071 682 1071 682 1024 682 c 0,160,161
113 910 m 256,176,177
 66 910 66 910 33 943 c 256,178,179
 0 976 0 976 0 1024 c 0,180,181
 0 1071 0 1071 33 1104 c 256,182,183
 66 1137 66 1137 113 1137 c 256,184,185
 160 1137 160 1137 194 1104 c 0,186,187
 227 1071 227 1071 227 1024 c 0,188,189
 227 976 227 976 194 943 c 0,190,191
 160 910 160 910 113 910 c 256,176,177
1024 910 m 0,192,193
 976 910 976 910 943 943 c 256,194,195
 910 976 910 976 910 1024 c 0,196,197
 910 1071 910 1071 943 1104 c 256,198,199
 976 1137 976 1137 1024 1137 c 0,200,201
 1071 1137 1071 1137 1104 1104 c 256,202,203
 1137 1071 1137 1071 1137 1024 c 0,204,205
 1137 976 1137 976 1104 943 c 256,206,207
 1071 910 1071 910 1024 910 c 0,192,193
341 1137 m 256,208,209
 294 1137 294 1137 260 1171 c 0,210,211
 227 1204 227 1204 227 1251 c 256,212,213
 227 1298 227 1298 260 1331 c 0,214,215
 294 1365 294 1365 341 1365 c 256,216,217
 388 1365 388 1365 421 1331 c 0,218,219
 455 1298 455 1298 455 1251 c 256,220,221
 455 1204 455 1204 421 1171 c 0,222,223
 388 1137 388 1137 341 1137 c 256,208,209
796 1137 m 256,224,225
 749 1137 749 1137 716 1171 c 0,226,227
 682 1204 682 1204 682 1251 c 256,228,229
 682 1298 682 1298 716 1331 c 0,230,231
 749 1365 749 1365 796 1365 c 256,232,233
 843 1365 843 1365 876 1331 c 0,234,235
 910 1298 910 1298 910 1251 c 256,236,237
 910 1204 910 1204 876 1171 c 0,238,239
 843 1137 843 1137 796 1137 c 256,224,225
568 1365 m 256,240,241
 521 1365 521 1365 488 1398 c 0,242,243
 455 1432 455 1432 455 1479 c 256,244,245
 455 1526 455 1526 488 1559 c 256,246,247
 521 1592 521 1592 568 1592 c 0,248,249
 616 1592 616 1592 649 1559 c 256,250,251
 682 1526 682 1526 682 1479 c 0,252,253
 682 1431 682 1431 649 1398 c 0,254,255
 615 1365 615 1365 568 1365 c 256,240,241
EndSplineSet
EndChar

StartChar: B
Encoding: 66 66 35
Width: 1365
GlyphClass: 1
Flags: W
LayerCount: 2
Fore
SplineSet
113 0 m 256,0,1
 66 0 66 0 33 33 c 256,2,3
 0 66 0 66 0 113 c 256,4,5
 0 160 0 160 33 194 c 0,6,7
 66 227 66 227 113 227 c 256,8,9
 160 227 160 227 194 194 c 0,10,11
 227 160 227 160 227 113 c 256,12,13
 227 66 227 66 194 33 c 0,14,15
 160 0 160 0 113 0 c 256,0,1
341 0 m 256,16,17
 294 0 294 0 260 33 c 0,18,19
 227 66 227 66 227 113 c 256,20,21
 227 160 227 160 260 194 c 0,22,23
 294 227 294 227 341 227 c 256,24,25
 388 227 388 227 421 194 c 0,26,27
 455 160 455 160 455 113 c 256,28,29
 455 66 455 66 421 33 c 0,30,31
 388 0 388 0 341 0 c 256,16,17
568 0 m 256,32,33
 521 0 521 0 488 33 c 256,34,35
 455 66 455 66 455 113 c 256,36,37
 455 160 455 160 488 194 c 0,38,39
 521 227 521 227 568 227 c 0,40,41
 616 227 616 227 649 194 c 0,42,43
 682 160 682 160 682 113 c 256,44,45
 682 66 682 66 649 33 c 0,46,47
 615 0 615 0 568 0 c 256,32,33
796 0 m 256,48,49
 749 0 749 0 716 33 c 0,50,51
 682 66 682 66 682 113 c 256,52,53
 682 160 682 160 716 194 c 0,54,55
 749 227 749 227 796 227 c 256,56,57
 843 227 843 227 876 194 c 0,58,59
 910 160 910 160 910 113 c 256,60,61
 910 66 910 66 876 33 c 0,62,63
 843 0 843 0 796 0 c 256,48,49
113 227 m 256,64,65
 66 227 66 227 33 260 c 0,66,67
 0 294 0 294 0 341 c 256,68,69
 0 388 0 388 33 421 c 0,70,71
 66 455 66 455 113 455 c 256,72,73
 160 455 160 455 194 421 c 0,74,75
 227 388 227 388 227 341 c 256,76,77
 227 294 227 294 194 260 c 0,78,79
 160 227 160 227 113 227 c 256,64,65
1024 227 m 0,80,81
 976 227 976 227 943 260 c 0,82,83
 910 294 910 294 910 341 c 256,84,85
 910 388 910 388 943 421 c 0,86,87
 976 455 976 455 1024 455 c 0,88,89
 1071 455 1071 455 1104 421 c 0,90,91
 1137 388 1137 388 1137 341 c 256,92,93
 1137 294 1137 294 1104 260 c 0,94,95
 1071 227 1071 227 1024 227 c 0,80,81
113 455 m 256,96,97
 66 455 66 455 33 488 c 256,98,99
 0 521 0 521 0 568 c 0,100,101
 0 616 0 616 33 649 c 256,102,103
 66 682 66 682 113 682 c 256,104,105
 160 682 160 682 194 649 c 0,106,107
 227 615 227 615 227 568 c 256,108,109
 227 521 227 521 194 488 c 0,110,111
 160 455 160 455 113 455 c 256,96,97
1024 455 m 0,112,113
 976 455 976 455 943 488 c 256,114,115
 910 521 910 521 910 568 c 0,116,117
 910 616 910 616 943 649 c 256,118,119
 976 682 976 682 1024 682 c 0,120,121
 1071 682 1071 682 1104 649 c 0,122,123
 1137 615 1137 615 1137 568 c 256,124,125
 1137 521 1137 521 1104 488 c 256,126,127
 1071 455 1071 455 1024 455 c 0,112,113
113 682 m 256,128,129
 66 682 66 682 33 716 c 0,130,131
 0 749 0 749 0 796 c 256,132,133
 0 843 0 843 33 876 c 0,134,135
 66 910 66 910 113 910 c 256,136,137
 160 910 160 910 194 876 c 0,138,139
 227 843 227 843 227 796 c 256,140,141
 227 749 227 749 194 716 c 0,142,143
 160 682 160 682 113 682 c 256,128,129
341 682 m 256,144,145
 294 682 294 682 260 716 c 0,146,147
 227 749 227 749 227 796 c 256,148,149
 227 843 227 843 260 876 c 0,150,151
 294 910 294 910 341 910 c 256,152,153
 388 910 388 910 421 876 c 0,154,155
 455 843 455 843 455 796 c 256,156,157
 455 749 455 749 421 716 c 0,158,159
 388 682 388 682 341 682 c 256,144,145
568 682 m 256,160,161
 521 682 521 682 488 716 c 0,162,163
 455 749 455 749 455 796 c 256,164,165
 455 843 455 843 488 876 c 0,166,167
 521 910 521 910 568 910 c 0,168,169
 616 910 616 910 649 876 c 0,170,171
 682 843 682 843 682 796 c 256,172,173
 682 749 682 749 649 716 c 0,174,175
 615 682 615 682 568 682 c 256,160,161
796 682 m 256,176,177
 749 682 749 682 716 716 c 0,178,179
 682 749 682 749 682 796 c 256,180,181
 682 843 682 843 716 876 c 0,182,183
 749 910 749 910 796 910 c 256,184,185
 843 910 843 910 876 876 c 0,186,187
 910 843 910 843 910 796 c 256,188,189
 910 749 910 749 876 716 c 0,190,191
 843 682 843 682 796 682 c 256,176,177
113 910 m 256,192,193
 66 910 66 910 33 943 c 256,194,195
 0 976 0 976 0 1024 c 0,196,197
 0 1071 0 1071 33 1104 c 256,198,199
 66 1137 66 1137 113 1137 c 256,200,201
 160 1137 160 1137 194 1104 c 0,202,203
 227 1071 227 1071 227 1024 c 0,204,205
 227 976 227 976 194 943 c 0,206,207
 160 910 160 910 113 910 c 256,192,193
1024 910 m 0,208,209
 976 910 976 910 943 943 c 256,210,211
 910 976 910 976 910 1024 c 0,212,213
 910 1071 910 1071 943 1104 c 256,214,215
 976 1137 976 1137 1024 1137 c 0,216,217
 1071 1137 1071 1137 1104 1104 c 256,218,219
 1137 1071 1137 1071 1137 1024 c 0,220,221
 1137 976 1137 976 1104 943 c 256,222,223
 1071 910 1071 910 1024 910 c 0,208,209
113 1137 m 256,224,225
 66 1137 66 1137 33 1171 c 0,226,227
 0 1204 0 1204 0 1251 c 256,228,229
 0 1298 0 1298 33 1331 c 0,230,231
 66 1365 66 1365 113 1365 c 256,232,233
 160 1365 160 1365 194 1331 c 0,234,235
 227 1298 227 1298 227 1251 c 256,236,237
 227 1204 227 1204 194 1171 c 0,238,239
 160 1137 160 1137 113 1137 c 256,224,225
1024 1137 m 0,240,241
 976 1137 976 1137 943 1171 c 0,242,243
 910 1204 910 1204 910 1251 c 256,244,245
 910 1298 910 1298 943 1331 c 0,246,247
 976 1365 976 1365 1024 1365 c 0,248,249
 1071 1365 1071 1365 1104 1331 c 0,250,251
 1137 1298 1137 1298 1137 1251 c 256,252,253
 1137 1204 1137 1204 1104 1171 c 0,254,255
 1071 1137 1071 1137 1024 1137 c 0,240,241
113 1365 m 256,256,257
 66 1365 66 1365 33 1398 c 0,258,259
 0 1432 0 1432 0 1479 c 256,260,261
 0 1526 0 1526 33 1559 c 256,262,263
 66 1592 66 1592 113 1592 c 256,264,265
 160 1592 160 1592 194 1559 c 0,266,267
 227 1526 227 1526 227 1479 c 0,268,269
 227 1431 227 1431 194 1398 c 0,270,271
 160 1365 160 1365 113 1365 c 256,256,257
341 1365 m 256,272,273
 294 1365 294 1365 260 1398 c 0,274,275
 227 1432 227 1432 227 1479 c 256,276,277
 227 1526 227 1526 260 1559 c 0,278,279
 294 1592 294 1592 341 1592 c 256,280,281
 388 1592 388 1592 421 1559 c 0,282,283
 455 1526 455 1526 455 1479 c 0,284,285
 455 1431 455 1431 421 1398 c 0,286,287
 388 1365 388 1365 341 1365 c 256,272,273
568 1365 m 256,288,289
 521 1365 521 1365 488 1398 c 0,290,291
 455 1432 455 1432 455 1479 c 256,292,293
 455 1526 455 1526 488 1559 c 256,294,295
 521 1592 521 1592 568 1592 c 0,296,297
 616 1592 616 1592 649 1559 c 256,298,299
 682 1526 682 1526 682 1479 c 0,300,301
 682 1431 682 1431 649 1398 c 0,302,303
 615 1365 615 1365 568 1365 c 256,288,289
796 1365 m 256,304,305
 749 1365 749 1365 716 1398 c 0,306,307
 682 1432 682 1432 682 1479 c 256,308,309
 682 1526 682 1526 716 1559 c 0,310,311
 749 1592 749 1592 796 1592 c 256,312,313
 843 1592 843 1592 876 1559 c 0,314,315
 910 1526 910 1526 910 1479 c 0,316,317
 910 1431 910 1431 876 1398 c 0,318,319
 843 1365 843 1365 796 1365 c 256,304,305
EndSplineSet
EndChar

StartChar: C
Encoding: 67 67 36
Width: 1365
GlyphClass: 1
Flags: W
LayerCount: 2
Fore
SplineSet
341 0 m 256,0,1
 294 0 294 0 260 33 c 0,2,3
 227 66 227 66 227 113 c 256,4,5
 227 160 227 160 260 194 c 0,6,7
 294 227 294 227 341 227 c 256,8,9
 388 227 388 227 421 194 c 0,10,11
 455 160 455 160 455 113 c 256,12,13
 455 66 455 66 421 33 c 0,14,15
 388 0 388 0 341 0 c 256,0,1
568 0 m 256,16,17
 521 0 521 0 488 33 c 256,18,19
 455 66 455 66 455 113 c 256,20,21
 455 160 455 160 488 194 c 0,22,23
 521 227 521 227 568 227 c 0,24,25
 616 227 616 227 649 194 c 0,26,27
 682 160 682 160 682 113 c 256,28,29
 682 66 682 66 649 33 c 0,30,31
 615 0 615 0 568 0 c 256,16,17
796 0 m 256,32,33
 749 0 749 0 716 33 c 0,34,35
 682 66 682 66 682 113 c 256,36,37
 682 160 682 160 716 194 c 0,38,39
 749 227 749 227 796 227 c 256,40,41
 843 227 843 227 876 194 c 0,42,43
 910 160 910 160 910 113 c 256,44,45
 910 66 910 66 876 33 c 0,46,47
 843 0 843 0 796 0 c 256,32,33
113 227 m 256,48,49
 66 227 66 227 33 260 c 0,50,51
 0 294 0 294 0 341 c 256,52,53
 0 388 0 388 33 421 c 0,54,55
 66 455 66 455 113 455 c 256,56,57
 160 455 160 455 194 421 c 0,58,59
 227 388 227 388 227 341 c 256,60,61
 227 294 227 294 194 260 c 0,62,63
 160 227 160 227 113 227 c 256,48,49
1024 227 m 0,64,65
 976 227 976 227 943 260 c 0,66,67
 910 294 910 294 910 341 c 256,68,69
 910 388 910 388 943 421 c 0,70,71
 976 455 976 455 1024 455 c 0,72,73
 1071 455 1071 455 1104 421 c 0,74,75
 1137 388 1137 388 1137 341 c 256,76,77
 1137 294 1137 294 1104 260 c 0,78,79
 1071 227 1071 227 1024 227 c 0,64,65
113 455 m 256,80,81
 66 455 66 455 33 488 c 256,82,83
 0 521 0 521 0 568 c 0,84,85
 0 616 0 616 33 649 c 256,86,87
 66 682 66 682 113 682 c 256,88,89
 160 682 160 682 194 649 c 0,90,91
 227 615 227 615 227 568 c 256,92,93
 227 521 227 521 194 488 c 0,94,95
 160 455 160 455 113 455 c 256,80,81
113 682 m 256,96,97
 66 682 66 682 33 716 c 0,98,99
 0 749 0 749 0 796 c 256,100,101
 0 843 0 843 33 876 c 0,102,103
 66 910 66 910 113 910 c 256,104,105
 160 910 160 910 194 876 c 0,106,107
 227 843 227 843 227 796 c 256,108,109
 227 749 227 749 194 716 c 0,110,111
 160 682 160 682 113 682 c 256,96,97
113 910 m 256,112,113
 66 910 66 910 33 943 c 256,114,115
 0 976 0 976 0 1024 c 0,116,117
 0 1071 0 1071 33 1104 c 256,118,119
 66 1137 66 1137 113 1137 c 256,120,121
 160 1137 160 1137 194 1104 c 0,122,123
 227 1071 227 1071 227 1024 c 0,124,125
 227 976 227 976 194 943 c 0,126,127
 160 910 160 910 113 910 c 256,112,113
113 1137 m 256,128,129
 66 1137 66 1137 33 1171 c 0,130,131
 0 1204 0 1204 0 1251 c 256,132,133
 0 1298 0 1298 33 1331 c 0,134,135
 66 1365 66 1365 113 1365 c 256,136,137
 160 1365 160 1365 194 1331 c 0,138,139
 227 1298 227 1298 227 1251 c 256,140,141
 227 1204 227 1204 194 1171 c 0,142,143
 160 1137 160 1137 113 1137 c 256,128,129
1024 1137 m 0,144,145
 976 1137 976 1137 943 1171 c 0,146,147
 910 1204 910 1204 910 1251 c 256,148,149
 910 1298 910 1298 943 1331 c 0,150,151
 976 1365 976 1365 1024 1365 c 0,152,153
 1071 1365 1071 1365 1104 1331 c 0,154,155
 1137 1298 1137 1298 1137 1251 c 256,156,157
 1137 1204 1137 1204 1104 1171 c 0,158,159
 1071 1137 1071 1137 1024 1137 c 0,144,145
341 1365 m 256,160,161
 294 1365 294 1365 260 1398 c 0,162,163
 227 1432 227 1432 227 1479 c 256,164,165
 227 1526 227 1526 260 1559 c 0,166,167
 294 1592 294 1592 341 1592 c 256,168,169
 388 1592 388 1592 421 1559 c 0,170,171
 455 1526 455 1526 455 1479 c 0,172,173
 455 1431 455 1431 421 1398 c 0,174,175
 388 1365 388 1365 341 1365 c 256,160,161
568 1365 m 256,176,177
 521 1365 521 1365 488 1398 c 0,178,179
 455 1432 455 1432 455 1479 c 256,180,181
 455 1526 455 1526 488 1559 c 256,182,183
 521 1592 521 1592 568 1592 c 0,184,185
 616 1592 616 1592 649 1559 c 256,186,187
 682 1526 682 1526 682 1479 c 0,188,189
 682 1431 682 1431 649 1398 c 0,190,191
 615 1365 615 1365 568 1365 c 256,176,177
796 1365 m 256,192,193
 749 1365 749 1365 716 1398 c 0,194,195
 682 1432 682 1432 682 1479 c 256,196,197
 682 1526 682 1526 716 1559 c 0,198,199
 749 1592 749 1592 796 1592 c 256,200,201
 843 1592 843 1592 876 1559 c 0,202,203
 910 1526 910 1526 910 1479 c 0,204,205
 910 1431 910 1431 876 1398 c 0,206,207
 843 1365 843 1365 796 1365 c 256,192,193
EndSplineSet
EndChar

StartChar: D
Encoding: 68 68 37
Width: 1365
GlyphClass: 1
Flags: W
LayerCount: 2
Fore
SplineSet
113 0 m 256,0,1
 66 0 66 0 33 33 c 256,2,3
 0 66 0 66 0 113 c 256,4,5
 0 160 0 160 33 194 c 0,6,7
 66 227 66 227 113 227 c 256,8,9
 160 227 160 227 194 194 c 0,10,11
 227 160 227 160 227 113 c 256,12,13
 227 66 227 66 194 33 c 0,14,15
 160 0 160 0 113 0 c 256,0,1
341 0 m 256,16,17
 294 0 294 0 260 33 c 0,18,19
 227 66 227 66 227 113 c 256,20,21
 227 160 227 160 260 194 c 0,22,23
 294 227 294 227 341 227 c 256,24,25
 388 227 388 227 421 194 c 0,26,27
 455 160 455 160 455 113 c 256,28,29
 455 66 455 66 421 33 c 0,30,31
 388 0 388 0 341 0 c 256,16,17
568 0 m 256,32,33
 521 0 521 0 488 33 c 256,34,35
 455 66 455 66 455 113 c 256,36,37
 455 160 455 160 488 194 c 0,38,39
 521 227 521 227 568 227 c 0,40,41
 616 227 616 227 649 194 c 0,42,43
 682 160 682 160 682 113 c 256,44,45
 682 66 682 66 649 33 c 0,46,47
 615 0 615 0 568 0 c 256,32,33
796 0 m 256,48,49
 749 0 749 0 716 33 c 0,50,51
 682 66 682 66 682 113 c 256,52,53
 682 160 682 160 716 194 c 0,54,55
 749 227 749 227 796 227 c 256,56,57
 843 227 843 227 876 194 c 0,58,59
 910 160 910 160 910 113 c 256,60,61
 910 66 910 66 876 33 c 0,62,63
 843 0 843 0 796 0 c 256,48,49
113 227 m 256,64,65
 66 227 66 227 33 260 c 0,66,67
 0 294 0 294 0 341 c 256,68,69
 0 388 0 388 33 421 c 0,70,71
 66 455 66 455 113 455 c 256,72,73
 160 455 160 455 194 421 c 0,74,75
 227 388 227 388 227 341 c 256,76,77
 227 294 227 294 194 260 c 0,78,79
 160 227 160 227 113 227 c 256,64,65
1024 227 m 0,80,81
 976 227 976 227 943 260 c 0,82,83
 910 294 910 294 910 341 c 256,84,85
 910 388 910 388 943 421 c 0,86,87
 976 455 976 455 1024 455 c 0,88,89
 1071 455 1071 455 1104 421 c 0,90,91
 1137 388 1137 388 1137 341 c 256,92,93
 1137 294 1137 294 1104 260 c 0,94,95
 1071 227 1071 227 1024 227 c 0,80,81
113 455 m 256,96,97
 66 455 66 455 33 488 c 256,98,99
 0 521 0 521 0 568 c 0,100,101
 0 616 0 616 33 649 c 256,102,103
 66 682 66 682 113 682 c 256,104,105
 160 682 160 682 194 649 c 0,106,107
 227 615 227 615 227 568 c 256,108,109
 227 521 227 521 194 488 c 0,110,111
 160 455 160 455 113 455 c 256,96,97
1024 455 m 0,112,113
 976 455 976 455 943 488 c 256,114,115
 910 521 910 521 910 568 c 0,116,117
 910 616 910 616 943 649 c 256,118,119
 976 682 976 682 1024 682 c 0,120,121
 1071 682 1071 682 1104 649 c 0,122,123
 1137 615 1137 615 1137 568 c 256,124,125
 1137 521 1137 521 1104 488 c 256,126,127
 1071 455 1071 455 1024 455 c 0,112,113
113 682 m 256,128,129
 66 682 66 682 33 716 c 0,130,131
 0 749 0 749 0 796 c 256,132,133
 0 843 0 843 33 876 c 0,134,135
 66 910 66 910 113 910 c 256,136,137
 160 910 160 910 194 876 c 0,138,139
 227 843 227 843 227 796 c 256,140,141
 227 749 227 749 194 716 c 0,142,143
 160 682 160 682 113 682 c 256,128,129
1024 682 m 0,144,145
 976 682 976 682 943 716 c 0,146,147
 910 749 910 749 910 796 c 256,148,149
 910 843 910 843 943 876 c 0,150,151
 976 910 976 910 1024 910 c 0,152,153
 1071 910 1071 910 1104 876 c 0,154,155
 1137 843 1137 843 1137 796 c 256,156,157
 1137 749 1137 749 1104 716 c 0,158,159
 1071 682 1071 682 1024 682 c 0,144,145
113 910 m 256,160,161
 66 910 66 910 33 943 c 256,162,163
 0 976 0 976 0 1024 c 0,164,165
 0 1071 0 1071 33 1104 c 256,166,167
 66 1137 66 1137 113 1137 c 256,168,169
 160 1137 160 1137 194 1104 c 0,170,171
 227 1071 227 1071 227 1024 c 0,172,173
 227 976 227 976 194 943 c 0,174,175
 160 910 160 910 113 910 c 256,160,161
1024 910 m 0,176,177
 976 910 976 910 943 943 c 256,178,179
 910 976 910 976 910 1024 c 0,180,181
 910 1071 910 1071 943 1104 c 256,182,183
 976 1137 976 1137 1024 1137 c 0,184,185
 1071 1137 1071 1137 1104 1104 c 256,186,187
 1137 1071 1137 1071 1137 1024 c 0,188,189
 1137 976 1137 976 1104 943 c 256,190,191
 1071 910 1071 910 1024 910 c 0,176,177
113 1137 m 256,192,193
 66 1137 66 1137 33 1171 c 0,194,195
 0 1204 0 1204 0 1251 c 256,196,197
 0 1298 0 1298 33 1331 c 0,198,199
 66 1365 66 1365 113 1365 c 256,200,201
 160 1365 160 1365 194 1331 c 0,202,203
 227 1298 227 1298 227 1251 c 256,204,205
 227 1204 227 1204 194 1171 c 0,206,207
 160 1137 160 1137 113 1137 c 256,192,193
1024 1137 m 0,208,209
 976 1137 976 1137 943 1171 c 0,210,211
 910 1204 910 1204 910 1251 c 256,212,213
 910 1298 910 1298 943 1331 c 0,214,215
 976 1365 976 1365 1024 1365 c 0,216,217
 1071 1365 1071 1365 1104 1331 c 0,218,219
 1137 1298 1137 1298 1137 1251 c 256,220,221
 1137 1204 1137 1204 1104 1171 c 0,222,223
 1071 1137 1071 1137 1024 1137 c 0,208,209
113 1365 m 256,224,225
 66 1365 66 1365 33 1398 c 0,226,227
 0 1432 0 1432 0 1479 c 256,228,229
 0 1526 0 1526 33 1559 c 256,230,231
 66 1592 66 1592 113 1592 c 256,232,233
 160 1592 160 1592 194 1559 c 0,234,235
 227 1526 227 1526 227 1479 c 0,236,237
 227 1431 227 1431 194 1398 c 0,238,239
 160 1365 160 1365 113 1365 c 256,224,225
341 1365 m 256,240,241
 294 1365 294 1365 260 1398 c 0,242,243
 227 1432 227 1432 227 1479 c 256,244,245
 227 1526 227 1526 260 1559 c 0,246,247
 294 1592 294 1592 341 1592 c 256,248,249
 388 1592 388 1592 421 1559 c 0,250,251
 455 1526 455 1526 455 1479 c 0,252,253
 455 1431 455 1431 421 1398 c 0,254,255
 388 1365 388 1365 341 1365 c 256,240,241
568 1365 m 256,256,257
 521 1365 521 1365 488 1398 c 0,258,259
 455 1432 455 1432 455 1479 c 256,260,261
 455 1526 455 1526 488 1559 c 256,262,263
 521 1592 521 1592 568 1592 c 0,264,265
 616 1592 616 1592 649 1559 c 256,266,267
 682 1526 682 1526 682 1479 c 0,268,269
 682 1431 682 1431 649 1398 c 0,270,271
 615 1365 615 1365 568 1365 c 256,256,257
796 1365 m 256,272,273
 749 1365 749 1365 716 1398 c 0,274,275
 682 1432 682 1432 682 1479 c 256,276,277
 682 1526 682 1526 716 1559 c 0,278,279
 749 1592 749 1592 796 1592 c 256,280,281
 843 1592 843 1592 876 1559 c 0,282,283
 910 1526 910 1526 910 1479 c 0,284,285
 910 1431 910 1431 876 1398 c 0,286,287
 843 1365 843 1365 796 1365 c 256,272,273
EndSplineSet
EndChar

StartChar: E
Encoding: 69 69 38
Width: 1365
GlyphClass: 1
Flags: W
LayerCount: 2
Fore
SplineSet
113 0 m 256,0,1
 66 0 66 0 33 33 c 256,2,3
 0 66 0 66 0 113 c 256,4,5
 0 160 0 160 33 194 c 0,6,7
 66 227 66 227 113 227 c 256,8,9
 160 227 160 227 194 194 c 0,10,11
 227 160 227 160 227 113 c 256,12,13
 227 66 227 66 194 33 c 0,14,15
 160 0 160 0 113 0 c 256,0,1
341 0 m 256,16,17
 294 0 294 0 260 33 c 0,18,19
 227 66 227 66 227 113 c 256,20,21
 227 160 227 160 260 194 c 0,22,23
 294 227 294 227 341 227 c 256,24,25
 388 227 388 227 421 194 c 0,26,27
 455 160 455 160 455 113 c 256,28,29
 455 66 455 66 421 33 c 0,30,31
 388 0 388 0 341 0 c 256,16,17
568 0 m 256,32,33
 521 0 521 0 488 33 c 256,34,35
 455 66 455 66 455 113 c 256,36,37
 455 160 455 160 488 194 c 0,38,39
 521 227 521 227 568 227 c 0,40,41
 616 227 616 227 649 194 c 0,42,43
 682 160 682 160 682 113 c 256,44,45
 682 66 682 66 649 33 c 0,46,47
 615 0 615 0 568 0 c 256,32,33
796 0 m 256,48,49
 749 0 749 0 716 33 c 0,50,51
 682 66 682 66 682 113 c 256,52,53
 682 160 682 160 716 194 c 0,54,55
 749 227 749 227 796 227 c 256,56,57
 843 227 843 227 876 194 c 0,58,59
 910 160 910 160 910 113 c 256,60,61
 910 66 910 66 876 33 c 0,62,63
 843 0 843 0 796 0 c 256,48,49
1024 0 m 0,64,65
 976 0 976 0 943 33 c 256,66,67
 910 66 910 66 910 113 c 256,68,69
 910 160 910 160 943 194 c 0,70,71
 976 227 976 227 1024 227 c 0,72,73
 1071 227 1071 227 1104 194 c 0,74,75
 1137 160 1137 160 1137 113 c 256,76,77
 1137 66 1137 66 1104 33 c 256,78,79
 1071 0 1071 0 1024 0 c 0,64,65
113 227 m 256,80,81
 66 227 66 227 33 260 c 0,82,83
 0 294 0 294 0 341 c 256,84,85
 0 388 0 388 33 421 c 0,86,87
 66 455 66 455 113 455 c 256,88,89
 160 455 160 455 194 421 c 0,90,91
 227 388 227 388 227 341 c 256,92,93
 227 294 227 294 194 260 c 0,94,95
 160 227 160 227 113 227 c 256,80,81
113 455 m 256,96,97
 66 455 66 455 33 488 c 256,98,99
 0 521 0 521 0 568 c 0,100,101
 0 616 0 616 33 649 c 256,102,103
 66 682 66 682 113 682 c 256,104,105
 160 682 160 682 194 649 c 0,106,107
 227 615 227 615 227 568 c 256,108,109
 227 521 227 521 194 488 c 0,110,111
 160 455 160 455 113 455 c 256,96,97
113 682 m 256,112,113
 66 682 66 682 33 716 c 0,114,115
 0 749 0 749 0 796 c 256,116,117
 0 843 0 843 33 876 c 0,118,119
 66 910 66 910 113 910 c 256,120,121
 160 910 160 910 194 876 c 0,122,123
 227 843 227 843 227 796 c 256,124,125
 227 749 227 749 194 716 c 0,126,127
 160 682 160 682 113 682 c 256,112,113
341 682 m 256,128,129
 294 682 294 682 260 716 c 0,130,131
 227 749 227 749 227 796 c 256,132,133
 227 843 227 843 260 876 c 0,134,135
 294 910 294 910 341 910 c 256,136,137
 388 910 388 910 421 876 c 0,138,139
 455 843 455 843 455 796 c 256,140,141
 455 749 455 749 421 716 c 0,142,143
 388 682 388 682 341 682 c 256,128,129
568 682 m 256,144,145
 521 682 521 682 488 716 c 0,146,147
 455 749 455 749 455 796 c 256,148,149
 455 843 455 843 488 876 c 0,150,151
 521 910 521 910 568 910 c 0,152,153
 616 910 616 910 649 876 c 0,154,155
 682 843 682 843 682 796 c 256,156,157
 682 749 682 749 649 716 c 0,158,159
 615 682 615 682 568 682 c 256,144,145
796 682 m 256,160,161
 749 682 749 682 716 716 c 0,162,163
 682 749 682 749 682 796 c 256,164,165
 682 843 682 843 716 876 c 0,166,167
 749 910 749 910 796 910 c 256,168,169
 843 910 843 910 876 876 c 0,170,171
 910 843 910 843 910 796 c 256,172,173
 910 749 910 749 876 716 c 0,174,175
 843 682 843 682 796 682 c 256,160,161
113 910 m 256,176,177
 66 910 66 910 33 943 c 256,178,179
 0 976 0 976 0 1024 c 0,180,181
 0 1071 0 1071 33 1104 c 256,182,183
 66 1137 66 1137 113 1137 c 256,184,185
 160 1137 160 1137 194 1104 c 0,186,187
 227 1071 227 1071 227 1024 c 0,188,189
 227 976 227 976 194 943 c 0,190,191
 160 910 160 910 113 910 c 256,176,177
113 1137 m 256,192,193
 66 1137 66 1137 33 1171 c 0,194,195
 0 1204 0 1204 0 1251 c 256,196,197
 0 1298 0 1298 33 1331 c 0,198,199
 66 1365 66 1365 113 1365 c 256,200,201
 160 1365 160 1365 194 1331 c 0,202,203
 227 1298 227 1298 227 1251 c 256,204,205
 227 1204 227 1204 194 1171 c 0,206,207
 160 1137 160 1137 113 1137 c 256,192,193
113 1365 m 256,208,209
 66 1365 66 1365 33 1398 c 0,210,211
 0 1432 0 1432 0 1479 c 256,212,213
 0 1526 0 1526 33 1559 c 256,214,215
 66 1592 66 1592 113 1592 c 256,216,217
 160 1592 160 1592 194 1559 c 0,218,219
 227 1526 227 1526 227 1479 c 0,220,221
 227 1431 227 1431 194 1398 c 0,222,223
 160 1365 160 1365 113 1365 c 256,208,209
341 1365 m 256,224,225
 294 1365 294 1365 260 1398 c 0,226,227
 227 1432 227 1432 227 1479 c 256,228,229
 227 1526 227 1526 260 1559 c 0,230,231
 294 1592 294 1592 341 1592 c 256,232,233
 388 1592 388 1592 421 1559 c 0,234,235
 455 1526 455 1526 455 1479 c 0,236,237
 455 1431 455 1431 421 1398 c 0,238,239
 388 1365 388 1365 341 1365 c 256,224,225
568 1365 m 256,240,241
 521 1365 521 1365 488 1398 c 0,242,243
 455 1432 455 1432 455 1479 c 256,244,245
 455 1526 455 1526 488 1559 c 256,246,247
 521 1592 521 1592 568 1592 c 0,248,249
 616 1592 616 1592 649 1559 c 256,250,251
 682 1526 682 1526 682 1479 c 0,252,253
 682 1431 682 1431 649 1398 c 0,254,255
 615 1365 615 1365 568 1365 c 256,240,241
796 1365 m 256,256,257
 749 1365 749 1365 716 1398 c 0,258,259
 682 1432 682 1432 682 1479 c 256,260,261
 682 1526 682 1526 716 1559 c 0,262,263
 749 1592 749 1592 796 1592 c 256,264,265
 843 1592 843 1592 876 1559 c 0,266,267
 910 1526 910 1526 910 1479 c 0,268,269
 910 1431 910 1431 876 1398 c 0,270,271
 843 1365 843 1365 796 1365 c 256,256,257
1024 1365 m 0,272,273
 976 1365 976 1365 943 1398 c 0,274,275
 910 1432 910 1432 910 1479 c 256,276,277
 910 1526 910 1526 943 1559 c 256,278,279
 976 1592 976 1592 1024 1592 c 0,280,281
 1071 1592 1071 1592 1104 1559 c 256,282,283
 1137 1526 1137 1526 1137 1479 c 0,284,285
 1137 1431 1137 1431 1104 1398 c 256,286,287
 1071 1365 1071 1365 1024 1365 c 0,272,273
EndSplineSet
EndChar

StartChar: F
Encoding: 70 70 39
Width: 1365
GlyphClass: 1
Flags: W
LayerCount: 2
Fore
SplineSet
113 0 m 256,0,1
 66 0 66 0 33 33 c 256,2,3
 0 66 0 66 0 113 c 256,4,5
 0 160 0 160 33 194 c 0,6,7
 66 227 66 227 113 227 c 256,8,9
 160 227 160 227 194 194 c 0,10,11
 227 160 227 160 227 113 c 256,12,13
 227 66 227 66 194 33 c 0,14,15
 160 0 160 0 113 0 c 256,0,1
113 227 m 256,16,17
 66 227 66 227 33 260 c 0,18,19
 0 294 0 294 0 341 c 256,20,21
 0 388 0 388 33 421 c 0,22,23
 66 455 66 455 113 455 c 256,24,25
 160 455 160 455 194 421 c 0,26,27
 227 388 227 388 227 341 c 256,28,29
 227 294 227 294 194 260 c 0,30,31
 160 227 160 227 113 227 c 256,16,17
113 455 m 256,32,33
 66 455 66 455 33 488 c 256,34,35
 0 521 0 521 0 568 c 0,36,37
 0 616 0 616 33 649 c 256,38,39
 66 682 66 682 113 682 c 256,40,41
 160 682 160 682 194 649 c 0,42,43
 227 615 227 615 227 568 c 256,44,45
 227 521 227 521 194 488 c 0,46,47
 160 455 160 455 113 455 c 256,32,33
113 682 m 256,48,49
 66 682 66 682 33 716 c 0,50,51
 0 749 0 749 0 796 c 256,52,53
 0 843 0 843 33 876 c 0,54,55
 66 910 66 910 113 910 c 256,56,57
 160 910 160 910 194 876 c 0,58,59
 227 843 227 843 227 796 c 256,60,61
 227 749 227 749 194 716 c 0,62,63
 160 682 160 682 113 682 c 256,48,49
341 682 m 256,64,65
 294 682 294 682 260 716 c 0,66,67
 227 749 227 749 227 796 c 256,68,69
 227 843 227 843 260 876 c 0,70,71
 294 910 294 910 341 910 c 256,72,73
 388 910 388 910 421 876 c 0,74,75
 455 843 455 843 455 796 c 256,76,77
 455 749 455 749 421 716 c 0,78,79
 388 682 388 682 341 682 c 256,64,65
568 682 m 256,80,81
 521 682 521 682 488 716 c 0,82,83
 455 749 455 749 455 796 c 256,84,85
 455 843 455 843 488 876 c 0,86,87
 521 910 521 910 568 910 c 0,88,89
 616 910 616 910 649 876 c 0,90,91
 682 843 682 843 682 796 c 256,92,93
 682 749 682 749 649 716 c 0,94,95
 615 682 615 682 568 682 c 256,80,81
796 682 m 256,96,97
 749 682 749 682 716 716 c 0,98,99
 682 749 682 749 682 796 c 256,100,101
 682 843 682 843 716 876 c 0,102,103
 749 910 749 910 796 910 c 256,104,105
 843 910 843 910 876 876 c 0,106,107
 910 843 910 843 910 796 c 256,108,109
 910 749 910 749 876 716 c 0,110,111
 843 682 843 682 796 682 c 256,96,97
113 910 m 256,112,113
 66 910 66 910 33 943 c 256,114,115
 0 976 0 976 0 1024 c 0,116,117
 0 1071 0 1071 33 1104 c 256,118,119
 66 1137 66 1137 113 1137 c 256,120,121
 160 1137 160 1137 194 1104 c 0,122,123
 227 1071 227 1071 227 1024 c 0,124,125
 227 976 227 976 194 943 c 0,126,127
 160 910 160 910 113 910 c 256,112,113
113 1137 m 256,128,129
 66 1137 66 1137 33 1171 c 0,130,131
 0 1204 0 1204 0 1251 c 256,132,133
 0 1298 0 1298 33 1331 c 0,134,135
 66 1365 66 1365 113 1365 c 256,136,137
 160 1365 160 1365 194 1331 c 0,138,139
 227 1298 227 1298 227 1251 c 256,140,141
 227 1204 227 1204 194 1171 c 0,142,143
 160 1137 160 1137 113 1137 c 256,128,129
113 1365 m 256,144,145
 66 1365 66 1365 33 1398 c 0,146,147
 0 1432 0 1432 0 1479 c 256,148,149
 0 1526 0 1526 33 1559 c 256,150,151
 66 1592 66 1592 113 1592 c 256,152,153
 160 1592 160 1592 194 1559 c 0,154,155
 227 1526 227 1526 227 1479 c 0,156,157
 227 1431 227 1431 194 1398 c 0,158,159
 160 1365 160 1365 113 1365 c 256,144,145
341 1365 m 256,160,161
 294 1365 294 1365 260 1398 c 0,162,163
 227 1432 227 1432 227 1479 c 256,164,165
 227 1526 227 1526 260 1559 c 0,166,167
 294 1592 294 1592 341 1592 c 256,168,169
 388 1592 388 1592 421 1559 c 0,170,171
 455 1526 455 1526 455 1479 c 0,172,173
 455 1431 455 1431 421 1398 c 0,174,175
 388 1365 388 1365 341 1365 c 256,160,161
568 1365 m 256,176,177
 521 1365 521 1365 488 1398 c 0,178,179
 455 1432 455 1432 455 1479 c 256,180,181
 455 1526 455 1526 488 1559 c 256,182,183
 521 1592 521 1592 568 1592 c 0,184,185
 616 1592 616 1592 649 1559 c 256,186,187
 682 1526 682 1526 682 1479 c 0,188,189
 682 1431 682 1431 649 1398 c 0,190,191
 615 1365 615 1365 568 1365 c 256,176,177
796 1365 m 256,192,193
 749 1365 749 1365 716 1398 c 0,194,195
 682 1432 682 1432 682 1479 c 256,196,197
 682 1526 682 1526 716 1559 c 0,198,199
 749 1592 749 1592 796 1592 c 256,200,201
 843 1592 843 1592 876 1559 c 0,202,203
 910 1526 910 1526 910 1479 c 0,204,205
 910 1431 910 1431 876 1398 c 0,206,207
 843 1365 843 1365 796 1365 c 256,192,193
1024 1365 m 0,208,209
 976 1365 976 1365 943 1398 c 0,210,211
 910 1432 910 1432 910 1479 c 256,212,213
 910 1526 910 1526 943 1559 c 256,214,215
 976 1592 976 1592 1024 1592 c 0,216,217
 1071 1592 1071 1592 1104 1559 c 256,218,219
 1137 1526 1137 1526 1137 1479 c 0,220,221
 1137 1431 1137 1431 1104 1398 c 256,222,223
 1071 1365 1071 1365 1024 1365 c 0,208,209
EndSplineSet
EndChar

StartChar: G
Encoding: 71 71 40
Width: 1365
GlyphClass: 1
Flags: W
LayerCount: 2
Fore
SplineSet
341 0 m 256,0,1
 294 0 294 0 260 33 c 0,2,3
 227 66 227 66 227 113 c 256,4,5
 227 160 227 160 260 194 c 0,6,7
 294 227 294 227 341 227 c 256,8,9
 388 227 388 227 421 194 c 0,10,11
 455 160 455 160 455 113 c 256,12,13
 455 66 455 66 421 33 c 0,14,15
 388 0 388 0 341 0 c 256,0,1
568 0 m 256,16,17
 521 0 521 0 488 33 c 256,18,19
 455 66 455 66 455 113 c 256,20,21
 455 160 455 160 488 194 c 0,22,23
 521 227 521 227 568 227 c 0,24,25
 616 227 616 227 649 194 c 0,26,27
 682 160 682 160 682 113 c 256,28,29
 682 66 682 66 649 33 c 0,30,31
 615 0 615 0 568 0 c 256,16,17
796 0 m 256,32,33
 749 0 749 0 716 33 c 0,34,35
 682 66 682 66 682 113 c 256,36,37
 682 160 682 160 716 194 c 0,38,39
 749 227 749 227 796 227 c 256,40,41
 843 227 843 227 876 194 c 0,42,43
 910 160 910 160 910 113 c 256,44,45
 910 66 910 66 876 33 c 0,46,47
 843 0 843 0 796 0 c 256,32,33
113 227 m 256,48,49
 66 227 66 227 33 260 c 0,50,51
 0 294 0 294 0 341 c 256,52,53
 0 388 0 388 33 421 c 0,54,55
 66 455 66 455 113 455 c 256,56,57
 160 455 160 455 194 421 c 0,58,59
 227 388 227 388 227 341 c 256,60,61
 227 294 227 294 194 260 c 0,62,63
 160 227 160 227 113 227 c 256,48,49
1024 227 m 0,64,65
 976 227 976 227 943 260 c 0,66,67
 910 294 910 294 910 341 c 256,68,69
 910 388 910 388 943 421 c 0,70,71
 976 455 976 455 1024 455 c 0,72,73
 1071 455 1071 455 1104 421 c 0,74,75
 1137 388 1137 388 1137 341 c 256,76,77
 1137 294 1137 294 1104 260 c 0,78,79
 1071 227 1071 227 1024 227 c 0,64,65
113 455 m 256,80,81
 66 455 66 455 33 488 c 256,82,83
 0 521 0 521 0 568 c 0,84,85
 0 616 0 616 33 649 c 256,86,87
 66 682 66 682 113 682 c 256,88,89
 160 682 160 682 194 649 c 0,90,91
 227 615 227 615 227 568 c 256,92,93
 227 521 227 521 194 488 c 0,94,95
 160 455 160 455 113 455 c 256,80,81
1024 455 m 0,96,97
 976 455 976 455 943 488 c 256,98,99
 910 521 910 521 910 568 c 0,100,101
 910 616 910 616 943 649 c 256,102,103
 976 682 976 682 1024 682 c 0,104,105
 1071 682 1071 682 1104 649 c 0,106,107
 1137 615 1137 615 1137 568 c 256,108,109
 1137 521 1137 521 1104 488 c 256,110,111
 1071 455 1071 455 1024 455 c 0,96,97
113 682 m 256,112,113
 66 682 66 682 33 716 c 0,114,115
 0 749 0 749 0 796 c 256,116,117
 0 843 0 843 33 876 c 0,118,119
 66 910 66 910 113 910 c 256,120,121
 160 910 160 910 194 876 c 0,122,123
 227 843 227 843 227 796 c 256,124,125
 227 749 227 749 194 716 c 0,126,127
 160 682 160 682 113 682 c 256,112,113
568 682 m 256,128,129
 521 682 521 682 488 716 c 0,130,131
 455 749 455 749 455 796 c 256,132,133
 455 843 455 843 488 876 c 0,134,135
 521 910 521 910 568 910 c 0,136,137
 616 910 616 910 649 876 c 0,138,139
 682 843 682 843 682 796 c 256,140,141
 682 749 682 749 649 716 c 0,142,143
 615 682 615 682 568 682 c 256,128,129
796 682 m 256,144,145
 749 682 749 682 716 716 c 0,146,147
 682 749 682 749 682 796 c 256,148,149
 682 843 682 843 716 876 c 0,150,151
 749 910 749 910 796 910 c 256,152,153
 843 910 843 910 876 876 c 0,154,155
 910 843 910 843 910 796 c 256,156,157
 910 749 910 749 876 716 c 0,158,159
 843 682 843 682 796 682 c 256,144,145
1024 682 m 0,160,161
 976 682 976 682 943 716 c 0,162,163
 910 749 910 749 910 796 c 256,164,165
 910 843 910 843 943 876 c 0,166,167
 976 910 976 910 1024 910 c 0,168,169
 1071 910 1071 910 1104 876 c 0,170,171
 1137 843 1137 843 1137 796 c 256,172,173
 1137 749 1137 749 1104 716 c 0,174,175
 1071 682 1071 682 1024 682 c 0,160,161
113 910 m 256,176,177
 66 910 66 910 33 943 c 256,178,179
 0 976 0 976 0 1024 c 0,180,181
 0 1071 0 1071 33 1104 c 256,182,183
 66 1137 66 1137 113 1137 c 256,184,185
 160 1137 160 1137 194 1104 c 0,186,187
 227 1071 227 1071 227 1024 c 0,188,189
 227 976 227 976 194 943 c 0,190,191
 160 910 160 910 113 910 c 256,176,177
113 1137 m 256,192,193
 66 1137 66 1137 33 1171 c 0,194,195
 0 1204 0 1204 0 1251 c 256,196,197
 0 1298 0 1298 33 1331 c 0,198,199
 66 1365 66 1365 113 1365 c 256,200,201
 160 1365 160 1365 194 1331 c 0,202,203
 227 1298 227 1298 227 1251 c 256,204,205
 227 1204 227 1204 194 1171 c 0,206,207
 160 1137 160 1137 113 1137 c 256,192,193
1024 1137 m 0,208,209
 976 1137 976 1137 943 1171 c 0,210,211
 910 1204 910 1204 910 1251 c 256,212,213
 910 1298 910 1298 943 1331 c 0,214,215
 976 1365 976 1365 1024 1365 c 0,216,217
 1071 1365 1071 1365 1104 1331 c 0,218,219
 1137 1298 1137 1298 1137 1251 c 256,220,221
 1137 1204 1137 1204 1104 1171 c 0,222,223
 1071 1137 1071 1137 1024 1137 c 0,208,209
341 1365 m 256,224,225
 294 1365 294 1365 260 1398 c 0,226,227
 227 1432 227 1432 227 1479 c 256,228,229
 227 1526 227 1526 260 1559 c 0,230,231
 294 1592 294 1592 341 1592 c 256,232,233
 388 1592 388 1592 421 1559 c 0,234,235
 455 1526 455 1526 455 1479 c 0,236,237
 455 1431 455 1431 421 1398 c 0,238,239
 388 1365 388 1365 341 1365 c 256,224,225
568 1365 m 256,240,241
 521 1365 521 1365 488 1398 c 0,242,243
 455 1432 455 1432 455 1479 c 256,244,245
 455 1526 455 1526 488 1559 c 256,246,247
 521 1592 521 1592 568 1592 c 0,248,249
 616 1592 616 1592 649 1559 c 256,250,251
 682 1526 682 1526 682 1479 c 0,252,253
 682 1431 682 1431 649 1398 c 0,254,255
 615 1365 615 1365 568 1365 c 256,240,241
796 1365 m 256,256,257
 749 1365 749 1365 716 1398 c 0,258,259
 682 1432 682 1432 682 1479 c 256,260,261
 682 1526 682 1526 716 1559 c 0,262,263
 749 1592 749 1592 796 1592 c 256,264,265
 843 1592 843 1592 876 1559 c 0,266,267
 910 1526 910 1526 910 1479 c 0,268,269
 910 1431 910 1431 876 1398 c 0,270,271
 843 1365 843 1365 796 1365 c 256,256,257
EndSplineSet
EndChar

StartChar: H
Encoding: 72 72 41
Width: 1365
GlyphClass: 1
Flags: W
LayerCount: 2
Fore
SplineSet
113 0 m 256,0,1
 66 0 66 0 33 33 c 256,2,3
 0 66 0 66 0 113 c 256,4,5
 0 160 0 160 33 194 c 0,6,7
 66 227 66 227 113 227 c 256,8,9
 160 227 160 227 194 194 c 0,10,11
 227 160 227 160 227 113 c 256,12,13
 227 66 227 66 194 33 c 0,14,15
 160 0 160 0 113 0 c 256,0,1
1024 0 m 0,16,17
 976 0 976 0 943 33 c 256,18,19
 910 66 910 66 910 113 c 256,20,21
 910 160 910 160 943 194 c 0,22,23
 976 227 976 227 1024 227 c 0,24,25
 1071 227 1071 227 1104 194 c 0,26,27
 1137 160 1137 160 1137 113 c 256,28,29
 1137 66 1137 66 1104 33 c 256,30,31
 1071 0 1071 0 1024 0 c 0,16,17
113 227 m 256,32,33
 66 227 66 227 33 260 c 0,34,35
 0 294 0 294 0 341 c 256,36,37
 0 388 0 388 33 421 c 0,38,39
 66 455 66 455 113 455 c 256,40,41
 160 455 160 455 194 421 c 0,42,43
 227 388 227 388 227 341 c 256,44,45
 227 294 227 294 194 260 c 0,46,47
 160 227 160 227 113 227 c 256,32,33
1024 227 m 0,48,49
 976 227 976 227 943 260 c 0,50,51
 910 294 910 294 910 341 c 256,52,53
 910 388 910 388 943 421 c 0,54,55
 976 455 976 455 1024 455 c 0,56,57
 1071 455 1071 455 1104 421 c 0,58,59
 1137 388 1137 388 1137 341 c 256,60,61
 1137 294 1137 294 1104 260 c 0,62,63
 1071 227 1071 227 1024 227 c 0,48,49
113 455 m 256,64,65
 66 455 66 455 33 488 c 256,66,67
 0 521 0 521 0 568 c 0,68,69
 0 616 0 616 33 649 c 256,70,71
 66 682 66 682 113 682 c 256,72,73
 160 682 160 682 194 649 c 0,74,75
 227 615 227 615 227 568 c 256,76,77
 227 521 227 521 194 488 c 0,78,79
 160 455 160 455 113 455 c 256,64,65
1024 455 m 0,80,81
 976 455 976 455 943 488 c 256,82,83
 910 521 910 521 910 568 c 0,84,85
 910 616 910 616 943 649 c 256,86,87
 976 682 976 682 1024 682 c 0,88,89
 1071 682 1071 682 1104 649 c 0,90,91
 1137 615 1137 615 1137 568 c 256,92,93
 1137 521 1137 521 1104 488 c 256,94,95
 1071 455 1071 455 1024 455 c 0,80,81
113 682 m 256,96,97
 66 682 66 682 33 716 c 0,98,99
 0 749 0 749 0 796 c 256,100,101
 0 843 0 843 33 876 c 0,102,103
 66 910 66 910 113 910 c 256,104,105
 160 910 160 910 194 876 c 0,106,107
 227 843 227 843 227 796 c 256,108,109
 227 749 227 749 194 716 c 0,110,111
 160 682 160 682 113 682 c 256,96,97
341 682 m 256,112,113
 294 682 294 682 260 716 c 0,114,115
 227 749 227 749 227 796 c 256,116,117
 227 843 227 843 260 876 c 0,118,119
 294 910 294 910 341 910 c 256,120,121
 388 910 388 910 421 876 c 0,122,123
 455 843 455 843 455 796 c 256,124,125
 455 749 455 749 421 716 c 0,126,127
 388 682 388 682 341 682 c 256,112,113
568 682 m 256,128,129
 521 682 521 682 488 716 c 0,130,131
 455 749 455 749 455 796 c 256,132,133
 455 843 455 843 488 876 c 0,134,135
 521 910 521 910 568 910 c 0,136,137
 616 910 616 910 649 876 c 0,138,139
 682 843 682 843 682 796 c 256,140,141
 682 749 682 749 649 716 c 0,142,143
 615 682 615 682 568 682 c 256,128,129
796 682 m 256,144,145
 749 682 749 682 716 716 c 0,146,147
 682 749 682 749 682 796 c 256,148,149
 682 843 682 843 716 876 c 0,150,151
 749 910 749 910 796 910 c 256,152,153
 843 910 843 910 876 876 c 0,154,155
 910 843 910 843 910 796 c 256,156,157
 910 749 910 749 876 716 c 0,158,159
 843 682 843 682 796 682 c 256,144,145
1024 682 m 0,160,161
 976 682 976 682 943 716 c 0,162,163
 910 749 910 749 910 796 c 256,164,165
 910 843 910 843 943 876 c 0,166,167
 976 910 976 910 1024 910 c 0,168,169
 1071 910 1071 910 1104 876 c 0,170,171
 1137 843 1137 843 1137 796 c 256,172,173
 1137 749 1137 749 1104 716 c 0,174,175
 1071 682 1071 682 1024 682 c 0,160,161
113 910 m 256,176,177
 66 910 66 910 33 943 c 256,178,179
 0 976 0 976 0 1024 c 0,180,181
 0 1071 0 1071 33 1104 c 256,182,183
 66 1137 66 1137 113 1137 c 256,184,185
 160 1137 160 1137 194 1104 c 0,186,187
 227 1071 227 1071 227 1024 c 0,188,189
 227 976 227 976 194 943 c 0,190,191
 160 910 160 910 113 910 c 256,176,177
1024 910 m 0,192,193
 976 910 976 910 943 943 c 256,194,195
 910 976 910 976 910 1024 c 0,196,197
 910 1071 910 1071 943 1104 c 256,198,199
 976 1137 976 1137 1024 1137 c 0,200,201
 1071 1137 1071 1137 1104 1104 c 256,202,203
 1137 1071 1137 1071 1137 1024 c 0,204,205
 1137 976 1137 976 1104 943 c 256,206,207
 1071 910 1071 910 1024 910 c 0,192,193
113 1137 m 256,208,209
 66 1137 66 1137 33 1171 c 0,210,211
 0 1204 0 1204 0 1251 c 256,212,213
 0 1298 0 1298 33 1331 c 0,214,215
 66 1365 66 1365 113 1365 c 256,216,217
 160 1365 160 1365 194 1331 c 0,218,219
 227 1298 227 1298 227 1251 c 256,220,221
 227 1204 227 1204 194 1171 c 0,222,223
 160 1137 160 1137 113 1137 c 256,208,209
1024 1137 m 0,224,225
 976 1137 976 1137 943 1171 c 0,226,227
 910 1204 910 1204 910 1251 c 256,228,229
 910 1298 910 1298 943 1331 c 0,230,231
 976 1365 976 1365 1024 1365 c 0,232,233
 1071 1365 1071 1365 1104 1331 c 0,234,235
 1137 1298 1137 1298 1137 1251 c 256,236,237
 1137 1204 1137 1204 1104 1171 c 0,238,239
 1071 1137 1071 1137 1024 1137 c 0,224,225
113 1365 m 256,240,241
 66 1365 66 1365 33 1398 c 0,242,243
 0 1432 0 1432 0 1479 c 256,244,245
 0 1526 0 1526 33 1559 c 256,246,247
 66 1592 66 1592 113 1592 c 256,248,249
 160 1592 160 1592 194 1559 c 0,250,251
 227 1526 227 1526 227 1479 c 0,252,253
 227 1431 227 1431 194 1398 c 0,254,255
 160 1365 160 1365 113 1365 c 256,240,241
1024 1365 m 0,256,257
 976 1365 976 1365 943 1398 c 0,258,259
 910 1432 910 1432 910 1479 c 256,260,261
 910 1526 910 1526 943 1559 c 256,262,263
 976 1592 976 1592 1024 1592 c 0,264,265
 1071 1592 1071 1592 1104 1559 c 256,266,267
 1137 1526 1137 1526 1137 1479 c 0,268,269
 1137 1431 1137 1431 1104 1398 c 256,270,271
 1071 1365 1071 1365 1024 1365 c 0,256,257
EndSplineSet
EndChar

StartChar: I
Encoding: 73 73 42
Width: 910
GlyphClass: 1
Flags: W
LayerCount: 2
Fore
SplineSet
113 0 m 256,0,1
 66 0 66 0 33 33 c 256,2,3
 0 66 0 66 0 113 c 256,4,5
 0 160 0 160 33 194 c 0,6,7
 66 227 66 227 113 227 c 256,8,9
 160 227 160 227 194 194 c 0,10,11
 227 160 227 160 227 113 c 256,12,13
 227 66 227 66 194 33 c 0,14,15
 160 0 160 0 113 0 c 256,0,1
341 0 m 256,16,17
 294 0 294 0 260 33 c 0,18,19
 227 66 227 66 227 113 c 256,20,21
 227 160 227 160 260 194 c 0,22,23
 294 227 294 227 341 227 c 256,24,25
 388 227 388 227 421 194 c 0,26,27
 455 160 455 160 455 113 c 256,28,29
 455 66 455 66 421 33 c 0,30,31
 388 0 388 0 341 0 c 256,16,17
568 0 m 256,32,33
 521 0 521 0 488 33 c 256,34,35
 455 66 455 66 455 113 c 256,36,37
 455 160 455 160 488 194 c 0,38,39
 521 227 521 227 568 227 c 0,40,41
 616 227 616 227 649 194 c 0,42,43
 682 160 682 160 682 113 c 256,44,45
 682 66 682 66 649 33 c 0,46,47
 615 0 615 0 568 0 c 256,32,33
341 227 m 256,48,49
 294 227 294 227 260 260 c 0,50,51
 227 294 227 294 227 341 c 256,52,53
 227 388 227 388 260 421 c 0,54,55
 294 455 294 455 341 455 c 256,56,57
 388 455 388 455 421 421 c 0,58,59
 455 388 455 388 455 341 c 256,60,61
 455 294 455 294 421 260 c 0,62,63
 388 227 388 227 341 227 c 256,48,49
341 455 m 256,64,65
 294 455 294 455 260 488 c 0,66,67
 227 521 227 521 227 568 c 0,68,69
 227 616 227 616 260 649 c 0,70,71
 294 682 294 682 341 682 c 256,72,73
 388 682 388 682 421 649 c 0,74,75
 455 615 455 615 455 568 c 256,76,77
 455 521 455 521 421 488 c 0,78,79
 388 455 388 455 341 455 c 256,64,65
341 682 m 256,80,81
 294 682 294 682 260 716 c 0,82,83
 227 749 227 749 227 796 c 256,84,85
 227 843 227 843 260 876 c 0,86,87
 294 910 294 910 341 910 c 256,88,89
 388 910 388 910 421 876 c 0,90,91
 455 843 455 843 455 796 c 256,92,93
 455 749 455 749 421 716 c 0,94,95
 388 682 388 682 341 682 c 256,80,81
341 910 m 256,96,97
 294 910 294 910 260 943 c 0,98,99
 227 976 227 976 227 1024 c 0,100,101
 227 1071 227 1071 260 1104 c 0,102,103
 294 1137 294 1137 341 1137 c 256,104,105
 388 1137 388 1137 421 1104 c 0,106,107
 455 1071 455 1071 455 1024 c 0,108,109
 455 976 455 976 421 943 c 0,110,111
 388 910 388 910 341 910 c 256,96,97
341 1137 m 256,112,113
 294 1137 294 1137 260 1171 c 0,114,115
 227 1204 227 1204 227 1251 c 256,116,117
 227 1298 227 1298 260 1331 c 0,118,119
 294 1365 294 1365 341 1365 c 256,120,121
 388 1365 388 1365 421 1331 c 0,122,123
 455 1298 455 1298 455 1251 c 256,124,125
 455 1204 455 1204 421 1171 c 0,126,127
 388 1137 388 1137 341 1137 c 256,112,113
113 1365 m 256,128,129
 66 1365 66 1365 33 1398 c 0,130,131
 0 1432 0 1432 0 1479 c 256,132,133
 0 1526 0 1526 33 1559 c 256,134,135
 66 1592 66 1592 113 1592 c 256,136,137
 160 1592 160 1592 194 1559 c 0,138,139
 227 1526 227 1526 227 1479 c 0,140,141
 227 1431 227 1431 194 1398 c 0,142,143
 160 1365 160 1365 113 1365 c 256,128,129
341 1365 m 256,144,145
 294 1365 294 1365 260 1398 c 0,146,147
 227 1432 227 1432 227 1479 c 256,148,149
 227 1526 227 1526 260 1559 c 0,150,151
 294 1592 294 1592 341 1592 c 256,152,153
 388 1592 388 1592 421 1559 c 0,154,155
 455 1526 455 1526 455 1479 c 0,156,157
 455 1431 455 1431 421 1398 c 0,158,159
 388 1365 388 1365 341 1365 c 256,144,145
568 1365 m 256,160,161
 521 1365 521 1365 488 1398 c 0,162,163
 455 1432 455 1432 455 1479 c 256,164,165
 455 1526 455 1526 488 1559 c 256,166,167
 521 1592 521 1592 568 1592 c 0,168,169
 616 1592 616 1592 649 1559 c 256,170,171
 682 1526 682 1526 682 1479 c 0,172,173
 682 1431 682 1431 649 1398 c 0,174,175
 615 1365 615 1365 568 1365 c 256,160,161
EndSplineSet
EndChar

StartChar: J
Encoding: 74 74 43
Width: 1365
GlyphClass: 1
Flags: W
LayerCount: 2
Fore
SplineSet
341 0 m 256,0,1
 294 0 294 0 260 33 c 0,2,3
 227 66 227 66 227 113 c 256,4,5
 227 160 227 160 260 194 c 0,6,7
 294 227 294 227 341 227 c 256,8,9
 388 227 388 227 421 194 c 0,10,11
 455 160 455 160 455 113 c 256,12,13
 455 66 455 66 421 33 c 0,14,15
 388 0 388 0 341 0 c 256,0,1
568 0 m 256,16,17
 521 0 521 0 488 33 c 256,18,19
 455 66 455 66 455 113 c 256,20,21
 455 160 455 160 488 194 c 0,22,23
 521 227 521 227 568 227 c 0,24,25
 616 227 616 227 649 194 c 0,26,27
 682 160 682 160 682 113 c 256,28,29
 682 66 682 66 649 33 c 0,30,31
 615 0 615 0 568 0 c 256,16,17
113 227 m 256,32,33
 66 227 66 227 33 260 c 0,34,35
 0 294 0 294 0 341 c 256,36,37
 0 388 0 388 33 421 c 0,38,39
 66 455 66 455 113 455 c 256,40,41
 160 455 160 455 194 421 c 0,42,43
 227 388 227 388 227 341 c 256,44,45
 227 294 227 294 194 260 c 0,46,47
 160 227 160 227 113 227 c 256,32,33
796 227 m 256,48,49
 749 227 749 227 716 260 c 0,50,51
 682 294 682 294 682 341 c 256,52,53
 682 388 682 388 716 421 c 0,54,55
 749 455 749 455 796 455 c 256,56,57
 843 455 843 455 876 421 c 0,58,59
 910 388 910 388 910 341 c 256,60,61
 910 294 910 294 876 260 c 0,62,63
 843 227 843 227 796 227 c 256,48,49
796 455 m 256,64,65
 749 455 749 455 716 488 c 0,66,67
 682 521 682 521 682 568 c 0,68,69
 682 616 682 616 716 649 c 0,70,71
 749 682 749 682 796 682 c 256,72,73
 843 682 843 682 876 649 c 0,74,75
 910 615 910 615 910 568 c 256,76,77
 910 521 910 521 876 488 c 0,78,79
 843 455 843 455 796 455 c 256,64,65
796 682 m 256,80,81
 749 682 749 682 716 716 c 0,82,83
 682 749 682 749 682 796 c 256,84,85
 682 843 682 843 716 876 c 0,86,87
 749 910 749 910 796 910 c 256,88,89
 843 910 843 910 876 876 c 0,90,91
 910 843 910 843 910 796 c 256,92,93
 910 749 910 749 876 716 c 0,94,95
 843 682 843 682 796 682 c 256,80,81
796 910 m 256,96,97
 749 910 749 910 716 943 c 0,98,99
 682 976 682 976 682 1024 c 0,100,101
 682 1071 682 1071 716 1104 c 0,102,103
 749 1137 749 1137 796 1137 c 256,104,105
 843 1137 843 1137 876 1104 c 0,106,107
 910 1071 910 1071 910 1024 c 0,108,109
 910 976 910 976 876 943 c 0,110,111
 843 910 843 910 796 910 c 256,96,97
796 1137 m 256,112,113
 749 1137 749 1137 716 1171 c 0,114,115
 682 1204 682 1204 682 1251 c 256,116,117
 682 1298 682 1298 716 1331 c 0,118,119
 749 1365 749 1365 796 1365 c 256,120,121
 843 1365 843 1365 876 1331 c 0,122,123
 910 1298 910 1298 910 1251 c 256,124,125
 910 1204 910 1204 876 1171 c 0,126,127
 843 1137 843 1137 796 1137 c 256,112,113
568 1365 m 256,128,129
 521 1365 521 1365 488 1398 c 0,130,131
 455 1432 455 1432 455 1479 c 256,132,133
 455 1526 455 1526 488 1559 c 256,134,135
 521 1592 521 1592 568 1592 c 0,136,137
 616 1592 616 1592 649 1559 c 256,138,139
 682 1526 682 1526 682 1479 c 0,140,141
 682 1431 682 1431 649 1398 c 0,142,143
 615 1365 615 1365 568 1365 c 256,128,129
796 1365 m 256,144,145
 749 1365 749 1365 716 1398 c 0,146,147
 682 1432 682 1432 682 1479 c 256,148,149
 682 1526 682 1526 716 1559 c 0,150,151
 749 1592 749 1592 796 1592 c 256,152,153
 843 1592 843 1592 876 1559 c 0,154,155
 910 1526 910 1526 910 1479 c 0,156,157
 910 1431 910 1431 876 1398 c 0,158,159
 843 1365 843 1365 796 1365 c 256,144,145
1024 1365 m 0,160,161
 976 1365 976 1365 943 1398 c 0,162,163
 910 1432 910 1432 910 1479 c 256,164,165
 910 1526 910 1526 943 1559 c 256,166,167
 976 1592 976 1592 1024 1592 c 0,168,169
 1071 1592 1071 1592 1104 1559 c 256,170,171
 1137 1526 1137 1526 1137 1479 c 0,172,173
 1137 1431 1137 1431 1104 1398 c 256,174,175
 1071 1365 1071 1365 1024 1365 c 0,160,161
EndSplineSet
EndChar

StartChar: K
Encoding: 75 75 44
Width: 1365
GlyphClass: 1
Flags: W
LayerCount: 2
Fore
SplineSet
113 0 m 256,0,1
 66 0 66 0 33 33 c 256,2,3
 0 66 0 66 0 113 c 256,4,5
 0 160 0 160 33 194 c 0,6,7
 66 227 66 227 113 227 c 256,8,9
 160 227 160 227 194 194 c 0,10,11
 227 160 227 160 227 113 c 256,12,13
 227 66 227 66 194 33 c 0,14,15
 160 0 160 0 113 0 c 256,0,1
1024 0 m 0,16,17
 976 0 976 0 943 33 c 256,18,19
 910 66 910 66 910 113 c 256,20,21
 910 160 910 160 943 194 c 0,22,23
 976 227 976 227 1024 227 c 0,24,25
 1071 227 1071 227 1104 194 c 0,26,27
 1137 160 1137 160 1137 113 c 256,28,29
 1137 66 1137 66 1104 33 c 256,30,31
 1071 0 1071 0 1024 0 c 0,16,17
113 227 m 256,32,33
 66 227 66 227 33 260 c 0,34,35
 0 294 0 294 0 341 c 256,36,37
 0 388 0 388 33 421 c 0,38,39
 66 455 66 455 113 455 c 256,40,41
 160 455 160 455 194 421 c 0,42,43
 227 388 227 388 227 341 c 256,44,45
 227 294 227 294 194 260 c 0,46,47
 160 227 160 227 113 227 c 256,32,33
796 227 m 256,48,49
 749 227 749 227 716 260 c 0,50,51
 682 294 682 294 682 341 c 256,52,53
 682 388 682 388 716 421 c 0,54,55
 749 455 749 455 796 455 c 256,56,57
 843 455 843 455 876 421 c 0,58,59
 910 388 910 388 910 341 c 256,60,61
 910 294 910 294 876 260 c 0,62,63
 843 227 843 227 796 227 c 256,48,49
113 455 m 256,64,65
 66 455 66 455 33 488 c 256,66,67
 0 521 0 521 0 568 c 0,68,69
 0 616 0 616 33 649 c 256,70,71
 66 682 66 682 113 682 c 256,72,73
 160 682 160 682 194 649 c 0,74,75
 227 615 227 615 227 568 c 256,76,77
 227 521 227 521 194 488 c 0,78,79
 160 455 160 455 113 455 c 256,64,65
568 455 m 256,80,81
 521 455 521 455 488 488 c 256,82,83
 455 521 455 521 455 568 c 0,84,85
 455 616 455 616 488 649 c 256,86,87
 521 682 521 682 568 682 c 0,88,89
 616 682 616 682 649 649 c 0,90,91
 682 615 682 615 682 568 c 256,92,93
 682 521 682 521 649 488 c 0,94,95
 615 455 615 455 568 455 c 256,80,81
113 682 m 256,96,97
 66 682 66 682 33 716 c 0,98,99
 0 749 0 749 0 796 c 256,100,101
 0 843 0 843 33 876 c 0,102,103
 66 910 66 910 113 910 c 256,104,105
 160 910 160 910 194 876 c 0,106,107
 227 843 227 843 227 796 c 256,108,109
 227 749 227 749 194 716 c 0,110,111
 160 682 160 682 113 682 c 256,96,97
341 682 m 256,112,113
 294 682 294 682 260 716 c 0,114,115
 227 749 227 749 227 796 c 256,116,117
 227 843 227 843 260 876 c 0,118,119
 294 910 294 910 341 910 c 256,120,121
 388 910 388 910 421 876 c 0,122,123
 455 843 455 843 455 796 c 256,124,125
 455 749 455 749 421 716 c 0,126,127
 388 682 388 682 341 682 c 256,112,113
113 910 m 256,128,129
 66 910 66 910 33 943 c 256,130,131
 0 976 0 976 0 1024 c 0,132,133
 0 1071 0 1071 33 1104 c 256,134,135
 66 1137 66 1137 113 1137 c 256,136,137
 160 1137 160 1137 194 1104 c 0,138,139
 227 1071 227 1071 227 1024 c 0,140,141
 227 976 227 976 194 943 c 0,142,143
 160 910 160 910 113 910 c 256,128,129
568 910 m 256,144,145
 521 910 521 910 488 943 c 256,146,147
 455 976 455 976 455 1024 c 0,148,149
 455 1071 455 1071 488 1104 c 256,150,151
 521 1137 521 1137 568 1137 c 0,152,153
 616 1137 616 1137 649 1104 c 256,154,155
 682 1071 682 1071 682 1024 c 0,156,157
 682 976 682 976 649 943 c 0,158,159
 615 910 615 910 568 910 c 256,144,145
113 1137 m 256,160,161
 66 1137 66 1137 33 1171 c 0,162,163
 0 1204 0 1204 0 1251 c 256,164,165
 0 1298 0 1298 33 1331 c 0,166,167
 66 1365 66 1365 113 1365 c 256,168,169
 160 1365 160 1365 194 1331 c 0,170,171
 227 1298 227 1298 227 1251 c 256,172,173
 227 1204 227 1204 194 1171 c 0,174,175
 160 1137 160 1137 113 1137 c 256,160,161
796 1137 m 256,176,177
 749 1137 749 1137 716 1171 c 0,178,179
 682 1204 682 1204 682 1251 c 256,180,181
 682 1298 682 1298 716 1331 c 0,182,183
 749 1365 749 1365 796 1365 c 256,184,185
 843 1365 843 1365 876 1331 c 0,186,187
 910 1298 910 1298 910 1251 c 256,188,189
 910 1204 910 1204 876 1171 c 0,190,191
 843 1137 843 1137 796 1137 c 256,176,177
113 1365 m 256,192,193
 66 1365 66 1365 33 1398 c 0,194,195
 0 1432 0 1432 0 1479 c 256,196,197
 0 1526 0 1526 33 1559 c 256,198,199
 66 1592 66 1592 113 1592 c 256,200,201
 160 1592 160 1592 194 1559 c 0,202,203
 227 1526 227 1526 227 1479 c 0,204,205
 227 1431 227 1431 194 1398 c 0,206,207
 160 1365 160 1365 113 1365 c 256,192,193
1024 1365 m 0,208,209
 976 1365 976 1365 943 1398 c 0,210,211
 910 1432 910 1432 910 1479 c 256,212,213
 910 1526 910 1526 943 1559 c 256,214,215
 976 1592 976 1592 1024 1592 c 0,216,217
 1071 1592 1071 1592 1104 1559 c 256,218,219
 1137 1526 1137 1526 1137 1479 c 0,220,221
 1137 1431 1137 1431 1104 1398 c 256,222,223
 1071 1365 1071 1365 1024 1365 c 0,208,209
EndSplineSet
EndChar

StartChar: L
Encoding: 76 76 45
Width: 1365
GlyphClass: 1
Flags: W
LayerCount: 2
Fore
SplineSet
113 0 m 256,0,1
 66 0 66 0 33 33 c 256,2,3
 0 66 0 66 0 113 c 256,4,5
 0 160 0 160 33 194 c 0,6,7
 66 227 66 227 113 227 c 256,8,9
 160 227 160 227 194 194 c 0,10,11
 227 160 227 160 227 113 c 256,12,13
 227 66 227 66 194 33 c 0,14,15
 160 0 160 0 113 0 c 256,0,1
341 0 m 256,16,17
 294 0 294 0 260 33 c 0,18,19
 227 66 227 66 227 113 c 256,20,21
 227 160 227 160 260 194 c 0,22,23
 294 227 294 227 341 227 c 256,24,25
 388 227 388 227 421 194 c 0,26,27
 455 160 455 160 455 113 c 256,28,29
 455 66 455 66 421 33 c 0,30,31
 388 0 388 0 341 0 c 256,16,17
568 0 m 256,32,33
 521 0 521 0 488 33 c 256,34,35
 455 66 455 66 455 113 c 256,36,37
 455 160 455 160 488 194 c 0,38,39
 521 227 521 227 568 227 c 0,40,41
 616 227 616 227 649 194 c 0,42,43
 682 160 682 160 682 113 c 256,44,45
 682 66 682 66 649 33 c 0,46,47
 615 0 615 0 568 0 c 256,32,33
796 0 m 256,48,49
 749 0 749 0 716 33 c 0,50,51
 682 66 682 66 682 113 c 256,52,53
 682 160 682 160 716 194 c 0,54,55
 749 227 749 227 796 227 c 256,56,57
 843 227 843 227 876 194 c 0,58,59
 910 160 910 160 910 113 c 256,60,61
 910 66 910 66 876 33 c 0,62,63
 843 0 843 0 796 0 c 256,48,49
1024 0 m 0,64,65
 976 0 976 0 943 33 c 256,66,67
 910 66 910 66 910 113 c 256,68,69
 910 160 910 160 943 194 c 0,70,71
 976 227 976 227 1024 227 c 0,72,73
 1071 227 1071 227 1104 194 c 0,74,75
 1137 160 1137 160 1137 113 c 256,76,77
 1137 66 1137 66 1104 33 c 256,78,79
 1071 0 1071 0 1024 0 c 0,64,65
113 227 m 256,80,81
 66 227 66 227 33 260 c 0,82,83
 0 294 0 294 0 341 c 256,84,85
 0 388 0 388 33 421 c 0,86,87
 66 455 66 455 113 455 c 256,88,89
 160 455 160 455 194 421 c 0,90,91
 227 388 227 388 227 341 c 256,92,93
 227 294 227 294 194 260 c 0,94,95
 160 227 160 227 113 227 c 256,80,81
113 455 m 256,96,97
 66 455 66 455 33 488 c 256,98,99
 0 521 0 521 0 568 c 0,100,101
 0 616 0 616 33 649 c 256,102,103
 66 682 66 682 113 682 c 256,104,105
 160 682 160 682 194 649 c 0,106,107
 227 615 227 615 227 568 c 256,108,109
 227 521 227 521 194 488 c 0,110,111
 160 455 160 455 113 455 c 256,96,97
113 682 m 256,112,113
 66 682 66 682 33 716 c 0,114,115
 0 749 0 749 0 796 c 256,116,117
 0 843 0 843 33 876 c 0,118,119
 66 910 66 910 113 910 c 256,120,121
 160 910 160 910 194 876 c 0,122,123
 227 843 227 843 227 796 c 256,124,125
 227 749 227 749 194 716 c 0,126,127
 160 682 160 682 113 682 c 256,112,113
113 910 m 256,128,129
 66 910 66 910 33 943 c 256,130,131
 0 976 0 976 0 1024 c 0,132,133
 0 1071 0 1071 33 1104 c 256,134,135
 66 1137 66 1137 113 1137 c 256,136,137
 160 1137 160 1137 194 1104 c 0,138,139
 227 1071 227 1071 227 1024 c 0,140,141
 227 976 227 976 194 943 c 0,142,143
 160 910 160 910 113 910 c 256,128,129
113 1137 m 256,144,145
 66 1137 66 1137 33 1171 c 0,146,147
 0 1204 0 1204 0 1251 c 256,148,149
 0 1298 0 1298 33 1331 c 0,150,151
 66 1365 66 1365 113 1365 c 256,152,153
 160 1365 160 1365 194 1331 c 0,154,155
 227 1298 227 1298 227 1251 c 256,156,157
 227 1204 227 1204 194 1171 c 0,158,159
 160 1137 160 1137 113 1137 c 256,144,145
113 1365 m 256,160,161
 66 1365 66 1365 33 1398 c 0,162,163
 0 1432 0 1432 0 1479 c 256,164,165
 0 1526 0 1526 33 1559 c 256,166,167
 66 1592 66 1592 113 1592 c 256,168,169
 160 1592 160 1592 194 1559 c 0,170,171
 227 1526 227 1526 227 1479 c 0,172,173
 227 1431 227 1431 194 1398 c 0,174,175
 160 1365 160 1365 113 1365 c 256,160,161
EndSplineSet
EndChar

StartChar: M
Encoding: 77 77 46
Width: 1365
GlyphClass: 1
Flags: W
LayerCount: 2
Fore
SplineSet
113 0 m 256,0,1
 66 0 66 0 33 33 c 256,2,3
 0 66 0 66 0 113 c 256,4,5
 0 160 0 160 33 194 c 0,6,7
 66 227 66 227 113 227 c 256,8,9
 160 227 160 227 194 194 c 0,10,11
 227 160 227 160 227 113 c 256,12,13
 227 66 227 66 194 33 c 0,14,15
 160 0 160 0 113 0 c 256,0,1
1024 0 m 0,16,17
 976 0 976 0 943 33 c 256,18,19
 910 66 910 66 910 113 c 256,20,21
 910 160 910 160 943 194 c 0,22,23
 976 227 976 227 1024 227 c 0,24,25
 1071 227 1071 227 1104 194 c 0,26,27
 1137 160 1137 160 1137 113 c 256,28,29
 1137 66 1137 66 1104 33 c 256,30,31
 1071 0 1071 0 1024 0 c 0,16,17
113 227 m 256,32,33
 66 227 66 227 33 260 c 0,34,35
 0 294 0 294 0 341 c 256,36,37
 0 388 0 388 33 421 c 0,38,39
 66 455 66 455 113 455 c 256,40,41
 160 455 160 455 194 421 c 0,42,43
 227 388 227 388 227 341 c 256,44,45
 227 294 227 294 194 260 c 0,46,47
 160 227 160 227 113 227 c 256,32,33
1024 227 m 0,48,49
 976 227 976 227 943 260 c 0,50,51
 910 294 910 294 910 341 c 256,52,53
 910 388 910 388 943 421 c 0,54,55
 976 455 976 455 1024 455 c 0,56,57
 1071 455 1071 455 1104 421 c 0,58,59
 1137 388 1137 388 1137 341 c 256,60,61
 1137 294 1137 294 1104 260 c 0,62,63
 1071 227 1071 227 1024 227 c 0,48,49
113 455 m 256,64,65
 66 455 66 455 33 488 c 256,66,67
 0 521 0 521 0 568 c 0,68,69
 0 616 0 616 33 649 c 256,70,71
 66 682 66 682 113 682 c 256,72,73
 160 682 160 682 194 649 c 0,74,75
 227 615 227 615 227 568 c 256,76,77
 227 521 227 521 194 488 c 0,78,79
 160 455 160 455 113 455 c 256,64,65
1024 455 m 0,80,81
 976 455 976 455 943 488 c 256,82,83
 910 521 910 521 910 568 c 0,84,85
 910 616 910 616 943 649 c 256,86,87
 976 682 976 682 1024 682 c 0,88,89
 1071 682 1071 682 1104 649 c 0,90,91
 1137 615 1137 615 1137 568 c 256,92,93
 1137 521 1137 521 1104 488 c 256,94,95
 1071 455 1071 455 1024 455 c 0,80,81
113 682 m 256,96,97
 66 682 66 682 33 716 c 0,98,99
 0 749 0 749 0 796 c 256,100,101
 0 843 0 843 33 876 c 0,102,103
 66 910 66 910 113 910 c 256,104,105
 160 910 160 910 194 876 c 0,106,107
 227 843 227 843 227 796 c 256,108,109
 227 749 227 749 194 716 c 0,110,111
 160 682 160 682 113 682 c 256,96,97
568 682 m 256,112,113
 521 682 521 682 488 716 c 0,114,115
 455 749 455 749 455 796 c 256,116,117
 455 843 455 843 488 876 c 0,118,119
 521 910 521 910 568 910 c 0,120,121
 616 910 616 910 649 876 c 0,122,123
 682 843 682 843 682 796 c 256,124,125
 682 749 682 749 649 716 c 0,126,127
 615 682 615 682 568 682 c 256,112,113
1024 682 m 0,128,129
 976 682 976 682 943 716 c 0,130,131
 910 749 910 749 910 796 c 256,132,133
 910 843 910 843 943 876 c 0,134,135
 976 910 976 910 1024 910 c 0,136,137
 1071 910 1071 910 1104 876 c 0,138,139
 1137 843 1137 843 1137 796 c 256,140,141
 1137 749 1137 749 1104 716 c 0,142,143
 1071 682 1071 682 1024 682 c 0,128,129
113 910 m 256,144,145
 66 910 66 910 33 943 c 256,146,147
 0 976 0 976 0 1024 c 0,148,149
 0 1071 0 1071 33 1104 c 256,150,151
 66 1137 66 1137 113 1137 c 256,152,153
 160 1137 160 1137 194 1104 c 0,154,155
 227 1071 227 1071 227 1024 c 0,156,157
 227 976 227 976 194 943 c 0,158,159
 160 910 160 910 113 910 c 256,144,145
568 910 m 256,160,161
 521 910 521 910 488 943 c 256,162,163
 455 976 455 976 455 1024 c 0,164,165
 455 1071 455 1071 488 1104 c 256,166,167
 521 1137 521 1137 568 1137 c 0,168,169
 616 1137 616 1137 649 1104 c 256,170,171
 682 1071 682 1071 682 1024 c 0,172,173
 682 976 682 976 649 943 c 0,174,175
 615 910 615 910 568 910 c 256,160,161
1024 910 m 0,176,177
 976 910 976 910 943 943 c 256,178,179
 910 976 910 976 910 1024 c 0,180,181
 910 1071 910 1071 943 1104 c 256,182,183
 976 1137 976 1137 1024 1137 c 0,184,185
 1071 1137 1071 1137 1104 1104 c 256,186,187
 1137 1071 1137 1071 1137 1024 c 0,188,189
 1137 976 1137 976 1104 943 c 256,190,191
 1071 910 1071 910 1024 910 c 0,176,177
113 1137 m 256,192,193
 66 1137 66 1137 33 1171 c 0,194,195
 0 1204 0 1204 0 1251 c 256,196,197
 0 1298 0 1298 33 1331 c 0,198,199
 66 1365 66 1365 113 1365 c 256,200,201
 160 1365 160 1365 194 1331 c 0,202,203
 227 1298 227 1298 227 1251 c 256,204,205
 227 1204 227 1204 194 1171 c 0,206,207
 160 1137 160 1137 113 1137 c 256,192,193
341 1137 m 256,208,209
 294 1137 294 1137 260 1171 c 0,210,211
 227 1204 227 1204 227 1251 c 256,212,213
 227 1298 227 1298 260 1331 c 0,214,215
 294 1365 294 1365 341 1365 c 256,216,217
 388 1365 388 1365 421 1331 c 0,218,219
 455 1298 455 1298 455 1251 c 256,220,221
 455 1204 455 1204 421 1171 c 0,222,223
 388 1137 388 1137 341 1137 c 256,208,209
796 1137 m 256,224,225
 749 1137 749 1137 716 1171 c 0,226,227
 682 1204 682 1204 682 1251 c 256,228,229
 682 1298 682 1298 716 1331 c 0,230,231
 749 1365 749 1365 796 1365 c 256,232,233
 843 1365 843 1365 876 1331 c 0,234,235
 910 1298 910 1298 910 1251 c 256,236,237
 910 1204 910 1204 876 1171 c 0,238,239
 843 1137 843 1137 796 1137 c 256,224,225
1024 1137 m 0,240,241
 976 1137 976 1137 943 1171 c 0,242,243
 910 1204 910 1204 910 1251 c 256,244,245
 910 1298 910 1298 943 1331 c 0,246,247
 976 1365 976 1365 1024 1365 c 0,248,249
 1071 1365 1071 1365 1104 1331 c 0,250,251
 1137 1298 1137 1298 1137 1251 c 256,252,253
 1137 1204 1137 1204 1104 1171 c 0,254,255
 1071 1137 1071 1137 1024 1137 c 0,240,241
113 1365 m 256,256,257
 66 1365 66 1365 33 1398 c 0,258,259
 0 1432 0 1432 0 1479 c 256,260,261
 0 1526 0 1526 33 1559 c 256,262,263
 66 1592 66 1592 113 1592 c 256,264,265
 160 1592 160 1592 194 1559 c 0,266,267
 227 1526 227 1526 227 1479 c 0,268,269
 227 1431 227 1431 194 1398 c 0,270,271
 160 1365 160 1365 113 1365 c 256,256,257
1024 1365 m 0,272,273
 976 1365 976 1365 943 1398 c 0,274,275
 910 1432 910 1432 910 1479 c 256,276,277
 910 1526 910 1526 943 1559 c 256,278,279
 976 1592 976 1592 1024 1592 c 0,280,281
 1071 1592 1071 1592 1104 1559 c 256,282,283
 1137 1526 1137 1526 1137 1479 c 0,284,285
 1137 1431 1137 1431 1104 1398 c 256,286,287
 1071 1365 1071 1365 1024 1365 c 0,272,273
EndSplineSet
EndChar

StartChar: N
Encoding: 78 78 47
Width: 1365
GlyphClass: 1
Flags: W
LayerCount: 2
Fore
SplineSet
113 0 m 256,0,1
 66 0 66 0 33 33 c 256,2,3
 0 66 0 66 0 113 c 256,4,5
 0 160 0 160 33 194 c 0,6,7
 66 227 66 227 113 227 c 256,8,9
 160 227 160 227 194 194 c 0,10,11
 227 160 227 160 227 113 c 256,12,13
 227 66 227 66 194 33 c 0,14,15
 160 0 160 0 113 0 c 256,0,1
1024 0 m 0,16,17
 976 0 976 0 943 33 c 256,18,19
 910 66 910 66 910 113 c 256,20,21
 910 160 910 160 943 194 c 0,22,23
 976 227 976 227 1024 227 c 0,24,25
 1071 227 1071 227 1104 194 c 0,26,27
 1137 160 1137 160 1137 113 c 256,28,29
 1137 66 1137 66 1104 33 c 256,30,31
 1071 0 1071 0 1024 0 c 0,16,17
113 227 m 256,32,33
 66 227 66 227 33 260 c 0,34,35
 0 294 0 294 0 341 c 256,36,37
 0 388 0 388 33 421 c 0,38,39
 66 455 66 455 113 455 c 256,40,41
 160 455 160 455 194 421 c 0,42,43
 227 388 227 388 227 341 c 256,44,45
 227 294 227 294 194 260 c 0,46,47
 160 227 160 227 113 227 c 256,32,33
1024 227 m 0,48,49
 976 227 976 227 943 260 c 0,50,51
 910 294 910 294 910 341 c 256,52,53
 910 388 910 388 943 421 c 0,54,55
 976 455 976 455 1024 455 c 0,56,57
 1071 455 1071 455 1104 421 c 0,58,59
 1137 388 1137 388 1137 341 c 256,60,61
 1137 294 1137 294 1104 260 c 0,62,63
 1071 227 1071 227 1024 227 c 0,48,49
113 455 m 256,64,65
 66 455 66 455 33 488 c 256,66,67
 0 521 0 521 0 568 c 0,68,69
 0 616 0 616 33 649 c 256,70,71
 66 682 66 682 113 682 c 256,72,73
 160 682 160 682 194 649 c 0,74,75
 227 615 227 615 227 568 c 256,76,77
 227 521 227 521 194 488 c 0,78,79
 160 455 160 455 113 455 c 256,64,65
796 455 m 256,80,81
 749 455 749 455 716 488 c 0,82,83
 682 521 682 521 682 568 c 0,84,85
 682 616 682 616 716 649 c 0,86,87
 749 682 749 682 796 682 c 256,88,89
 843 682 843 682 876 649 c 0,90,91
 910 615 910 615 910 568 c 256,92,93
 910 521 910 521 876 488 c 0,94,95
 843 455 843 455 796 455 c 256,80,81
1024 455 m 0,96,97
 976 455 976 455 943 488 c 256,98,99
 910 521 910 521 910 568 c 0,100,101
 910 616 910 616 943 649 c 256,102,103
 976 682 976 682 1024 682 c 0,104,105
 1071 682 1071 682 1104 649 c 0,106,107
 1137 615 1137 615 1137 568 c 256,108,109
 1137 521 1137 521 1104 488 c 256,110,111
 1071 455 1071 455 1024 455 c 0,96,97
113 682 m 256,112,113
 66 682 66 682 33 716 c 0,114,115
 0 749 0 749 0 796 c 256,116,117
 0 843 0 843 33 876 c 0,118,119
 66 910 66 910 113 910 c 256,120,121
 160 910 160 910 194 876 c 0,122,123
 227 843 227 843 227 796 c 256,124,125
 227 749 227 749 194 716 c 0,126,127
 160 682 160 682 113 682 c 256,112,113
568 682 m 256,128,129
 521 682 521 682 488 716 c 0,130,131
 455 749 455 749 455 796 c 256,132,133
 455 843 455 843 488 876 c 0,134,135
 521 910 521 910 568 910 c 0,136,137
 616 910 616 910 649 876 c 0,138,139
 682 843 682 843 682 796 c 256,140,141
 682 749 682 749 649 716 c 0,142,143
 615 682 615 682 568 682 c 256,128,129
1024 682 m 0,144,145
 976 682 976 682 943 716 c 0,146,147
 910 749 910 749 910 796 c 256,148,149
 910 843 910 843 943 876 c 0,150,151
 976 910 976 910 1024 910 c 0,152,153
 1071 910 1071 910 1104 876 c 0,154,155
 1137 843 1137 843 1137 796 c 256,156,157
 1137 749 1137 749 1104 716 c 0,158,159
 1071 682 1071 682 1024 682 c 0,144,145
113 910 m 256,160,161
 66 910 66 910 33 943 c 256,162,163
 0 976 0 976 0 1024 c 0,164,165
 0 1071 0 1071 33 1104 c 256,166,167
 66 1137 66 1137 113 1137 c 256,168,169
 160 1137 160 1137 194 1104 c 0,170,171
 227 1071 227 1071 227 1024 c 0,172,173
 227 976 227 976 194 943 c 0,174,175
 160 910 160 910 113 910 c 256,160,161
341 910 m 256,176,177
 294 910 294 910 260 943 c 0,178,179
 227 976 227 976 227 1024 c 0,180,181
 227 1071 227 1071 260 1104 c 0,182,183
 294 1137 294 1137 341 1137 c 256,184,185
 388 1137 388 1137 421 1104 c 0,186,187
 455 1071 455 1071 455 1024 c 0,188,189
 455 976 455 976 421 943 c 0,190,191
 388 910 388 910 341 910 c 256,176,177
1024 910 m 0,192,193
 976 910 976 910 943 943 c 256,194,195
 910 976 910 976 910 1024 c 0,196,197
 910 1071 910 1071 943 1104 c 256,198,199
 976 1137 976 1137 1024 1137 c 0,200,201
 1071 1137 1071 1137 1104 1104 c 256,202,203
 1137 1071 1137 1071 1137 1024 c 0,204,205
 1137 976 1137 976 1104 943 c 256,206,207
 1071 910 1071 910 1024 910 c 0,192,193
113 1137 m 256,208,209
 66 1137 66 1137 33 1171 c 0,210,211
 0 1204 0 1204 0 1251 c 256,212,213
 0 1298 0 1298 33 1331 c 0,214,215
 66 1365 66 1365 113 1365 c 256,216,217
 160 1365 160 1365 194 1331 c 0,218,219
 227 1298 227 1298 227 1251 c 256,220,221
 227 1204 227 1204 194 1171 c 0,222,223
 160 1137 160 1137 113 1137 c 256,208,209
1024 1137 m 0,224,225
 976 1137 976 1137 943 1171 c 0,226,227
 910 1204 910 1204 910 1251 c 256,228,229
 910 1298 910 1298 943 1331 c 0,230,231
 976 1365 976 1365 1024 1365 c 0,232,233
 1071 1365 1071 1365 1104 1331 c 0,234,235
 1137 1298 1137 1298 1137 1251 c 256,236,237
 1137 1204 1137 1204 1104 1171 c 0,238,239
 1071 1137 1071 1137 1024 1137 c 0,224,225
113 1365 m 256,240,241
 66 1365 66 1365 33 1398 c 0,242,243
 0 1432 0 1432 0 1479 c 256,244,245
 0 1526 0 1526 33 1559 c 256,246,247
 66 1592 66 1592 113 1592 c 256,248,249
 160 1592 160 1592 194 1559 c 0,250,251
 227 1526 227 1526 227 1479 c 0,252,253
 227 1431 227 1431 194 1398 c 0,254,255
 160 1365 160 1365 113 1365 c 256,240,241
1024 1365 m 0,256,257
 976 1365 976 1365 943 1398 c 0,258,259
 910 1432 910 1432 910 1479 c 256,260,261
 910 1526 910 1526 943 1559 c 256,262,263
 976 1592 976 1592 1024 1592 c 0,264,265
 1071 1592 1071 1592 1104 1559 c 256,266,267
 1137 1526 1137 1526 1137 1479 c 0,268,269
 1137 1431 1137 1431 1104 1398 c 256,270,271
 1071 1365 1071 1365 1024 1365 c 0,256,257
EndSplineSet
EndChar

StartChar: O
Encoding: 79 79 48
Width: 1365
GlyphClass: 1
Flags: W
LayerCount: 2
Fore
SplineSet
341 0 m 256,0,1
 294 0 294 0 260 33 c 0,2,3
 227 66 227 66 227 113 c 256,4,5
 227 160 227 160 260 194 c 0,6,7
 294 227 294 227 341 227 c 256,8,9
 388 227 388 227 421 194 c 0,10,11
 455 160 455 160 455 113 c 256,12,13
 455 66 455 66 421 33 c 0,14,15
 388 0 388 0 341 0 c 256,0,1
568 0 m 256,16,17
 521 0 521 0 488 33 c 256,18,19
 455 66 455 66 455 113 c 256,20,21
 455 160 455 160 488 194 c 0,22,23
 521 227 521 227 568 227 c 0,24,25
 616 227 616 227 649 194 c 0,26,27
 682 160 682 160 682 113 c 256,28,29
 682 66 682 66 649 33 c 0,30,31
 615 0 615 0 568 0 c 256,16,17
796 0 m 256,32,33
 749 0 749 0 716 33 c 0,34,35
 682 66 682 66 682 113 c 256,36,37
 682 160 682 160 716 194 c 0,38,39
 749 227 749 227 796 227 c 256,40,41
 843 227 843 227 876 194 c 0,42,43
 910 160 910 160 910 113 c 256,44,45
 910 66 910 66 876 33 c 0,46,47
 843 0 843 0 796 0 c 256,32,33
113 227 m 256,48,49
 66 227 66 227 33 260 c 0,50,51
 0 294 0 294 0 341 c 256,52,53
 0 388 0 388 33 421 c 0,54,55
 66 455 66 455 113 455 c 256,56,57
 160 455 160 455 194 421 c 0,58,59
 227 388 227 388 227 341 c 256,60,61
 227 294 227 294 194 260 c 0,62,63
 160 227 160 227 113 227 c 256,48,49
1024 227 m 0,64,65
 976 227 976 227 943 260 c 0,66,67
 910 294 910 294 910 341 c 256,68,69
 910 388 910 388 943 421 c 0,70,71
 976 455 976 455 1024 455 c 0,72,73
 1071 455 1071 455 1104 421 c 0,74,75
 1137 388 1137 388 1137 341 c 256,76,77
 1137 294 1137 294 1104 260 c 0,78,79
 1071 227 1071 227 1024 227 c 0,64,65
113 455 m 256,80,81
 66 455 66 455 33 488 c 256,82,83
 0 521 0 521 0 568 c 0,84,85
 0 616 0 616 33 649 c 256,86,87
 66 682 66 682 113 682 c 256,88,89
 160 682 160 682 194 649 c 0,90,91
 227 615 227 615 227 568 c 256,92,93
 227 521 227 521 194 488 c 0,94,95
 160 455 160 455 113 455 c 256,80,81
1024 455 m 0,96,97
 976 455 976 455 943 488 c 256,98,99
 910 521 910 521 910 568 c 0,100,101
 910 616 910 616 943 649 c 256,102,103
 976 682 976 682 1024 682 c 0,104,105
 1071 682 1071 682 1104 649 c 0,106,107
 1137 615 1137 615 1137 568 c 256,108,109
 1137 521 1137 521 1104 488 c 256,110,111
 1071 455 1071 455 1024 455 c 0,96,97
113 682 m 256,112,113
 66 682 66 682 33 716 c 0,114,115
 0 749 0 749 0 796 c 256,116,117
 0 843 0 843 33 876 c 0,118,119
 66 910 66 910 113 910 c 256,120,121
 160 910 160 910 194 876 c 0,122,123
 227 843 227 843 227 796 c 256,124,125
 227 749 227 749 194 716 c 0,126,127
 160 682 160 682 113 682 c 256,112,113
1024 682 m 0,128,129
 976 682 976 682 943 716 c 0,130,131
 910 749 910 749 910 796 c 256,132,133
 910 843 910 843 943 876 c 0,134,135
 976 910 976 910 1024 910 c 0,136,137
 1071 910 1071 910 1104 876 c 0,138,139
 1137 843 1137 843 1137 796 c 256,140,141
 1137 749 1137 749 1104 716 c 0,142,143
 1071 682 1071 682 1024 682 c 0,128,129
113 910 m 256,144,145
 66 910 66 910 33 943 c 256,146,147
 0 976 0 976 0 1024 c 0,148,149
 0 1071 0 1071 33 1104 c 256,150,151
 66 1137 66 1137 113 1137 c 256,152,153
 160 1137 160 1137 194 1104 c 0,154,155
 227 1071 227 1071 227 1024 c 0,156,157
 227 976 227 976 194 943 c 0,158,159
 160 910 160 910 113 910 c 256,144,145
1024 910 m 0,160,161
 976 910 976 910 943 943 c 256,162,163
 910 976 910 976 910 1024 c 0,164,165
 910 1071 910 1071 943 1104 c 256,166,167
 976 1137 976 1137 1024 1137 c 0,168,169
 1071 1137 1071 1137 1104 1104 c 256,170,171
 1137 1071 1137 1071 1137 1024 c 0,172,173
 1137 976 1137 976 1104 943 c 256,174,175
 1071 910 1071 910 1024 910 c 0,160,161
113 1137 m 256,176,177
 66 1137 66 1137 33 1171 c 0,178,179
 0 1204 0 1204 0 1251 c 256,180,181
 0 1298 0 1298 33 1331 c 0,182,183
 66 1365 66 1365 113 1365 c 256,184,185
 160 1365 160 1365 194 1331 c 0,186,187
 227 1298 227 1298 227 1251 c 256,188,189
 227 1204 227 1204 194 1171 c 0,190,191
 160 1137 160 1137 113 1137 c 256,176,177
1024 1137 m 0,192,193
 976 1137 976 1137 943 1171 c 0,194,195
 910 1204 910 1204 910 1251 c 256,196,197
 910 1298 910 1298 943 1331 c 0,198,199
 976 1365 976 1365 1024 1365 c 0,200,201
 1071 1365 1071 1365 1104 1331 c 0,202,203
 1137 1298 1137 1298 1137 1251 c 256,204,205
 1137 1204 1137 1204 1104 1171 c 0,206,207
 1071 1137 1071 1137 1024 1137 c 0,192,193
341 1365 m 256,208,209
 294 1365 294 1365 260 1398 c 0,210,211
 227 1432 227 1432 227 1479 c 256,212,213
 227 1526 227 1526 260 1559 c 0,214,215
 294 1592 294 1592 341 1592 c 256,216,217
 388 1592 388 1592 421 1559 c 0,218,219
 455 1526 455 1526 455 1479 c 0,220,221
 455 1431 455 1431 421 1398 c 0,222,223
 388 1365 388 1365 341 1365 c 256,208,209
568 1365 m 256,224,225
 521 1365 521 1365 488 1398 c 0,226,227
 455 1432 455 1432 455 1479 c 256,228,229
 455 1526 455 1526 488 1559 c 256,230,231
 521 1592 521 1592 568 1592 c 0,232,233
 616 1592 616 1592 649 1559 c 256,234,235
 682 1526 682 1526 682 1479 c 0,236,237
 682 1431 682 1431 649 1398 c 0,238,239
 615 1365 615 1365 568 1365 c 256,224,225
796 1365 m 256,240,241
 749 1365 749 1365 716 1398 c 0,242,243
 682 1432 682 1432 682 1479 c 256,244,245
 682 1526 682 1526 716 1559 c 0,246,247
 749 1592 749 1592 796 1592 c 256,248,249
 843 1592 843 1592 876 1559 c 0,250,251
 910 1526 910 1526 910 1479 c 0,252,253
 910 1431 910 1431 876 1398 c 0,254,255
 843 1365 843 1365 796 1365 c 256,240,241
EndSplineSet
EndChar

StartChar: P
Encoding: 80 80 49
Width: 1365
GlyphClass: 1
Flags: W
LayerCount: 2
Fore
SplineSet
113 0 m 256,0,1
 66 0 66 0 33 33 c 256,2,3
 0 66 0 66 0 113 c 256,4,5
 0 160 0 160 33 194 c 0,6,7
 66 227 66 227 113 227 c 256,8,9
 160 227 160 227 194 194 c 0,10,11
 227 160 227 160 227 113 c 256,12,13
 227 66 227 66 194 33 c 0,14,15
 160 0 160 0 113 0 c 256,0,1
113 227 m 256,16,17
 66 227 66 227 33 260 c 0,18,19
 0 294 0 294 0 341 c 256,20,21
 0 388 0 388 33 421 c 0,22,23
 66 455 66 455 113 455 c 256,24,25
 160 455 160 455 194 421 c 0,26,27
 227 388 227 388 227 341 c 256,28,29
 227 294 227 294 194 260 c 0,30,31
 160 227 160 227 113 227 c 256,16,17
113 455 m 256,32,33
 66 455 66 455 33 488 c 256,34,35
 0 521 0 521 0 568 c 0,36,37
 0 616 0 616 33 649 c 256,38,39
 66 682 66 682 113 682 c 256,40,41
 160 682 160 682 194 649 c 0,42,43
 227 615 227 615 227 568 c 256,44,45
 227 521 227 521 194 488 c 0,46,47
 160 455 160 455 113 455 c 256,32,33
113 682 m 256,48,49
 66 682 66 682 33 716 c 0,50,51
 0 749 0 749 0 796 c 256,52,53
 0 843 0 843 33 876 c 0,54,55
 66 910 66 910 113 910 c 256,56,57
 160 910 160 910 194 876 c 0,58,59
 227 843 227 843 227 796 c 256,60,61
 227 749 227 749 194 716 c 0,62,63
 160 682 160 682 113 682 c 256,48,49
341 682 m 256,64,65
 294 682 294 682 260 716 c 0,66,67
 227 749 227 749 227 796 c 256,68,69
 227 843 227 843 260 876 c 0,70,71
 294 910 294 910 341 910 c 256,72,73
 388 910 388 910 421 876 c 0,74,75
 455 843 455 843 455 796 c 256,76,77
 455 749 455 749 421 716 c 0,78,79
 388 682 388 682 341 682 c 256,64,65
568 682 m 256,80,81
 521 682 521 682 488 716 c 0,82,83
 455 749 455 749 455 796 c 256,84,85
 455 843 455 843 488 876 c 0,86,87
 521 910 521 910 568 910 c 0,88,89
 616 910 616 910 649 876 c 0,90,91
 682 843 682 843 682 796 c 256,92,93
 682 749 682 749 649 716 c 0,94,95
 615 682 615 682 568 682 c 256,80,81
796 682 m 256,96,97
 749 682 749 682 716 716 c 0,98,99
 682 749 682 749 682 796 c 256,100,101
 682 843 682 843 716 876 c 0,102,103
 749 910 749 910 796 910 c 256,104,105
 843 910 843 910 876 876 c 0,106,107
 910 843 910 843 910 796 c 256,108,109
 910 749 910 749 876 716 c 0,110,111
 843 682 843 682 796 682 c 256,96,97
113 910 m 256,112,113
 66 910 66 910 33 943 c 256,114,115
 0 976 0 976 0 1024 c 0,116,117
 0 1071 0 1071 33 1104 c 256,118,119
 66 1137 66 1137 113 1137 c 256,120,121
 160 1137 160 1137 194 1104 c 0,122,123
 227 1071 227 1071 227 1024 c 0,124,125
 227 976 227 976 194 943 c 0,126,127
 160 910 160 910 113 910 c 256,112,113
1024 910 m 0,128,129
 976 910 976 910 943 943 c 256,130,131
 910 976 910 976 910 1024 c 0,132,133
 910 1071 910 1071 943 1104 c 256,134,135
 976 1137 976 1137 1024 1137 c 0,136,137
 1071 1137 1071 1137 1104 1104 c 256,138,139
 1137 1071 1137 1071 1137 1024 c 0,140,141
 1137 976 1137 976 1104 943 c 256,142,143
 1071 910 1071 910 1024 910 c 0,128,129
113 1137 m 256,144,145
 66 1137 66 1137 33 1171 c 0,146,147
 0 1204 0 1204 0 1251 c 256,148,149
 0 1298 0 1298 33 1331 c 0,150,151
 66 1365 66 1365 113 1365 c 256,152,153
 160 1365 160 1365 194 1331 c 0,154,155
 227 1298 227 1298 227 1251 c 256,156,157
 227 1204 227 1204 194 1171 c 0,158,159
 160 1137 160 1137 113 1137 c 256,144,145
1024 1137 m 0,160,161
 976 1137 976 1137 943 1171 c 0,162,163
 910 1204 910 1204 910 1251 c 256,164,165
 910 1298 910 1298 943 1331 c 0,166,167
 976 1365 976 1365 1024 1365 c 0,168,169
 1071 1365 1071 1365 1104 1331 c 0,170,171
 1137 1298 1137 1298 1137 1251 c 256,172,173
 1137 1204 1137 1204 1104 1171 c 0,174,175
 1071 1137 1071 1137 1024 1137 c 0,160,161
113 1365 m 256,176,177
 66 1365 66 1365 33 1398 c 0,178,179
 0 1432 0 1432 0 1479 c 256,180,181
 0 1526 0 1526 33 1559 c 256,182,183
 66 1592 66 1592 113 1592 c 256,184,185
 160 1592 160 1592 194 1559 c 0,186,187
 227 1526 227 1526 227 1479 c 0,188,189
 227 1431 227 1431 194 1398 c 0,190,191
 160 1365 160 1365 113 1365 c 256,176,177
341 1365 m 256,192,193
 294 1365 294 1365 260 1398 c 0,194,195
 227 1432 227 1432 227 1479 c 256,196,197
 227 1526 227 1526 260 1559 c 0,198,199
 294 1592 294 1592 341 1592 c 256,200,201
 388 1592 388 1592 421 1559 c 0,202,203
 455 1526 455 1526 455 1479 c 0,204,205
 455 1431 455 1431 421 1398 c 0,206,207
 388 1365 388 1365 341 1365 c 256,192,193
568 1365 m 256,208,209
 521 1365 521 1365 488 1398 c 0,210,211
 455 1432 455 1432 455 1479 c 256,212,213
 455 1526 455 1526 488 1559 c 256,214,215
 521 1592 521 1592 568 1592 c 0,216,217
 616 1592 616 1592 649 1559 c 256,218,219
 682 1526 682 1526 682 1479 c 0,220,221
 682 1431 682 1431 649 1398 c 0,222,223
 615 1365 615 1365 568 1365 c 256,208,209
796 1365 m 256,224,225
 749 1365 749 1365 716 1398 c 0,226,227
 682 1432 682 1432 682 1479 c 256,228,229
 682 1526 682 1526 716 1559 c 0,230,231
 749 1592 749 1592 796 1592 c 256,232,233
 843 1592 843 1592 876 1559 c 0,234,235
 910 1526 910 1526 910 1479 c 0,236,237
 910 1431 910 1431 876 1398 c 0,238,239
 843 1365 843 1365 796 1365 c 256,224,225
EndSplineSet
EndChar

